<ttFont>
          <CharString index="0">
            rmoveto
            -54 29 61 -36 58 hhcurveto
            59 52 36 54 30 hvcurveto
            26 46 30 11 36 21 -36 15 -35 29 -21 40 rrcurveto
            52 -28 -50 33 -63 hhcurveto
            -62 -58 -33 -52 -28 hvcurveto
            -21 -40 -25 -16 -45 -28 43 -20 23 -12 25 -46 rrcurveto
            -355 -90 rmoveto
            59 52 36 54 30 hvcurveto
            26 46 30 11 36 21 -36 15 -35 29 -21 40 rrcurveto
            52 -28 -50 33 -63 hhcurveto
            -62 -58 -33 -52 -28 hvcurveto
            -21 -40 -25 -16 -45 -28 43 -20 23 -12 25 -46 rrcurveto
            -54 29 61 -36 58 hhcurveto
            423 107 rmoveto
            -18 22 -14 28 -19 11 19 8 20 44 8 9 rrcurveto
            36 26 16 1 27 hhcurveto
            -15 -21 -19 -28 -49 vvcurveto
            -54 19 -12 15 -27 vhcurveto
            -60 callsubr
            -438 -32 -11 callsubr
            -54 19 -12 15 -27 vhcurveto
            endchar
          </CharString>
          <CharString index="1">
            361 1 72 -13 48 vhcurveto
            -4 15 -22 21 -42 15 34 10 25 20 9 27 rrcurveto
            9 31 3 76 289 vvcurveto
            -37 callgsubr
            return
          </CharString>
          <CharString index="2">
            231 -30 137 1332 111 hstemhm
            245 96 61 211 -11 11 570 140 hintmask 11101100
            245 379 rmoveto
            -228 183 -181 398 142 183 51 164 168 vhcurveto
            20 20 31 25 26 11 -35 25 -22 21 -16 38 rrcurveto
            340 vlineto
            61 17 15 115 56 vhcurveto
            -110 51 -22 25 57 vvcurveto
            445 vlineto
            44 27 39 20 37 hhcurveto
            51 25 -8 -9 16 hvcurveto
            6 9 4 14 16 vvcurveto
            53 -40 36 -69 -33 -22 -8 -19 -26 vhcurveto
            18 -23 -29 9 -29 hhcurveto
            -33 -26 -10 -16 -21 hvcurveto
            16 -24 -33 10 -39 hhcurveto
            -57 -48 -34 -55 -15 3 -11 8 -13 hvcurveto
            9 16 21 8 47 hhcurveto
            39 44 -20 -44 29 hvcurveto
            -445 vlineto
            -58 -33 -33 -89 -42 vhcurveto
            98 -48 24 -23 -61 56 callsubr
            -134 -140 -105 -148 -132 -150 101 169 vhcurveto
            279 -104 callgsubr
            148 -391 rmoveto
            -24 9 -28 32 118 vvcurveto
            184 -1 96 -11 42 vhcurveto
            -4 15 -22 21 -42 15 34 10 25 20 9 27 rrcurveto
            9 31 3 76 36 callgsubr
            21 -24 -52 callsubr
            hintmask 11110100
            -87 callgsubr
            -212 -5 -33 vhcurveto
            return
          </CharString>
          <CharString index="3">
            rmoveto
            -106 callsubr
            return
          </CharString>
          <CharString index="4">
            10 -33 hhcurveto
            -34 -46 -10 -23 -36 hvcurveto
            23 -35 -32 10 -37 0 callsubr
            -66 -33 -36 -79 callsubr
            return
          </CharString>
          <CharString index="5">
            -33 callgsubr
            30 10 20 25 hvcurveto
            -19 24 29 -11 41 -43 callsubr
            638 vlineto
            111 14 83 82 88 hhcurveto
            104 61 -46 -189 hvcurveto
            -596 -64 callgsubr
            40 36 11 19 28 vhcurveto
            -20 28 33 -10 38 hhcurveto
            34 32 12 19 24 hvcurveto
            -20 29 31 -11 35 hhcurveto
            79 34 -82 callsubr
            hintmask 0110011111110000
            -84 callgsubr
            -47 -23 20 42 -13 hvcurveto
            313 34 callgsubr
            66 vlineto
            239 -100 145 -225 -156 -125 -79 -123 -69 vhcurveto
            94 vlineto
            73 -27 35 -68 -49 -39 -27 -35 -30 vhcurveto
            hintmask 0111001111110000
            14 -31 -34 -47 callsubr
            -146 vlineto
            -66 -33 -25 -44 callgsubr
            99 -48 23 -27 -58 vvcurveto
            -311 vlineto
            -42 -13 -23 -20 -47 -94 callsubr
            926 192 rmoveto
            381 vlineto
            185 -24 57 -26 65 vhcurveto
            65 -32 46 -35 -288 vvcurveto
            -68 -4 -143 -99 callsubr
            -680 1 27 callgsubr
            56 -13 48 vhcurveto
            -4 15 -22 20 -31 callsubr
            22 4 15 rrcurveto
            13 48 -1 56 -38 callgsubr
            32 callgsubr
            3 -1 -195 -58 callgsubr
            return
          </CharString>
          <CharString index="6">
            -107 -470 137 1383 110 -79 79 hstemhm
            94 159 193 22 hintmask 10111000
            188 -158 rmoveto
            -50 -44 -38 -70 -122 150 -82 102 147 91 86 383 132 hvcurveto
            166 451 23 64 38 55 107 28 rlinecurve
            -59 31 -10 26 1 36 1 46 13 42 51 137 rrcurveto
            92 34 50 38 53 hhcurveto
            28 35 -5 -9 15 hvcurveto
            7 45 callgsubr
            2 -35 35 -57 hhcurveto
            -29 -24 -11 -17 -21 hvcurveto
            17 -22 -27 11 -30 hhcurveto
            -33 -28 -12 -20 -23 hvcurveto
            19 -20 -28 13 -32 hhcurveto
            -65 -39 -38 -50 -1 hvcurveto
            -15 3 -13 7 -13 vhcurveto
            hintmask 11011000
            9 17 26 10 31 hhcurveto
            50 17 -20 -31 6 hvcurveto
            -219 -641 -231 624 rlineto
            45 -3 28 19 26 hhcurveto
            21 18 -5 -9 callgsubr
            6 6 8 17 16 vvcurveto
            53 -2 -48 40 -71 hhcurveto
            -35 -39 -12 -21 -29 hvcurveto
            22 -30 -37 11 -39 hhcurveto
            -37 -35 -13 -23 -26 hvcurveto
            24 -33 -39 12 -37 hhcurveto
            -78 -33 -42 -44 2 hvcurveto
            -19 6 -16 6 -7 vhcurveto
            -72 callgsubr
            18 hhcurveto
            64 24 -24 -73 31 hvcurveto
            70 -165 21 -55 1 -43 1 -25 -11 -37 -59 -30 77 -17 67 -58 30 -68 97 -223 42 -80 27 -76 rrcurveto
            17 -39 20 -61 -52 vvcurveto
            -179 1 -75 -77 -74 hhcurveto
            -64 -87 79 56 28 hvcurveto
            42 -23 -23 -2 -24 hhcurveto
            331 423 rmoveto
            -58 121 -53 130 -19 36 -7 15 -23 21 -49 9 23 8 18 31 -2 18 -1 13 -10 27 -18 42 -37 82 -5 33 -2 30 rrcurveto
            23 11 19 12 8 vhcurveto
            184 -436 47 -112 3 -27 1 -35 rlinecurve
            1 -22 -9 -26 -7 -8 rrcurveto
            return
          </CharString>
          <CharString index="7">
            -216 -20 63 -63 111 502 10 121 88 -85 39 203 171 -120 161 -114 -5 callgsubr
            59 178 hintmask 1010101011000000
            -19 callsubr
            40 31 11 23 27 hvcurveto
            -22 37 43 -12 42 hhcurveto
            79 34 -82 callsubr
            hintmask 0111001011000000
            -84 callgsubr
            -61 -27 23 46 -15 hvcurveto
            541 vlineto
            134 21 104 185 97 hhcurveto
            56 24 -30 -62 -47 -52 -71 -78 2 hvcurveto
            -50 10 40 -38 44 hhcurveto
            5 9 0 2 10 hvcurveto
            -5 vlineto
            -18 -8 -13 -11 -5 vhcurveto
            -16 3 24 -17 40 hhcurveto
            hintmask 1010101011000000
            45 70 34 41 31 hvcurveto
            19 hlineto
            41 39 34 36 9 hvcurveto
            -33 13 -27 21 7 92 rrcurveto
            164 13 -95 94 -139 hhcurveto
            -116 -128 -63 -183 -74 hvcurveto
            137 vlineto
            hintmask 1010100111000000
            73 -30 35 -68 -49 -39 -27 -35 -30 vhcurveto
            hintmask 0110110011000000
            14 -31 -34 -47 callsubr
            -105 vlineto
            -66 -33 -65 -85 callsubr
            -36 -58 vvcurveto
            -303 vlineto
            -42 -13 -23 -20 -47 -94 callsubr
            246 193 27 callgsubr
            56 -13 48 vhcurveto
            -4 15 -22 21 -31 callsubr
            21 4 15 rrcurveto
            13 48 -1 56 -38 callgsubr
            -205 3 vvcurveto
            4 -1 -197 -58 callgsubr
            return
          </CharString>
          <CharString index="8">
            -5 -33 vhcurveto
            -7 -47 -21 -33 -24 -9 rrcurveto
            return
          </CharString>
          <CharString index="9">
            hhcurveto
            -34 -46 -10 -23 -36 hvcurveto
            23 -35 -32 10 -37 0 callsubr
            -66 -33 -36 -79 callsubr
            -489 vlineto
            -70 callsubr
            return
          </CharString>
          <CharString index="10">
            rmoveto
            13 19 3 5 18 hvcurveto
            169 43 127 155 158 vvcurveto
            91 -60 66 -92 -48 -53 -15 -25 -23 vhcurveto
            6 -19 4 -31 -24 vvcurveto
            -158 -47 -110 -57 -73 vhcurveto
            -10 -12 -6 -12 -15 vvcurveto
            -18 21 -9 19 vhcurveto
            74 110 rmoveto
            55 75 27 94 115 vvcurveto
            22 -5 27 -6 15 vhcurveto
            3 3 9 4 8 hhcurveto
            24 23 -22 -61 -100 -71 -188 -67 16 hvcurveto
            endchar
          </CharString>
          <CharString index="11">
            48 -22 18 -13 28 -50 rrcurveto
            -59 33 71 -45 67 hhcurveto
            67 61 45 59 34 hvcurveto
            29 50 25 50 callsubr
            -30 36 -24 44 rrcurveto
            59 -32 -58 35 -72 hhcurveto
            -71 -68 -37 -59 -32 hvcurveto
            -24 -44 -19 -20 -51 -31 rrcurveto
            return
          </CharString>
          <CharString index="12">
            -51 -21 6 -10 -73 callsubr
            return
          </CharString>
          <CharString index="13">
            hhcurveto
            -19 -20 -90 callsubr
            return
          </CharString>
          <CharString index="14">
            58 -20 63 -63 111 957 112 327 53 hstemhm
            208 94 57 187 219 122 hintmask 10111110
            -36 callsubr
            37 33 10 20 -2 callgsubr
            46 28 -6 -62 callgsubr
            338 vlineto
            125 109 212 -461 rlineto
            -27 -14 -21 -8 -22 hhcurveto
            -9 -20 5 13 -17 hvcurveto
            -9 -8 -6 -15 -24 vvcurveto
            -50 -7 callsubr
            40 13 21 29 hvcurveto
            -22 38 49 -12 36 hhcurveto
            79 37 42 40 22 -6 14 -8 10 hvcurveto
            hintmask 01111110
            -84 callgsubr
            -44 -22 36 80 -38 hvcurveto
            -305 600 87 75 rlineto
            102 118 63 64 64 hhcurveto
            30 36 -11 -16 16 hvcurveto
            6 9 4 26 16 vvcurveto
            53 -47 35 -57 -38 -26 -13 -14 -19 vhcurveto
            15 -18 -24 12 -34 hhcurveto
            -38 -30 -15 -19 -21 hvcurveto
            17 -21 -31 17 -41 hhcurveto
            -79 -40 -43 -45 -15 3 -13 8 -13 hvcurveto
            9 16 11 10 33 hhcurveto
            34 15 -15 -17 -15 -17 -30 -49 -51 hvcurveto
            -289 -267 rlineto
            837 vlineto
            -23 callsubr
            -53 -40 -31 -38 -31 vhcurveto
            7 -29 -80 callgsubr
            49 44 -25 -89 hvcurveto
            -566 vlineto
            -64 callsubr
            -26 -58 vvcurveto
            -307 -36 callgsubr
            20 2 callgsubr
            -4 -505 -14 vvcurveto
            35 2 -227 -10 -48 -70 callgsubr
            635 -1 rmoveto
            -181 398 45 40 95 -206 rlineto
            28 -52 26 -71 -55 vvcurveto
            -38 -9 -11 -4 -5 vhcurveto
            return
          </CharString>
          <CharString index="15">
            rmoveto
            26 22 3 27 11 -12 13 -12 12 hvcurveto
            -85 85 -15 97 90 vvcurveto
            16 1 13 3 13 vhcurveto
            25 -23 -36 15 -52 hhcurveto
            -80 -70 -55 -91 -87 64 -94 123 -55 hvcurveto
            -31 70 51 -7 25 hhcurveto
            -66 66 rmoveto
            -90 28 -109 93 89 vvcurveto
            44 31 37 42 -1 vhcurveto
            -11 -23 -3 -21 -17 vvcurveto
            -75 47 -88 93 -66 vhcurveto
            endchar
          </CharString>
          <CharString index="16">
            rmoveto
            -96 callsubr
            return
          </CharString>
          <CharString index="17">
            -67 callgsubr
            -8 -10 -3 -9 -16 vvcurveto
            return
          </CharString>
          <CharString index="18">
            rmoveto
            -5 18 19 -3 13 hhcurveto
            19 21 9 18 15 -6 12 -10 12 hvcurveto
            -57 73 -47 106 171 vvcurveto
            24 6 21 4 20 vhcurveto
            25 -23 -53 15 -48 hhcurveto
            -92 -60 -66 -91 -158 127 -155 169 -43 hvcurveto
            -56 102 rmoveto
            -60 -12 -110 168 100 vvcurveto
            54 30 44 41 -18 vhcurveto
            -11 -23 -3 -21 -17 vvcurveto
            -107 19 -55 94 -113 vhcurveto
            endchar
          </CharString>
          <CharString index="19">
            73 rmoveto
            -91 callgsubr
            return
          </CharString>
          <CharString index="20">
            -79 callgsubr
            -25 82 rmoveto
            -28 -18 3 33 -27 hvcurveto
            -21 24 -17 30 -21 12 21 10 24 47 8 10 rrcurveto
            40 31 19 2 29 hhcurveto
            -16 -24 -22 -31 -54 vvcurveto
            -58 22 -14 16 -30 vhcurveto
            -463 -1583 -83 callsubr
            -96 -75 callgsubr
            -5 8 callsubr
            -81 callgsubr
            endchar
          </CharString>
          <CharString index="21">
            22 3 14 24 107 36 32 50 25 rrcurveto
            7 -5 2 -6 -5 vvcurveto
            -9 -6 -8 -5 -8 vhcurveto
            -25 -43 -27 -22 -109 vvcurveto
            -79 29 -51 24 -48 vhcurveto
            6 -10 5 57 callsubr
            -3 -6 -7 -5 vhcurveto
            return
          </CharString>
          <CharString index="22">
            -44 callgsubr
            99 -48 23 return
          </CharString>
          <CharString index="23">
            -8 -9 14 hvcurveto
            6 4 5 15 16 vvcurveto
            62 -2 -70 36 -83 hhcurveto
            -39 -42 -13 -21 -33 hvcurveto
            22 -29 -42 12 -44 hhcurveto
            -46 -40 -14 -21 -30 hvcurveto
            23 -30 -35 12 -44 hhcurveto
            -84 -37 -47 -55 -12 6 -15 5 -4 hvcurveto
            return
          </CharString>
          <CharString index="24">
            rmoveto
            11 -6 -27 27 -36 hhcurveto
            -50 -41 -28 -61 -164 167 -117 192 207 178 124 266 64 hvcurveto
            11 47 10 48 72 25 rrcurveto
            -55 33 -27 11 115 vvcurveto
            306 -18 callgsubr
            26 -62 callsubr
            83 -39 25 -68 -53 -33 -27 -35 -26 vhcurveto
            14 -32 -35 8 -38 -40 callsubr
            return
          </CharString>
          <CharString index="25">
            42 51 16 -3 9 -8 10 hvcurveto
            return
          </CharString>
          <CharString index="26">
            rmoveto
            27 23 18 26 hvcurveto
            -77 33 -77 90 -15 112 55 5 48 36 30 48 28 45 40 23 26 9 -46 24 -25 19 -23 39 rrcurveto
            68 -41 -56 37 -79 hhcurveto
            -71 -63 -34 -71 -42 hvcurveto
            -24 -39 -25 -19 -46 -24 45 -15 41 -37 20 -57 rrcurveto
            -241 87 117 -95 123 hhcurveto
            -195 347 rmoveto
            -34 8 -23 17 -22 26 -21 24 -13 11 -21 12 21 10 20 15 9 10 36 45 14 10 33 10 rrcurveto
            -16 -24 -4 -50 -17 vvcurveto
            -38 5 -39 16 -30 vhcurveto
            return
          </CharString>
          <CharString index="27">
            hhcurveto
            26 30 -5 -12 19 hvcurveto
            5 4 6 15 12 vvcurveto
            60 -37 42 -64 -25 -31 -8 -14 -28 vhcurveto
            14 -20 -24 8 -30 hhcurveto
            -29 -29 -8 -18 -23 hvcurveto
            18 -25 -29 8 -37 hhcurveto
            -59 -40 -36 -53 -16 4 -14 6 -9 hvcurveto
            return
          </CharString>
          <CharString index="28">
            -85 callsubr
            -35 -58 vvcurveto
            return
          </CharString>
          <CharString index="29">
            rmoveto
            536 vlineto
            -32 callsubr
            -24 -52 callsubr
            -48 callsubr
            -98 -52 vvcurveto
            -68 -4 -73 -99 callsubr
            -603 263 rmoveto
            32 15 24 22 3 14 22 100 29 67 59 55 rrcurveto
            7 -5 1 -16 -11 vvcurveto
            -9 -5 -22 -12 -28 vhcurveto
            -26 -61 -11 -59 -62 vvcurveto
            -62 13 -59 26 -61 vhcurveto
            12 -28 4 -22 -9 vvcurveto
            -11 -2 -16 -7 -5 vhcurveto
            -59 55 -29 67 -22 100 -5 callsubr
            rrcurveto
            return
          </CharString>
          <CharString index="30">
            -61 callsubr
            -28 82 rmoveto
            -28 -18 3 33 -27 hvcurveto
            -21 24 -17 30 -21 12 21 10 24 47 8 10 rrcurveto
            40 31 19 2 29 hhcurveto
            -16 -24 -22 -31 -54 vvcurveto
            -58 22 -14 16 -30 vhcurveto
            return
          </CharString>
          <CharString index="31">
            rmoveto
            27 18 26 98 15 hvcurveto
            16 106 38 138 33 92 20 57 41 37 45 15 -46 24 -25 19 -24 39 rrcurveto
            52 -31 -60 33 -65 hhcurveto
            -65 -60 -33 -52 -31 hvcurveto
            -24 -39 -25 -19 -46 -24 45 -15 41 -37 20 -57 33 -92 38 -138 16 -106 rrcurveto
            -103 15 14 -21 27 hhcurveto
            -47 337 rmoveto
            -37 161 -21 39 -49 32 19 9 18 13 8 9 33 41 12 9 30 9 rrcurveto
            -14 -22 1 -74 -63 vvcurveto
            return
          </CharString>
          <CharString index="32">
            -38 -40 callsubr
            -96 -75 callgsubr
            -5 -89 hvcurveto
            return
          </CharString>
          <CharString index="33">
            314 hlineto
            2 -172 rlineto
            -16 -21 -23 -8 -29 hhcurveto
            -19 -30 -90 callsubr
            -57 46 -36 75 33 34 13 20 30 vhcurveto
            -21 25 31 -12 31 hhcurveto
            30 31 12 20 24 hvcurveto
            -19 30 34 -13 33 hhcurveto
            75 46 36 57 16 -3 9 -8 10 hvcurveto
            -13 -17 -30 -4 -19 hhcurveto
            -30 -23 8 17 -20 hvcurveto
            171 vlineto
            35 -1 34 -1 19 -4 rrcurveto
            28 -6 7 -10 -15 vvcurveto
            -16 -6 -11 -9 -11 vhcurveto
            -5 4 8 -3 19 hhcurveto
            33 43 40 48 23 -8 20 -12 15 hvcurveto
            11 16 9 21 25 vvcurveto
            47 -35 45 -41 -19 -8 -3 -5 -4 vhcurveto
            9 -11 6 -11 -16 vvcurveto
            -15 -7 -10 -28 -6 vhcurveto
            -4 -19 -34 -2 -35 hhcurveto
            338 vlineto
            88 -36 43 -69 -34 -34 -17 -22 -26 vhcurveto
            14 -18 -24 10 -30 hhcurveto
            -33 -39 -14 -70 -59 hvcurveto
            -285 -338 rlineto
            return
          </CharString>
          <CharString index="34">
            -16 callgsubr
            -89 callgsubr
            return
          </CharString>
          <CharString index="35">
            99 48 -55 callgsubr
            return
          </CharString>
          <CharString index="36">
            -38 callsubr
            37 -67 callsubr
            36 -44 callsubr
            return
          </CharString>
          <CharString index="37">
            -94 callgsubr
            286 192 -104 callsubr
            return
          </CharString>
          <CharString index="38">
            40 -30 -5 38 18 6 15 16 vvcurveto
            37 -40 34 -36 -21 -24 -8 -17 -21 vhcurveto
            6 -20 2 -11 -27 vvcurveto
            -84 -30 -107 -59 -80 vhcurveto
            -99 -72 -85 -31 -89 hhcurveto
            -103 -84 49 61 -37 hvcurveto
            492 vlineto
            13 22 30 8 33 hhcurveto
            30 46 -7 -11 26 hvcurveto
            37 -16 14 -41 -43 vvcurveto
            -40 -5 -31 -16 -26 vhcurveto
            -7 9 21 -9 20 hhcurveto
            41 67 31 99 14 -5 19 -7 19 hvcurveto
            35 41 6 57 16 vvcurveto
            12 -6 56 -35 41 vhcurveto
            7 18 5 19 15 vvcurveto
            76 -67 25 -41 -20 -21 -7 -7 -9 vhcurveto
            16 -18 5 -22 -28 vvcurveto
            -42 -12 -42 -37 -17 vhcurveto
            -12 -26 -48 -6 -30 hhcurveto
            -33 -30 8 14 -22 hvcurveto
            387 vlineto
            92 33 90 51 101 hhcurveto
            65 93 -32 -102 67 hvcurveto
            return
          </CharString>
          <CharString index="39">
            -24 callsubr
            -64 -42 -51 -65 callsubr
            return
          </CharString>
          <CharString index="40">
            32 10 22 35 vhcurveto
            -22 return
          </CharString>
          <CharString index="41">
            -39 57 -23 54 9 callsubr
            64 39 47 rrcurveto
            7 -5 7 -16 -11 vvcurveto
            -9 -1 -10 -8 -30 vhcurveto
            -16 -61 -25 -115 -76 vvcurveto
            -76 25 -115 16 -61 vhcurveto
            8 -30 1 57 callsubr
            -7 -16 -7 -5 vhcurveto
            endchar
          </CharString>
          <CharString index="42">
            -16 3 -9 -16 callgsubr
            return
          </CharString>
          <CharString index="43">
            -66 -33 -25 -85 callsubr
            return
          </CharString>
          <CharString index="44">
            hhcurveto
            19 20 -4 -9 callgsubr
            return
          </CharString>
          <CharString index="45">
            -72 callsubr
            25 66 vvcurveto
            343 vlineto
            return
          </CharString>
          <CharString index="46">
            375 1323 -79 callgsubr
            return
          </CharString>
          <CharString index="47">
            -25 -16 3 29 -24 hvcurveto
            return
          </CharString>
          <CharString index="48">
            rmoveto
            -97 callgsubr
            return
          </CharString>
          <CharString index="49">
            53 35 9 7 19 vvcurveto
            19 -9 7 -53 35 vhcurveto
            -155 102 -134 121 -105 140 rrcurveto
            -16 -15 -7 -21 -29 vvcurveto
            -84 41 -115 182 -161 vhcurveto
            -182 -161 -41 -114 -83 vvcurveto
            -29 7 -21 16 -15 vhcurveto
            return
          </CharString>
          <CharString index="50">
            -69 callgsubr
            247 204 27 callgsubr
            56 -13 48 vhcurveto
            -4 15 -22 return
          </CharString>
          <CharString index="51">
            -42 90 37 -67 callsubr
            36 -44 callsubr
            33 46 10 22 36 hvcurveto
            -22 return
          </CharString>
          <CharString index="52">
            rmoveto
            14 11 3 9 9 hvcurveto
            66 -6 43 35 40 hhcurveto
            34 29 -12 -37 76 hvcurveto
            -41 86 47 -13 64 hhcurveto
            118 82 93 125 return
          </CharString>
          <CharString index="53">
            -71 callsubr
            33 46 10 return
          </CharString>
          <CharString index="54">
            10 85 33 59 59 29 -59 28 -34 50 -9 83 return
          </CharString>
          <CharString index="55">
            7 -38 rrcurveto
            return
          </CharString>
          <CharString index="56">
            rmoveto
            31 31 10 22 29 hvcurveto
            -21 21 29 -11 30 hhcurveto
            28 29 10 19 23 hvcurveto
            -21 28 31 -8 35 hhcurveto
            56 43 33 60 16 -3 9 -8 10 hvcurveto
            -13 -17 -30 -4 -19 hhcurveto
            return
          </CharString>
          <CharString index="57">
            hmoveto
            21 10 24 47 8 10 rrcurveto
            40 31 19 7 29 hhcurveto
            -16 -24 -22 -36 -54 vvcurveto
            -58 22 -14 16 -30 vhcurveto
            -28 -18 3 33 -27 hvcurveto
            -21 24 -17 30 -21 12 rrcurveto
            endchar
          </CharString>
          <CharString index="58">
            75 73 rmoveto
            -30 callgsubr
            return
          </CharString>
          <CharString index="59">
            9 -51 2 return
          </CharString>
          <CharString index="60">
            8 -75 callsubr
            return
          </CharString>
          <CharString index="61">
            71 rmoveto
            -55 32 -41 56 vhcurveto
            1022 1343 rlineto
            43 57 22 39 40 vvcurveto
            55 -32 41 -56 vhcurveto
            -1022 -1343 rlineto
            -43 -57 -22 -39 -40 vvcurveto
            return
          </CharString>
          <CharString index="62">
            -13 -17 -20 return
          </CharString>
          <CharString index="63">
            47 -10 34 hhcurveto
            return
          </CharString>
          <CharString index="64">
            hhcurveto
            53 45 35 62 12 -6 -62 callgsubr
            return
          </CharString>
          <CharString index="65">
            985 vlineto
            -37 callgsubr
            return
          </CharString>
          <CharString index="66">
            rmoveto
            666 vlineto
            -32 callsubr
            return
          </CharString>
          <CharString index="67">
            -25 callgsubr
            -55 return
          </CharString>
          <CharString index="68">
            87 vvcurveto
            50 20 25 18 8 vhcurveto
            -6 -120 99 -172 249 -163 rrcurveto
            330 -215 47 -73 -134 vvcurveto
            -49 -24 -40 -29 -19 vhcurveto
            4 20 1 21 21 vvcurveto
            -1 65 -20 65 -31 42 -52 71 -83 64 -127 79 rrcurveto
            19 -30 -25 return
          </CharString>
          <CharString index="69">
            75 73 rmoveto
            -51 64 -42 90 return
          </CharString>
          <CharString index="70">
            vvcurveto
            22 -15 17 -12 callsubr
            rrcurveto
            9 -46 1 return
          </CharString>
          <CharString index="71">
            55 -53 callgsubr
            return
          </CharString>
          <CharString index="72">
            54 -49 callgsubr
            return
          </CharString>
          <CharString index="73">
            rmoveto
            130 104 90 133 127 -102 97 -132 -131 -103 -99 -125 -122 97 -101 137 hvcurveto
            3 109 rmoveto
            -64 -49 51 62 62 49 52 64 63 51 -52 -62 -62 -51 -51 -63 hvcurveto
            endchar
          </CharString>
          <CharString index="74">
            -16 -14 2 5 -13 hvcurveto
            671 vlineto
            88 -36 43 -69 -46 -35 -31 -33 -20 vhcurveto
            19 -36 -37 5 -35 hhcurveto
            return
          </CharString>
          <CharString index="75">
            22 -10 21 return
          </CharString>
          <CharString index="76">
            -42 15 42 15 22 return
          </CharString>
          <CharString index="77">
            296 vlineto
            88 30 46 79 62 48 -29 -105 vhcurveto
            -296 vlineto
            -104 -48 -23 -62 -61 -48 23 104 vhcurveto
            return
          </CharString>
          <CharString index="78">
            -117 1 -120 -83 -116 hhcurveto
            -131 -106 91 158 hvcurveto
            96 vlineto
            63 379 156 22 42 hhcurveto
            61 34 27 58 hvcurveto
            -28 12 -20 23 55 vvcurveto
            274 -225 199 -248 return
          </CharString>
          <CharString index="79">
            vvcurveto
            -308 -69 callgsubr
            return
          </CharString>
          <CharString index="80">
            4 15 rrcurveto
            13 48 -1 22 531 vvcurveto
            22 -15 return
          </CharString>
          <CharString index="81">
            227 267 rlineto
            -267 vlineto
            90 -281 rmoveto
            545 41 callgsubr
            -72 vvcurveto
            -88 -4 -93 -99 callsubr
            return
          </CharString>
          <CharString index="82">
            23 19 -3 -5 19 hvcurveto
            -563 vlineto
            -5 -13 -14 -2 -16 hhcurveto
            -19 -30 -67 callgsubr
            return
          </CharString>
          <CharString index="83">
            hhcurveto
            -34 -46 -10 -23 -36 hvcurveto
            23 -18 callsubr
            -37 hhcurveto
            -90 return
          </CharString>
          <CharString index="84">
            73 -35 35 -68 return
          </CharString>
          <CharString index="85">
            177 1 return
          </CharString>
          <CharString index="86">
            -67 56 -21 34 vhcurveto
            333 578 rmoveto
            29 38 7 49 41 vvcurveto
            65 -24 48 -33 36 vhcurveto
            57 61 -69 -79 -52 -34 -62 -63 -15 hvcurveto
            9 -460 rmoveto
            return
          </CharString>
          <CharString index="87">
            136 54 -82 -70 -57 -30 -49 -70 -52 -39 48 36 15 6 17 15 11 hvcurveto
            return
          </CharString>
          <CharString index="88">
            58 73 rmoveto
            -51 34 -42 79 35 38 11 21 31 vhcurveto
            -20 29 39 -4 callgsubr
            return
          </CharString>
          <CharString index="89">
            -35 -32 10 return
          </CharString>
          <CharString index="90">
            143 vvcurveto
            177 return
          </CharString>
          <CharString index="91">
            381 vlineto
            134 -4 86 -26 65 vhcurveto
            65 -32 26 -79 -222 vvcurveto
            -68 -4 -143 -99 callsubr
            -666 hmoveto
            return
          </CharString>
          <CharString index="92">
            96 174 60 109 15 102 15 109 96 61 168 hintmask 1010101111110000
            return
          </CharString>
          <CharString index="93">
            -159 36 167 -127 202 hhcurveto
            return
          </CharString>
          <CharString index="94">
            104 -104 375 169 -20 59 339 -110 110 hstemhm
            93 127 118 245 -120 90 -60 90 31 132 -102 142 return
          </CharString>
          <CharString index="95">
            -27 10 -47 return
          </CharString>
          <CharString index="96">
            rmoveto
            -60 callsubr
            -18 22 -14 28 -19 11 19 8 20 44 8 9 rrcurveto
            36 26 16 1 27 hhcurveto
            -15 -21 -19 -28 -49 vvcurveto
            return
          </CharString>
          <CharString index="97">
            19 62 39 35 42 24 -32 18 -47 38 -16 57 return
          </CharString>
          <CharString index="98">
            -20 146 -130 -21 708 145 -96 146 556 146 hstemhm
            332 165 219 96 755 219 96 61 return
          </CharString>
          <CharString index="99">
            rmoveto
            -3 16 4 13 9 8 rrcurveto
            32 36 121 15 128 hhcurveto
            145 96 -19 -33 31 hvcurveto
            5 -5 4 -12 -2 -23 rrcurveto
            return
          </CharString>
          <CharString index="100">
            45 -35 53 39 32 11 19 25 vhcurveto
            -20 28 32 -10 38 hhcurveto
            35 return
          </CharString>
          <CharString index="101">
            14 -38 -41 9 -38 -40 callsubr
            return
          </CharString>
          <CharString index="102">
            -3 14 -24 22 -32 15 return
          </CharString>
          <CharString index="103">
            -204 -25 137 612 78 243 135 hstemhm
            351 153 308 63 -47 239 -138 157 hintmask 11111010
            return
          </CharString>
          <CharString index="104">
            rmoveto
            -85 51 -44 63 8 17 3 5 9 vhcurveto
            return
          </CharString>
          <CharString index="105">
            -34 -29 6 37 -76 return
          </CharString>
          <CharString index="106">
            -84 callgsubr
            -52 -49 25 51 -22 hvcurveto
            489 vlineto
            return
          </CharString>
          <CharString index="107">
            hhcurveto
            -90 -64 -42 -51 -16 3 -9 -73 callsubr
            -68 callgsubr
            -422 vlineto
            return
          </CharString>
          <CharString index="108">
            -5 -9 16 hvcurveto
            6 9 4 16 16 vvcurveto
            return
          </CharString>
          <CharString index="109">
            hlineto
            65 352 rlineto
            7 38 3 24 14 vvcurveto
            70 -31 54 -70 -17 -15 -5 -7 -9 vhcurveto
            -100 -540 rlineto
            return
          </CharString>
          <CharString index="110">
            -67 77 14 20 4 7 14 vhcurveto
            -9 13 -5 14 17 vvcurveto
            15 11 11 18 21 29 -14 -7 22 vhcurveto
            -20 return
          </CharString>
          <CharString index="111">
            187 53 14 53 22 24 vhcurveto
            21 -11 -16 11 -20 hhcurveto
            -68 -68 -86 -97 -27 6 -26 11 -22 hvcurveto
            return
          </CharString>
          <CharString index="112">
            3 -30 137 860 8 100 87 276 122 hstem
            300 271 550 150 vstem
            return
          </CharString>
          <CharString index="113">
            47 -17 25 -34 -84 vvcurveto
            -71 vlineto
            -81 -63 -37 -59 -101 -56 57 83 44 12 40 22 29 vhcurveto
            return
          </CharString>
          <CharString index="114">
            38 -12 -30 -10 -30 -34 -12 -70 -23 -126 -26 return
          </CharString>
          <CharString index="115">
            28 callsubr
            -26 -58 vvcurveto
            -600 vlineto
            return
          </CharString>
          <CharString index="116">
            -38 171 -5 callsubr
            32 15 24 22 3 14 38 171 23 return
          </CharString>
          <CharString index="117">
            342 146 -342 355 -154 -355 -342 -146 342 hlineto
            return
          </CharString>
          <CharString index="118">
            -260 vvcurveto
            -68 -4 -143 -99 callsubr
            endchar
          </CharString>
          <CharString index="119">
            105 140 134 121 155 102 rrcurveto
            return
          </CharString>
          <CharString index="120">
            -8 -10 -3 -9 -16 vvcurveto
            -57 46 -36 58 vhcurveto
            return
          </CharString>
          <CharString index="121">
            -20 63 -63 111 1396 53 hstemhm
            214 96 59 180 hintmask 10111000
            return
          </CharString>
          <CharString index="122">
            hhcurveto
            21 18 46 callgsubr
            -47 40 -71 -35 return
          </CharString>
          <CharString index="123">
            29 39 -4 callgsubr
            39 34 10 return
          </CharString>
          <CharString index="124">
            9 16 25 8 51 hhcurveto
            return
          </CharString>
          <CharString index="125">
            14 callgsubr
            -14 callsubr
            return
          </CharString>
          <CharString index="126">
            -41 106 -9 24 -29 28 -40 13 31 10 40 36 12 38 30 99 58 return
          </CharString>
          <CharString index="127">
            85 -45 44 -63 -8 -15 -3 -5 -9 vhcurveto
            return
          </CharString>
          <CharString index="128">
            229 27 17 281 96 261 11 return
          </CharString>
          <CharString index="129">
            -23 callsubr
            -50 return
          </CharString>
          <CharString index="130">
            hvcurveto
            7 77 28 35 77 29 -76 28 -28 34 -8 79 rrcurveto
            502 return
          </CharString>
          <CharString index="131">
            337 -262 191 hstemhm
            190 472 hintmask 00000000
            429 return
          </CharString>
          <CharString index="132">
            -53 callsubr
            rrcurveto
            392 return
          </CharString>
          <CharString index="133">
            44 callsubr
            96 return
          </CharString>
          <CharString index="134">
            hhcurveto
            272 117 175 306 36 hvcurveto
            7 58 16 return
          </CharString>
          <CharString index="135">
            -89 hvcurveto
            -146 vlineto
            -64 callsubr
            return
          </CharString>
          <CharString index="136">
            4 19 hhcurveto
            -68 callgsubr
            -422 vlineto
            -66 -33 return
          </CharString>
          <CharString index="137">
            138 -7 rmoveto
            -21 10 22 -13 30 hhcurveto
            45 44 17 63 return
          </CharString>
          <CharString index="138">
            hhcurveto
            -251 -176 -117 -303 -16 hvcurveto
            -3 -65 -30 return
          </CharString>
          <CharString index="139">
            hstemhm
            208 96 return
          </CharString>
          <CharString index="140">
            vlineto
            41 callsubr
            return
          </CharString>
          <CharString index="141">
            rlineto
            68 40 24 50 44 vvcurveto
            41 -14 17 -15 4 vhcurveto
            return
          </CharString>
          <CharString index="142">
            -31 hhcurveto
            -30 -38 5 12 -30 hvcurveto
            return
          </CharString>
          <CharString index="143">
            111 -111 return
          </CharString>
          <CharString index="144">
            10 -57 22 -49 56 -18 -56 -18 -22 -49 -10 -57 return
          </CharString>
          <CharString index="145">
            10 -4 7 -6 3 hvcurveto
            -5 -5 -11 -5 -10 hhcurveto
            return
          </CharString>
          <CharString index="146">
            vlineto
            -179 -65 -61 -105 -104 -66 61 179 vhcurveto
            return
          </CharString>
          <CharString index="147">
            66 33 36 89 41 -55 callgsubr
            36 66 vvcurveto
            return
          </CharString>
          <CharString index="148">
            -49 -18 -31 -18 -34 hhcurveto
            -19 -20 -67 callgsubr
            return
          </CharString>
          <CharString index="149">
            168 114 -101 -153 -18 -5 -29 -12 -28 return
          </CharString>
          <CharString index="150">
            81 53 68 64 72 -42 69 -90 -81 -54 -60 -78 return
          </CharString>
          <CharString index="151">
            hstemhm
            45 501 -338 return
          </CharString>
          <CharString index="152">
            hlineto
            -63 -342 rlineto
            -7 -38 -3 -24 -14 vvcurveto
            return
          </CharString>
          <CharString index="153">
            -24 -73 28 hvcurveto
            64 -165 24 -55 -43 vvcurveto
            return
          </CharString>
          <CharString index="154">
            vlineto
            54 45 32 52 26 -3 15 -5 11 hvcurveto
            return
          </CharString>
          <CharString index="155">
            632 hstem
            80 541 vstem
            return
          </CharString>
          <CharString index="156">
            -5 17 13 -2 15 hhcurveto
            49 return
          </CharString>
          <CharString index="157">
            12 41 23 -41 17 return
          </CharString>
          <CharString index="158">
            -32 -20 -6 -16 hhcurveto
            -18 -12 8 19 12 return
          </CharString>
          <CharString index="159">
            -20 -23 -18 -31 -34 vvcurveto
            188 56 rmoveto
            return
          </CharString>
          <CharString index="160">
            26 -69 -71 13 -82 hhcurveto
            -260 -201 return
          </CharString>
          <CharString index="161">
            -731 1384 -21 521 -20 hstem
            return
          </CharString>
          <CharString index="162">
            -52 61 20 15 7 12 14 vhcurveto
            -10 13 return
          </CharString>
          <CharString index="163">
            vvcurveto
            -319 vlineto
            return
          </CharString>
          <CharString index="164">
            -10 -9 vvcurveto
            -11 return
          </CharString>
        <CharString name=".notdef">
          -244 endchar
        </CharString>
        <CharString name=".null">
          endchar
        </CharString>
        <CharString name="A">
          -107 callgsubr
          endchar
        </CharString>
        <CharString name="AE">
          772 -21 -21 22 111 284 155 207 126 552 135 31 -20 hstemhm
          921 96 61 211 11 callgsubr
          hintmask 1111111110001000
          39 -20 rmoveto
          32 23 8 19 25 hvcurveto
          -18 23 29 -9 30 hhcurveto
          32 27 10 15 21 hvcurveto
          -15 24 32 -10 40 hhcurveto
          57 48 34 55 15 -3 11 -8 13 hvcurveto
          -9 -16 -21 -8 -47 hhcurveto
          -38 -41 11 21 -28 hvcurveto
          151 252 rlineto
          490 -208 hlineto
          -94 callgsubr
          -51 64 -42 90 37 -67 callsubr
          36 -44 callsubr
          35 49 11 26 37 hvcurveto
          -20 53 90 -17 95 hhcurveto
          113 76 18 32 77 hvcurveto
          16 41 28 8 24 hhcurveto
          30 12 -19 -27 -21 -1 -9 -3 -14 hvcurveto
          -5 27 17 -1 14 hhcurveto
          69 48 59 81 34 -10 25 -16 18 hvcurveto
          22 22 21 31 44 vvcurveto
          36 -29 38 -31 17 vhcurveto
          hintmask 1111111110010000
          6 14 6 15 13 vvcurveto
          hintmask 1111111110100000
          -69 callsubr
          hintmask 1111111111000000
          45 -68 10 -91 -64 vvcurveto
          -25 -3 -28 -9 -18 vhcurveto
          -13 25 18 -5 21 hhcurveto
          47 55 47 -19 callgsubr
          14 20 8 24 37 -77 callgsubr
          -69 8 -66 hhcurveto
          -91 -93 -17 -22 -61 hvcurveto
          27 -37 -52 12 -36 hhcurveto
          -41 -48 -13 -29 -34 hvcurveto
          24 -28 -50 18 -47 hhcurveto
          -87 -51 -50 -59 -16 4 -14 6 -11 hvcurveto
          11 21 21 8 28 hhcurveto
          32 28 -10 -26 23 hvcurveto
          -269 -443 -67 -104 -62 -16 -102 -22 rlinecurve
          38 -39 9 -27 -1 -50 rrcurveto
          -34 -21 -47 -28 -46 vhcurveto
          -277 -447 rlineto
          -11 -22 -23 -6 -25 hhcurveto
          -51 -25 8 9 -16 hvcurveto
          -6 -9 -4 -14 -16 vvcurveto
          -53 40 -36 69 vhcurveto
          978 285 rmoveto
          -42 callsubr
          -492 265 rmoveto
          396 658 rlineto
          -658 vlineto
          349 -264 rmoveto
          -1 3 0 3 3 vvcurveto
          -1144 -154 rmoveto
          24 21 -8 -8 -8 -7 -8 -6 rlinecurve
          endchar
        </CharString>
        <CharString name="Aacute">
          -107 callgsubr
          -754 1431 -98 callgsubr
        </CharString>
        <CharString name="Acircumflex">
          -107 callgsubr
          -906 1391 -93 callgsubr
        </CharString>
        <CharString name="Adieresis">
          -107 callgsubr
          -412 1524 -107 callsubr
        </CharString>
        <CharString name="Agrave">
          -107 callgsubr
          -469 1431 -92 callsubr
        </CharString>
        <CharString name="Aring">
          -107 callgsubr
          -621 1363 -34 callsubr
        </CharString>
        <CharString name="Atilde">
          -107 callgsubr
          -890 1420 -41 callgsubr
          -57 callgsubr
          -63 -37 -38 -40 -2 callsubr
          vhcurveto
          -95 callgsubr
        </CharString>
        <CharString name="B">
          204 -30 134 -124 58 -58 111 647 126 -69 38 592 135 -68 58 -26 callgsubr
          61 211 351 91 -61 91 hintmask 0100110110100000
          -71 callsubr
          34 48 11 24 36 hvcurveto
          hintmask 1000110110100000
          -27 60 94 -18 71 hhcurveto
          255 293 109 257 78 hvcurveto
          -10 callsubr
          -31 110 -79 98 -135 38 93 35 52 76 25 94 16 62 42 38 42 29 -42 21 -36 32 -17 57 rrcurveto
          182 -53 -238 118 -258 hhcurveto
          -69 -95 -18 -29 -70 hvcurveto
          hintmask 0010101110100000
          26 -37 -50 11 -35 hhcurveto
          -34 -46 -10 -23 -36 hvcurveto
          23 -35 -32 10 -37 0 callsubr
          -66 -33 -34 -85 callsubr
          -37 -58 vvcurveto
          -489 vlineto
          -94 callgsubr
          hintmask 0101010111000000
          558 791 rmoveto
          417 vlineto
          79 82 65 86 74 109 -52 -88 vhcurveto
          -231 vlineto
          -143 -49 -47 -115 vhcurveto
          227 37 rmoveto
          14 31 14 67 -17 callsubr
          -22 58 -12 25 vhcurveto
          34 -6 42 -41 19 -109 10 -57 6 -19 56 -18 -56 -18 -6 -29 -10 -57 -19 -105 -42 -37 -28 -5 rrcurveto
          -686 -636 -104 callsubr
          272 -4 rmoveto
          477 191 vlineto
          hintmask 1000110110100000
          96 94 -45 -131 hvcurveto
          -293 vlineto
          -111 -130 -54 -76 -90 -85 62 95 vhcurveto
          454 -95 rmoveto
          14 31 4 117 -17 callsubr
          -12 48 -12 25 vhcurveto
          30 -5 32 -31 23 -130 8 -43 26 -29 38 -12 -56 -18 -6 -39 -10 -57 -19 -105 -32 -67 -28 -5 rrcurveto
          endchar
        </CharString>
        <CharString name="C">
          5 callsubr
          132 613 rmoveto
          -420 47 246 -223 342 -73 callgsubr
          rrcurveto
          227 -348 -46 callgsubr
        </CharString>
        <CharString name="CR">
          endchar
        </CharString>
        <CharString name="Ccedilla">
          5 callsubr
          391 -363 rmoveto
          -24 callgsubr
          vhcurveto
          12 67 rlineto
          -5 32 32 -2 34 -73 callgsubr
          37 -333 162 -209 236 -72 -34 -185 rcurveline
          -20 callsubr
          20 callgsubr
          hvcurveto
          -32 628 -46 callgsubr
        </CharString>
        <CharString name="D">
          273 -30 133 -123 58 -58 111 1333 136 -121 111 -56 56 -26 callgsubr
          61 211 445 127 hintmask 0101001110000000
          -71 callsubr
          34 48 5 21 37 hvcurveto
          hintmask 1001001110000000
          -19 47 82 -17 81 hhcurveto
          381 272 234 452 45 23 callsubr
          -58 -308 120 -318 hhcurveto
          -80 -89 -14 -21 -72 hvcurveto
          hintmask 0100011110000000
          17 -34 -40 8 -29 -68 callsubr
          hintmask 0010101110000000
          13 17 20 29 callsubr
          -36 -79 callsubr
          -489 vlineto
          -94 callgsubr
          558 84 rmoveto
          1246 vlineto
          hintmask 1001001110000000
          24 20 48 -3 45 hhcurveto
          236 96 -293 -193 -88 -32 -25 -77 -28 hvcurveto
          77 -29 32 -24 -88 vvcurveto
          -392 -112 -161 -202 -53 -48 19 35 -30 vhcurveto
          501 108 rmoveto
          43 138 37 236 -12 106 -2 22 -37 19 -24 11 24 9 36 18 3 21 10 65 -12 147 -70 193 52 callgsubr
          -129 -188 vvcurveto
          -163 -27 -183 31 callgsubr
          -106 callsubr
          endchar
        </CharString>
        <CharString name="E">
          124 -20 58 -58 36 callsubr
          134 623 126 552 135 -26 callgsubr
          228 44 340 45 119 154 -99 128 -74 64 -7 67 hintmask 1001111110010000
          -71 callsubr
          35 49 11 26 37 hvcurveto
          -20 53 90 -17 95 hhcurveto
          113 76 18 32 77 hvcurveto
          16 41 18 -2 24 hhcurveto
          30 12 -19 -27 -21 -1 -9 -3 -14 hvcurveto
          -5 27 17 -1 14 hhcurveto
          69 48 59 81 34 -7 28 -14 20 hvcurveto
          24 23 24 32 47 vvcurveto
          36 -29 38 -31 17 vhcurveto
          6 14 6 15 13 vvcurveto
          hintmask 0011111101000000
          40 -30 -5 38 18 6 15 16 vvcurveto
          37 -40 44 -36 -21 -24 -4 -21 -21 vhcurveto
          6 -20 2 -21 -27 vvcurveto
          -84 -28 -116 -51 -85 vhcurveto
          -74 -44 -94 -42 -118 hhcurveto
          -128 -65 45 57 -31 hvcurveto
          500 vlineto
          13 22 30 8 33 hhcurveto
          30 56 -7 -11 26 hvcurveto
          37 -16 14 -41 -43 vvcurveto
          -40 -5 -31 -16 -26 vhcurveto
          -7 9 21 -9 20 hhcurveto
          41 67 31 99 14 -5 19 -7 19 hvcurveto
          35 41 6 57 16 vvcurveto
          12 -6 56 -35 41 vhcurveto
          7 18 5 19 15 vvcurveto
          76 -67 25 -41 -20 -21 -7 -7 -9 vhcurveto
          16 -18 5 -22 -28 vvcurveto
          -42 -12 -42 -37 -17 vhcurveto
          -12 -26 -58 -6 -30 hhcurveto
          -33 -30 8 14 -22 hvcurveto
          387 vlineto
          92 33 90 51 101 hhcurveto
          65 93 -12 -102 67 hvcurveto
          hintmask 1001111110010000
          45 -68 10 -61 -64 vvcurveto
          -25 -3 -28 -9 -18 vhcurveto
          -13 25 18 -5 21 hhcurveto
          47 55 37 88 14 -4 20 -8 20 hvcurveto
          30 31 9 38 34 vvcurveto
          26 -9 37 -18 28 vhcurveto
          hintmask 0101111100100000
          12 16 7 21 35 -77 callgsubr
          -69 8 -66 hhcurveto
          -91 -93 -17 -22 -61 hvcurveto
          27 -37 -52 12 -36 -98 callsubr
          254 -1 rmoveto
          -1 4 -1 3 4 vvcurveto
          endchar
        </CharString>
        <CharString name="Eacute">
          124 -20 58 -58 36 callsubr
          134 623 126 552 135 -26 callgsubr
          228 44 340 45 119 154 -99 128 -74 64 -7 67 hintmask 1001111110010000
          -71 callsubr
          35 49 11 26 37 hvcurveto
          -20 53 90 -17 95 hhcurveto
          113 76 18 32 77 hvcurveto
          16 41 18 -2 24 hhcurveto
          30 12 -19 -27 -21 -1 -9 -3 -14 hvcurveto
          -5 27 17 -1 14 hhcurveto
          69 48 59 81 34 -7 28 -14 20 hvcurveto
          24 23 24 32 47 vvcurveto
          36 -29 38 -31 17 vhcurveto
          6 14 6 15 13 vvcurveto
          hintmask 0011111101000000
          40 -30 -5 38 18 6 15 16 vvcurveto
          37 -40 44 -36 -21 -24 -4 -21 -21 vhcurveto
          6 -20 2 -21 -27 vvcurveto
          -84 -28 -116 -51 -85 vhcurveto
          -74 -44 -94 -42 -118 hhcurveto
          -128 -65 45 57 -31 hvcurveto
          500 vlineto
          13 22 30 8 33 hhcurveto
          30 56 -7 -11 26 hvcurveto
          37 -16 14 -41 -43 vvcurveto
          -40 -5 -31 -16 -26 vhcurveto
          -7 9 21 -9 20 hhcurveto
          41 67 31 99 14 -5 19 -7 19 hvcurveto
          35 41 6 57 16 vvcurveto
          12 -6 56 -35 41 vhcurveto
          7 18 5 19 15 vvcurveto
          76 -67 25 -41 -20 -21 -7 -7 -9 vhcurveto
          16 -18 5 -22 -28 vvcurveto
          -42 -12 -42 -37 -17 vhcurveto
          -12 -26 -58 -6 -30 hhcurveto
          -33 -30 8 14 -22 hvcurveto
          387 vlineto
          92 33 90 51 101 hhcurveto
          65 93 -12 -102 67 hvcurveto
          hintmask 1001111110010000
          45 -68 10 -61 -64 vvcurveto
          -25 -3 -28 -9 -18 vhcurveto
          -13 25 18 -5 21 hhcurveto
          47 55 37 88 14 -4 20 -8 20 hvcurveto
          30 31 9 38 34 vvcurveto
          26 -9 37 -18 28 vhcurveto
          hintmask 0101111100100000
          12 16 7 21 35 -77 callgsubr
          -69 8 -66 hhcurveto
          -91 -93 -17 -22 -61 hvcurveto
          27 -37 -52 12 -36 -98 callsubr
          254 -1 rmoveto
          -1 4 -1 3 4 vvcurveto
          63 1325 -98 callgsubr
        </CharString>
        <CharString name="Ecircumflex">
          124 -20 58 -58 36 callsubr
          134 623 126 552 135 -26 callgsubr
          228 44 340 45 119 154 -99 128 -74 64 -7 67 hintmask 1001111110010000
          -71 callsubr
          35 49 11 26 37 hvcurveto
          -20 53 90 -17 95 hhcurveto
          113 76 18 32 77 hvcurveto
          16 41 18 -2 24 hhcurveto
          30 12 -19 -27 -21 -1 -9 -3 -14 hvcurveto
          -5 27 17 -1 14 hhcurveto
          69 48 59 81 34 -7 28 -14 20 hvcurveto
          24 23 24 32 47 vvcurveto
          36 -29 38 -31 17 vhcurveto
          6 14 6 15 13 vvcurveto
          hintmask 0011111101000000
          40 -30 -5 38 18 6 15 16 vvcurveto
          37 -40 44 -36 -21 -24 -4 -21 -21 vhcurveto
          6 -20 2 -21 -27 vvcurveto
          -84 -28 -116 -51 -85 vhcurveto
          -74 -44 -94 -42 -118 hhcurveto
          -128 -65 45 57 -31 hvcurveto
          500 vlineto
          13 22 30 8 33 hhcurveto
          30 56 -7 -11 26 hvcurveto
          37 -16 14 -41 -43 vvcurveto
          -40 -5 -31 -16 -26 vhcurveto
          -7 9 21 -9 20 hhcurveto
          41 67 31 99 14 -5 19 -7 19 hvcurveto
          35 41 6 57 16 vvcurveto
          12 -6 56 -35 41 vhcurveto
          7 18 5 19 15 vvcurveto
          76 -67 25 -41 -20 -21 -7 -7 -9 vhcurveto
          16 -18 5 -22 -28 vvcurveto
          -42 -12 -42 -37 -17 vhcurveto
          -12 -26 -58 -6 -30 hhcurveto
          -33 -30 8 14 -22 hvcurveto
          387 vlineto
          92 33 90 51 101 hhcurveto
          65 93 -12 -102 67 hvcurveto
          hintmask 1001111110010000
          45 -68 10 -61 -64 vvcurveto
          -25 -3 -28 -9 -18 vhcurveto
          -13 25 18 -5 21 hhcurveto
          47 55 37 88 14 -4 20 -8 20 hvcurveto
          30 31 9 38 34 vvcurveto
          26 -9 37 -18 28 vhcurveto
          hintmask 0101111100100000
          12 16 7 21 35 -77 callgsubr
          -69 8 -66 hhcurveto
          -91 -93 -17 -22 -61 hvcurveto
          27 -37 -52 12 -36 -98 callsubr
          254 -1 rmoveto
          -1 4 -1 3 4 vvcurveto
          -89 1285 -93 callgsubr
        </CharString>
        <CharString name="Edieresis">
          124 -20 58 -58 36 callsubr
          134 623 126 552 135 -26 callgsubr
          228 44 340 45 119 154 -99 128 -74 64 -7 67 hintmask 1001111110010000
          -71 callsubr
          35 49 11 26 37 hvcurveto
          -20 53 90 -17 95 hhcurveto
          113 76 18 32 77 hvcurveto
          16 41 18 -2 24 hhcurveto
          30 12 -19 -27 -21 -1 -9 -3 -14 hvcurveto
          -5 27 17 -1 14 hhcurveto
          69 48 59 81 34 -7 28 -14 20 hvcurveto
          24 23 24 32 47 vvcurveto
          36 -29 38 -31 17 vhcurveto
          6 14 6 15 13 vvcurveto
          hintmask 0011111101000000
          40 -30 -5 38 18 6 15 16 vvcurveto
          37 -40 44 -36 -21 -24 -4 -21 -21 vhcurveto
          6 -20 2 -21 -27 vvcurveto
          -84 -28 -116 -51 -85 vhcurveto
          -74 -44 -94 -42 -118 hhcurveto
          -128 -65 45 57 -31 hvcurveto
          500 vlineto
          13 22 30 8 33 hhcurveto
          30 56 -7 -11 26 hvcurveto
          37 -16 14 -41 -43 vvcurveto
          -40 -5 -31 -16 -26 vhcurveto
          -7 9 21 -9 20 hhcurveto
          41 67 31 99 14 -5 19 -7 19 hvcurveto
          35 41 6 57 16 vvcurveto
          12 -6 56 -35 41 vhcurveto
          7 18 5 19 15 vvcurveto
          76 -67 25 -41 -20 -21 -7 -7 -9 vhcurveto
          16 -18 5 -22 -28 vvcurveto
          -42 -12 -42 -37 -17 vhcurveto
          -12 -26 -58 -6 -30 hhcurveto
          -33 -30 8 14 -22 hvcurveto
          387 vlineto
          92 33 90 51 101 hhcurveto
          65 93 -12 -102 67 hvcurveto
          hintmask 1001111110010000
          45 -68 10 -61 -64 vvcurveto
          -25 -3 -28 -9 -18 vhcurveto
          -13 25 18 -5 21 hhcurveto
          47 55 37 88 14 -4 20 -8 20 hvcurveto
          30 31 9 38 34 vvcurveto
          26 -9 37 -18 28 vhcurveto
          hintmask 0101111100100000
          12 16 7 21 35 -77 callgsubr
          -69 8 -66 hhcurveto
          -91 -93 -17 -22 -61 hvcurveto
          27 -37 -52 12 -36 -98 callsubr
          254 -1 rmoveto
          -1 4 -1 3 4 vvcurveto
          405 1418 -107 callsubr
        </CharString>
        <CharString name="Egrave">
          124 -20 58 -58 36 callsubr
          134 623 126 552 135 -26 callgsubr
          228 44 340 45 119 154 -99 128 -74 64 -7 67 hintmask 1001111110010000
          -71 callsubr
          35 49 11 26 37 hvcurveto
          -20 53 90 -17 95 hhcurveto
          113 76 18 32 77 hvcurveto
          16 41 18 -2 24 hhcurveto
          30 12 -19 -27 -21 -1 -9 -3 -14 hvcurveto
          -5 27 17 -1 14 hhcurveto
          69 48 59 81 34 -7 28 -14 20 hvcurveto
          24 23 24 32 47 vvcurveto
          36 -29 38 -31 17 vhcurveto
          6 14 6 15 13 vvcurveto
          hintmask 0011111101000000
          40 -30 -5 38 18 6 15 16 vvcurveto
          37 -40 44 -36 -21 -24 -4 -21 -21 vhcurveto
          6 -20 2 -21 -27 vvcurveto
          -84 -28 -116 -51 -85 vhcurveto
          -74 -44 -94 -42 -118 hhcurveto
          -128 -65 45 57 -31 hvcurveto
          500 vlineto
          13 22 30 8 33 hhcurveto
          30 56 -7 -11 26 hvcurveto
          37 -16 14 -41 -43 vvcurveto
          -40 -5 -31 -16 -26 vhcurveto
          -7 9 21 -9 20 hhcurveto
          41 67 31 99 14 -5 19 -7 19 hvcurveto
          35 41 6 57 16 vvcurveto
          12 -6 56 -35 41 vhcurveto
          7 18 5 19 15 vvcurveto
          76 -67 25 -41 -20 -21 -7 -7 -9 vhcurveto
          16 -18 5 -22 -28 vvcurveto
          -42 -12 -42 -37 -17 vhcurveto
          -12 -26 -58 -6 -30 hhcurveto
          -33 -30 8 14 -22 hvcurveto
          387 vlineto
          92 33 90 51 101 hhcurveto
          65 93 -12 -102 67 hvcurveto
          hintmask 1001111110010000
          45 -68 10 -61 -64 vvcurveto
          -25 -3 -28 -9 -18 vhcurveto
          -13 25 18 -5 21 hhcurveto
          47 55 37 88 14 -4 20 -8 20 hvcurveto
          30 31 9 38 34 vvcurveto
          26 -9 37 -18 28 vhcurveto
          hintmask 0101111100100000
          12 16 7 21 35 -77 callgsubr
          -69 8 -66 hhcurveto
          -91 -93 -17 -22 -61 hvcurveto
          27 -37 -52 12 -36 -98 callsubr
          254 -1 rmoveto
          -1 4 -1 3 4 vvcurveto
          348 1325 -92 callsubr
        </CharString>
        <CharString name="Eth">
          312 -20 133 616 126 559 136 -111 111 hstemhm
          75 286 -96 96 61 211 255 190 0 125 0 75 hintmask 1110101010000000
          -71 callsubr
          35 49 11 26 37 hvcurveto
          -20 52 88 -17 88 hhcurveto
          371 264 224 452 43 23 callsubr
          -56 -300 110 -308 hhcurveto
          -82 -90 -13 -20 -76 hvcurveto
          23 -36 -47 10 -33 -68 callsubr
          hintmask 1101011010000000
          -89 callgsubr
          -68 callgsubr
          -507 -59 vlineto
          -85 -44 -31 -48 callgsubr
          180 -562 hlineto
          37 callgsubr
          hintmask 1110101101000000
          -8 -10 -3 -9 -16 vvcurveto
          558 98 rmoveto
          558 126 vlineto
          85 44 31 -52 callgsubr
          -247 508 hlineto
          33 22 56 18 55 hhcurveto
          171 141 -152 -391 hvcurveto
          -138 vlineto
          -469 -104 -151 -190 -62 -55 21 37 -34 vhcurveto
          501 94 rmoveto
          51 164 18 187 170 vvcurveto
          172 -17 132 -56 160 vhcurveto
          52 callgsubr
          -131 -188 vvcurveto
          -183 -27 -161 31 callgsubr
          -42 callsubr
          endchar
        </CharString>
        <CharString name="Euro">
          100 -20 137 452 126 124 126 483 122 hstemhm
          0 302 79 271 -208 208 556 144 hintmask 11111101
          8 569 rmoveto
          211 hlineto
          -391 59 240 -198 330 hhcurveto
          300 204 175 220 72 -41 48 -56 -26 -33 -10 -18 -11 hvcurveto
          9 -13 14 -27 -37 vvcurveto
          -161 -142 -112 -153 -162 -99 97 163 vhcurveto
          192 200 vlineto
          85 44 31 -52 callgsubr
          -321 124 300 hlineto
          85 44 31 -52 callgsubr
          -421 215 hlineto
          187 98 81 148 202 108 -135 -153 -37 -14 -27 -9 -13 vhcurveto
          -18 11 33 -10 26 hhcurveto
          56 41 48 72 220 -172 175 -300 -417 -213 -289 -314 -37 hvcurveto
          -2 -84 vlineto
          -85 -44 -31 -48 callgsubr
          194 -33 hlineto
          -30 1 -30 2 -31 vhcurveto
          -76 hlineto
          -85 -44 -31 -48 callgsubr
          432 -304 rmoveto
          -95 152 -43 173 208 vvcurveto
          154 43 178 86 120 vhcurveto
          hintmask 11111011
          7 -2 6 -9 -15 vvcurveto
          -10 -3 -20 -11 -43 vhcurveto
          hintmask 11111101
          -29 -108 -20 -123 -123 vvcurveto
          -160 13 -134 35 -109 vhcurveto
          22 -72 4 -18 -13 vvcurveto
          -15 -8 -8 -7 -3 vhcurveto
          endchar
        </CharString>
        <CharString name="F">
          34 -20 58 -58 111 625 128 571 135 hstemhm
          272 96 228 44 337 45 130 153 -45 64 hintmask 1011111100000000
          82 73 rmoveto
          -51 64 -42 90 37 -67 callsubr
          36 -44 callsubr
          28 53 7 24 40 hvcurveto
          -21 40 35 -10 43 hhcurveto
          90 64 -82 callsubr
          hintmask 0111111100000000
          -84 callgsubr
          -62 -56 26 53 -25 hvcurveto
          528 vlineto
          11 19 25 7 31 hhcurveto
          30 63 -6 -11 26 hvcurveto
          37 -16 14 -41 -43 vvcurveto
          -40 -5 -31 -16 -26 vhcurveto
          -7 9 21 -9 20 hhcurveto
          41 67 31 99 14 -5 19 -7 19 hvcurveto
          35 41 6 57 16 vvcurveto
          12 -6 56 -35 41 vhcurveto
          7 18 5 19 15 vvcurveto
          98 -67 33 -41 -20 -21 -6 -8 -9 vhcurveto
          16 -27 5 -31 -40 vvcurveto
          -42 -12 -42 -37 -17 vhcurveto
          -12 -26 -65 -5 -30 hhcurveto
          -31 -25 7 11 -19 hvcurveto
          462 vlineto
          60 45 87 31 112 hhcurveto
          86 75 -39 -95 51 hvcurveto
          39 -72 17 -87 -52 vvcurveto
          -38 -4 -26 -9 -19 vhcurveto
          -13 25 18 -4 24 hhcurveto
          47 52 46 -19 callgsubr
          hintmask 0111111010000000
          14 20 8 24 37 -77 callgsubr
          -56 8 -66 hhcurveto
          -92 -106 -17 -23 -66 hvcurveto
          28 -38 -52 12 -36 -24 callsubr
          -71 -42 -51 -65 callsubr
          13 17 27 29 callsubr
          -36 -85 callsubr
          -34 -58 vvcurveto
          -490 vlineto
          -70 callsubr
          endchar
        </CharString>
        <CharString name="G">
          156 -30 136 -126 111 511 58 425 107 246 122 hstemhm
          306 275 256 11 109 103 233 11 129 11 hintmask 1011111111000000
          142 625 rmoveto
          -420 48 264 -235 347 hhcurveto
          101 126 19 35 98 hvcurveto
          hintmask 0111111111000000
          -28 38 55 -16 51 hhcurveto
          111 63 39 54 16 -3 9 -8 10 hvcurveto
          -13 -17 -10 -4 -19 hhcurveto
          -47 -23 20 42 -13 hvcurveto
          328 vlineto
          53 26 25 15 26 hhcurveto
          19 19 -7 -10 14 hvcurveto
          11 10 0 12 13 vvcurveto
          54 -56 39 -61 -38 -27 -10 -20 -28 vhcurveto
          21 -32 -36 9 -32 hhcurveto
          -31 -39 -9 -20 -33 hvcurveto
          18 -23 -29 11 -36 hhcurveto
          -72 -34 -42 -51 -11 0 -13 11 -11 hvcurveto
          -89 callgsubr
          23 14 -3 -16 16 hvcurveto
          -231 vlineto
          hintmask 1011111111000000
          -124 -73 -69 -103 -138 -62 82 168 vhcurveto
          268 vlineto
          88 49 56 61 29 vhcurveto
          -61 28 -49 45 88 vvcurveto
          166 vlineto
          216 95 98 176 168 95 -62 -72 5 vhcurveto
          3 -68 -65 -40 -51 -4 -18 -1 -10 1 -13 4 rrcurveto
          -2 -5 -1 -4 -7 vvcurveto
          2 -48 64 -50 49 3 rrcurveto
          5 6 0 2 6 hvcurveto
          2 -7 1 -6 -5 vvcurveto
          1 -26 -9 -45 -17 -23 7 -6 12 -3 13 1 86 9 41 42 29 58 17 -7 21 -5 19 2 34 2 37 40 20 33 -40 19 -10 16 -16 74 rrcurveto
          170 -37 -175 140 -277 hhcurveto
          -378 -289 -222 -379 -45 hvcurveto
          -11 -88 -31 -46 -60 -28 60 -29 32 -53 10 -90 rrcurveto
          226 -360 rmoveto
          -65 80 -36 101 -34 300 -2 22 -34 18 -23 11 23 9 33 19 3 21 32 258 40 80 54 66 rrcurveto
          7 -2 6 -9 -11 vvcurveto
          -8 -4 -16 -3 -9 vhcurveto
          -33 -97 -26 -126 -175 vvcurveto
          -221 26 -153 35 -81 vhcurveto
          9 -20 7 -18 -13 vvcurveto
          -15 -8 -8 -7 -3 vhcurveto
          692 -60 rmoveto
          295 vlineto
          30 -14 28 -20 -77 vvcurveto
          -57 vlineto
          -82 -36 -31 -22 -14 vhcurveto
          236 -18 rmoveto
          -3 20 rlineto
          endchar
        </CharString>
        <CharString name="H">
          404 -20 58 -58 111 602 143 656 58 hstemhm
          268 96 226 34 158 12 133 12 158 24 321 11 hintmask 1011111111000000
          78 73 rmoveto
          -51 64 -42 90 36 -67 callsubr
          32 40 -10 33 hhcurveto
          28 49 7 24 39 hvcurveto
          -24 37 35 -7 33 hhcurveto
          67 66 36 63 10 -3 9 -9 10 hvcurveto
          hintmask 0111111111000000
          40 callgsubr
          527 473 -527 vlineto
          -54 -18 -34 -21 -51 hhcurveto
          -22 -21 8 9 -12 hvcurveto
          -9 -10 -3 -9 -10 vvcurveto
          -63 66 -36 67 33 35 7 25 37 vhcurveto
          -25 40 49 -7 29 hhcurveto
          33 38 10 22 32 hvcurveto
          -22 34 -3 callgsubr
          84 62 28 60 29 vhcurveto
          -60 28 -62 30 85 vvcurveto
          422 vlineto
          52 22 49 25 52 -63 callsubr
          -71 callgsubr
          -32 -10 -22 -34 vhcurveto
          22 -32 -38 10 -33 hhcurveto
          -29 -49 -7 -25 -40 hvcurveto
          25 -37 -35 7 -33 hhcurveto
          -67 -66 -36 -63 -10 3 -9 9 -10 hvcurveto
          9 12 21 8 22 hhcurveto
          51 34 -22 -53 18 hvcurveto
          -528 -473 528 vlineto
          53 18 33 22 52 hhcurveto
          22 21 -8 -9 12 hvcurveto
          9 10 3 9 10 vvcurveto
          63 -66 36 -67 -33 -35 -7 -25 -37 vhcurveto
          25 -39 -49 7 -28 hhcurveto
          -33 -40 -10 -22 -32 hvcurveto
          22 -18 callsubr
          -36 0 callsubr
          -85 -62 -30 -60 -28 vhcurveto
          60 -29 62 -28 -84 vvcurveto
          -489 vlineto
          -94 callgsubr
          1110 281 rmoveto
          -5 33 -4 123 288 vvcurveto
          282 2 47 9 51 vhcurveto
          7 38 19 24 22 10 rrcurveto
          -289 3 -76 9 -31 vhcurveto
          9 -27 18 -20 34 -10 -42 -15 -15 -21 -4 -15 rrcurveto
          -13 -48 1 -72 -361 vvcurveto
          -24 9 -19 33 -7 47 rrcurveto
          -824 -89 rmoveto
          361 1 72 -13 48 vhcurveto
          -4 15 -22 21 -42 15 34 10 25 20 9 27 rrcurveto
          9 31 3 76 36 callgsubr
          19 -24 -52 callsubr
          -87 callgsubr
          -123 -5 -33 vhcurveto
          -7 -47 -19 -33 -24 -9 rrcurveto
          endchar
        </CharString>
        <CharString name="I">
          -419 -20 58 -58 111 1401 58 -26 callgsubr
          261 11 hintmask 10111000
          -85 callgsubr
          hintmask 01111000
          -13 -17 -20 -4 -19 hhcurveto
          -52 -49 25 51 -22 hvcurveto
          489 vlineto
          58 23 35 99 48 vhcurveto
          -89 41 -33 36 66 vvcurveto
          422 vlineto
          52 22 49 25 52 hhcurveto
          19 20 -4 -13 17 hvcurveto
          8 10 3 9 16 vvcurveto
          51 -64 42 -90 -37 -32 -10 -23 -35 vhcurveto
          23 -36 -47 10 -33 -98 callsubr
          endchar
        </CharString>
        <CharString name="IJ">
          814 -30 134 -124 58 -58 111 367 27 1007 58 -26 callgsubr
          261 11 330 21 callsubr
          hintmask 0100111000000000
          -85 callgsubr
          hintmask 0010111000000000
          -13 -17 -20 -4 -19 hhcurveto
          -52 -49 25 51 -22 hvcurveto
          489 vlineto
          58 23 35 99 48 vhcurveto
          -89 41 -33 36 66 vvcurveto
          422 vlineto
          52 22 49 25 52 hhcurveto
          19 20 -4 -13 17 hvcurveto
          8 10 3 9 16 vvcurveto
          51 -64 42 -90 -37 -32 -10 -23 -35 vhcurveto
          23 -36 -47 10 -33 -98 callsubr
          hintmask 1001100111100000
          602 85 rmoveto
          -220 206 -160 229 177 224 81 139 46 vhcurveto
          9 26 81 58 23 7 -37 14 -21 27 -15 40 rrcurveto
          294 -104 callgsubr
          -505 vlineto
          -34 -47 -52 -13 -49 hhcurveto
          -102 -75 72 86 97 68 35 51 18 10 -2 -5 13 hvcurveto
          2 5 1 4 7 vvcurveto
          48 -50 34 -41 -6 -5 -1 -1 -6 vhcurveto
          -2 7 0 7 5 vvcurveto
          26 -20 35 18 21 vhcurveto
          7 -6 -12 4 -13 hhcurveto
          -66 -72 -9 -51 -40 hvcurveto
          10 -17 -21 7 -20 hhcurveto
          -30 -35 -18 -31 -19 hvcurveto
          42 -28 29 -52 -73 vvcurveto
          650 -85 -104 callsubr
          endchar
        </CharString>
        <CharString name="Iacute">
          -419 -20 58 -58 111 1401 58 -26 callgsubr
          261 11 hintmask 10111000
          -85 callgsubr
          hintmask 01111000
          -13 -17 -20 -4 -19 hhcurveto
          -52 -49 25 51 -22 hvcurveto
          489 vlineto
          58 23 35 99 48 vhcurveto
          -89 41 -33 36 66 vvcurveto
          422 vlineto
          52 22 49 25 52 hhcurveto
          19 20 -4 -13 17 hvcurveto
          8 10 3 9 16 vvcurveto
          51 -64 42 -90 -37 -32 -10 -23 -35 vhcurveto
          23 -36 -47 10 -33 -98 callsubr
          -47 1335 -98 callgsubr
        </CharString>
        <CharString name="Icircumflex">
          -419 -20 58 -58 111 1401 58 -26 callgsubr
          261 11 hintmask 10111000
          -85 callgsubr
          hintmask 01111000
          -13 -17 -20 -4 -19 hhcurveto
          -52 -49 25 51 -22 hvcurveto
          489 vlineto
          58 23 35 99 48 vhcurveto
          -89 41 -33 36 66 vvcurveto
          422 vlineto
          52 22 49 25 52 hhcurveto
          19 20 -4 -13 17 hvcurveto
          8 10 3 9 16 vvcurveto
          51 -64 42 -90 -37 -32 -10 -23 -35 vhcurveto
          23 -36 -47 10 -33 -98 callsubr
          -199 1295 -93 callgsubr
        </CharString>
        <CharString name="Idieresis">
          -419 -20 58 -58 111 1401 58 -26 callgsubr
          261 11 hintmask 10111000
          -85 callgsubr
          hintmask 01111000
          -13 -17 -20 -4 -19 hhcurveto
          -52 -49 25 51 -22 hvcurveto
          489 vlineto
          58 23 35 99 48 vhcurveto
          -89 41 -33 36 66 vvcurveto
          422 vlineto
          52 22 49 25 52 hhcurveto
          19 20 -4 -13 17 hvcurveto
          8 10 3 9 16 vvcurveto
          51 -64 42 -90 -37 -32 -10 -23 -35 vhcurveto
          23 -36 -47 10 -33 -98 callsubr
          295 1428 -107 callsubr
        </CharString>
        <CharString name="Igrave">
          -419 -20 58 -58 111 1401 58 -26 callgsubr
          261 11 hintmask 10111000
          -85 callgsubr
          hintmask 01111000
          -13 -17 -20 -4 -19 hhcurveto
          -52 -49 25 51 -22 hvcurveto
          489 vlineto
          58 23 35 99 48 vhcurveto
          -89 41 -33 36 66 vvcurveto
          422 vlineto
          52 22 49 25 52 hhcurveto
          19 20 -4 -13 17 hvcurveto
          8 10 3 9 16 vvcurveto
          51 -64 42 -90 -37 -32 -10 -23 -35 vhcurveto
          23 -36 -47 10 -33 -98 callsubr
          238 1335 -92 callsubr
        </CharString>
        <CharString name="Itilde">
          -419 -20 58 -58 111 1401 58 -26 callgsubr
          261 11 hintmask 10111000
          -85 callgsubr
          hintmask 01111000
          -13 -17 -20 -4 -19 hhcurveto
          -52 -49 25 51 -22 hvcurveto
          489 vlineto
          58 23 35 99 48 vhcurveto
          -89 41 -33 36 66 vvcurveto
          422 vlineto
          52 22 49 25 52 hhcurveto
          19 20 -4 -13 17 hvcurveto
          8 10 3 9 16 vvcurveto
          51 -64 42 -90 -37 -32 -10 -23 -35 vhcurveto
          23 -36 -47 10 -33 -98 callsubr
          -183 1324 -41 callgsubr
          -57 callgsubr
          -63 -37 -38 -40 -2 callsubr
          vhcurveto
          -95 callgsubr
        </CharString>
        <CharString name="J">
          -84 -30 134 354 27 1007 58 hstem
          65 21 callsubr
          vstem
          65 350 rmoveto
          -220 206 -160 229 177 224 81 139 46 vhcurveto
          9 26 81 58 23 7 -37 14 -21 27 -15 40 rrcurveto
          294 -104 callgsubr
          -505 vlineto
          -34 -47 -52 -13 -49 hhcurveto
          -102 -75 72 86 97 68 35 51 18 10 -2 -5 13 hvcurveto
          2 5 1 4 7 vvcurveto
          48 -50 34 -41 -6 -5 -1 -1 -6 vhcurveto
          -2 7 0 7 5 vvcurveto
          26 -20 35 18 21 vhcurveto
          7 -6 -12 4 -13 hhcurveto
          -66 -72 -9 -51 -40 hvcurveto
          10 -17 -21 7 -20 hhcurveto
          -30 -35 -18 -31 -19 hvcurveto
          42 -28 29 -52 -73 vvcurveto
          650 -85 -104 callsubr
          endchar
        </CharString>
        <CharString name="Jcircumflex">
          -84 -30 134 354 27 1007 58 hstem
          65 21 callsubr
          vstem
          65 350 rmoveto
          -220 206 -160 229 177 224 81 139 46 vhcurveto
          9 26 81 58 23 7 -37 14 -21 27 -15 40 rrcurveto
          294 -104 callgsubr
          -505 vlineto
          -34 -47 -52 -13 -49 hhcurveto
          -102 -75 72 86 97 68 35 51 18 10 -2 -5 13 hvcurveto
          2 5 1 4 7 vvcurveto
          48 -50 34 -41 -6 -5 -1 -1 -6 vhcurveto
          -2 7 0 7 5 vvcurveto
          26 -20 35 18 21 vhcurveto
          7 -6 -12 4 -13 hhcurveto
          -66 -72 -9 -51 -40 hvcurveto
          10 -17 -21 7 -20 hhcurveto
          -30 -35 -18 -31 -19 hvcurveto
          42 -28 29 -52 -73 vvcurveto
          650 -85 -104 callsubr
          -214 1295 -93 callgsubr
        </CharString>
        <CharString name="K">
          224 -20 58 -58 111 1337 122 -110 110 hstemhm
          265 94 252 10 158 12 290 39 hintmask 10101111
          -38 callsubr
          36 -67 callsubr
          32 40 -10 33 hhcurveto
          28 49 7 24 39 hvcurveto
          -24 37 35 -7 33 hhcurveto
          67 66 36 63 10 -3 9 -9 10 hvcurveto
          hintmask 01101111
          40 callgsubr
          483 vlineto
          93 109 309 -618 rlineto
          -33 -20 -31 -16 -42 -94 callsubr
          -51 45 -56 callsubr
          36 36 -10 54 hhcurveto
          68 64 -82 callsubr
          -84 callgsubr
          -54 -32 35 132 -76 hvcurveto
          -421 766 229 269 38 39 88 62 45 19 rlinecurve
          40 17 61 3 36 -12 rrcurveto
          6 45 callgsubr
          -55 35 -57 -38 -26 -13 -14 -19 vhcurveto
          15 -18 -24 12 -34 hhcurveto
          -33 -26 -11 -15 -20 hvcurveto
          14 -20 -28 12 -35 hhcurveto
          -79 -40 -43 -45 -15 3 -13 8 -13 hvcurveto
          hintmask 01011111
          9 16 36 10 31 hhcurveto
          37 13 -19 -26 hvcurveto
          -460 -545 rlineto
          514 vlineto
          53 18 33 22 52 hhcurveto
          22 21 -8 -9 12 hvcurveto
          9 10 3 9 10 vvcurveto
          63 -66 36 -67 -33 -35 -7 -25 -37 vhcurveto
          25 -39 -49 7 -28 hhcurveto
          -33 -40 -10 -22 -32 hvcurveto
          22 -18 callsubr
          -36 0 callsubr
          -85 -62 -30 -60 -28 vhcurveto
          60 -29 62 -28 -84 vvcurveto
          -489 vlineto
          -94 callgsubr
          284 192 -104 callsubr
          705 hmoveto
          -275 555 45 47 195 -400 rlineto
          35 -64 12 -53 -29 vvcurveto
          -41 -8 -10 -4 -5 vhcurveto
          endchar
        </CharString>
        <CharString name="L">
          34 -20 36 callsubr
          134 1378 58 -26 callgsubr
          61 211 609 77 hintmask 01111100
          -71 callsubr
          34 48 11 24 36 hvcurveto
          -23 50 75 -12 94 hhcurveto
          74 87 15 35 76 hvcurveto
          17 37 22 7 24 hhcurveto
          30 12 -19 -27 -21 -1 -9 -3 -14 hvcurveto
          -6 13 21 -5 14 hhcurveto
          72 55 61 73 28 -15 31 -18 24 hvcurveto
          24 27 15 37 58 vvcurveto
          39 -17 34 -29 24 vhcurveto
          6 20 3 22 25 vvcurveto
          104 -56 52 -61 -20 -15 -7 -12 -14 vhcurveto
          10 -13 11 -33 -51 vvcurveto
          -46 -12 -108 -50 -88 vhcurveto
          -91 -52 -99 -49 -135 hhcurveto
          -66 -55 38 67 -42 hvcurveto
          437 -18 callgsubr
          35 -72 callsubr
          36 66 vvcurveto
          421 vlineto
          52 24 56 26 53 -63 callsubr
          -71 callgsubr
          -39 -10 -23 -38 vhcurveto
          -101 callgsubr
          -489 vlineto
          hintmask 10111100
          -70 callsubr
          endchar
        </CharString>
        <CharString name="Ldot">
          34 -20 36 callsubr
          134 659 380 339 58 -26 callgsubr
          61 211 337 522 -250 77 hintmask 01011101
          -71 callsubr
          34 48 11 24 36 hvcurveto
          -23 50 75 -12 94 hhcurveto
          74 87 15 35 76 hvcurveto
          17 37 22 7 24 hhcurveto
          30 12 -19 -27 -21 -1 -9 -3 -14 hvcurveto
          -6 13 21 -5 14 hhcurveto
          72 55 61 73 28 -15 31 -18 24 hvcurveto
          24 27 15 37 58 vvcurveto
          39 -17 34 -29 24 vhcurveto
          6 20 3 22 25 vvcurveto
          104 -56 52 -61 -20 -15 -7 -12 -14 vhcurveto
          10 -13 11 -33 -51 vvcurveto
          -46 -12 -108 -50 -88 vhcurveto
          -91 -52 -99 -49 -135 hhcurveto
          -66 -55 38 67 -42 hvcurveto
          437 -18 callgsubr
          35 -72 callsubr
          36 66 vvcurveto
          421 vlineto
          52 24 56 26 53 -63 callsubr
          -71 callgsubr
          -39 -10 -23 -38 vhcurveto
          -101 callgsubr
          -489 vlineto
          hintmask 10011101
          -70 callsubr
          hintmask 00100010
          609 697 -99 callgsubr
          endchar
        </CharString>
        <CharString name="Lslash">
          34 -26 -21 27 134 -60 60 1325 111 hstemhm
          75 286 -96 96 59 213 501 145 -145 176 hintmask 1101101100000000
          -71 callsubr
          34 48 11 24 36 hvcurveto
          -23 50 75 -12 94 hhcurveto
          74 77 15 35 76 hvcurveto
          hintmask 1011101010000000
          17 37 22 7 24 hhcurveto
          30 12 -19 -27 -21 -1 -9 -3 -14 hvcurveto
          -6 13 21 -5 14 hhcurveto
          72 55 61 73 28 -15 31 -18 24 hvcurveto
          24 27 15 37 58 vvcurveto
          39 -17 34 -29 24 vhcurveto
          hintmask 1101101100000000
          6 20 3 22 25 vvcurveto
          104 -56 52 -61 -20 -15 -7 -12 -14 vhcurveto
          10 -13 11 -33 -51 vvcurveto
          -46 -12 -108 -50 -88 vhcurveto
          -91 -52 -89 -49 -135 hhcurveto
          -66 -55 38 67 -42 hvcurveto
          615 vlineto
          160 96 34 callsubr
          -223 -134 rlineto
          370 vlineto
          52 22 49 25 52 -63 callsubr
          -71 callgsubr
          -32 -10 -23 -35 vhcurveto
          23 -36 -47 10 -33 -68 callsubr
          -72 callgsubr
          19 hhcurveto
          hintmask 1101011100000000
          -68 callgsubr
          -586 9 callgsubr
          -452 vlineto
          37 callgsubr
          hintmask 1101101100000000
          -8 -10 -3 -9 -16 vvcurveto
          286 193 rmoveto
          984 vlineto
          22 -15 17 -12 callsubr
          6 -32 3 -272 1 -110 -1 -115 -3 -245 48 callgsubr
        </CharString>
        <CharString name="M">
          777 -20 111 1348 111 hstemhm
          94 10 167 140 1066 96 249 11 0 170 hintmask 11111100
          66 69 rmoveto
          -53 40 -36 69 32 23 8 19 25 vhcurveto
          -18 23 29 -9 30 hhcurveto
          32 27 10 15 21 hvcurveto
          -15 24 32 -10 40 hhcurveto
          57 48 34 55 15 -3 11 -8 13 hvcurveto
          -9 -16 -21 -8 -47 hhcurveto
          -36 -51 36 61 -25 hvcurveto
          978 vlineto
          534 -1053 rlineto
          -4 8 17 -1 8 hhcurveto
          26 14 21 165 69 hvcurveto
          390 966 rlineto
          -1093 vlineto
          -94 callgsubr
          -51 64 -42 90 37 -67 callsubr
          35 45 -10 33 hhcurveto
          33 41 10 22 33 hvcurveto
          -22 35 -3 callgsubr
          58 23 35 -72 callsubr
          36 66 vvcurveto
          428 vlineto
          47 18 35 24 50 -63 callsubr
          hintmask 11111010
          8 10 3 9 16 vvcurveto
          54 -57 39 -76 -46 -29 -13 -20 -24 vhcurveto
          19 -25 -36 14 -36 hhcurveto
          -49 -35 -8 -14 -25 hvcurveto
          13 -19 -22 9 -25 hhcurveto
          -63 -16 -39 -102 -42 hvcurveto
          -316 -779 -383 795 rlineto
          104 -47 -39 21 -47 hhcurveto
          -25 -35 -17 -20 -21 hvcurveto
          24 -20 -19 13 -36 hhcurveto
          -28 -28 -12 -21 -21 hvcurveto
          20 -23 -31 13 -52 hhcurveto
          -60 -53 -39 -54 -16 2 -9 -16 callgsubr
          13 16 28 4 18 hhcurveto
          51 38 -18 -45 17 hvcurveto
          -1 -436 rlineto
          -62 -25 -36 -97 -45 vhcurveto
          93 -45 29 -33 -63 vvcurveto
          -469 vlineto
          -60 -24 -46 -36 -33 hhcurveto
          -51 -25 8 9 -16 hvcurveto
          -6 -9 -4 -14 -16 vvcurveto
          908 197 rmoveto
          -364 727 rlineto
          -56 111 -12 66 45 vvcurveto
          17 5 11 5 8 vhcurveto
          346 -692 rlineto
          60 -120 23 -94 -50 vvcurveto
          -14 -3 -10 -4 -5 vhcurveto
          599 -1 rmoveto
          -42 callsubr
          -1175 -25 rmoveto
          -1 4 0 4 4 vvcurveto
          -113 -12 rmoveto
          4 0 4 1 4 vhcurveto
          endchar
        </CharString>
        <CharString name="N">
          -102 callgsubr
          endchar
        </CharString>
        <CharString name="Nacute">
          -102 callgsubr
          -322 1335 -98 callgsubr
        </CharString>
        <CharString name="Ntilde">
          -102 callgsubr
          -458 1324 -41 callgsubr
          -57 callgsubr
          -63 -37 -38 -40 -2 callsubr
          vhcurveto
          -95 callgsubr
        </CharString>
        <CharString name="O">
          -105 callgsubr
          endchar
        </CharString>
        <CharString name="OE">
          852 -21 -21 22 134 623 126 552 135 31 -20 hstemhm
          310 251 437 371 -183 183 11 callgsubr
          hintmask 1111110110001000
          142 624 rmoveto
          -395 44 235 -249 364 hhcurveto
          101 77 13 28 84 hvcurveto
          -29 40 62 -12 37 hhcurveto
          35 56 11 26 39 hvcurveto
          -20 50 84 -17 95 hhcurveto
          113 76 18 32 77 hvcurveto
          16 41 28 8 24 hhcurveto
          30 12 -19 -27 -21 -1 -9 -3 -14 hvcurveto
          -5 27 17 -1 14 hhcurveto
          69 48 59 81 34 -10 25 -16 18 hvcurveto
          22 22 21 31 44 vvcurveto
          36 -29 38 -31 17 vhcurveto
          hintmask 1111111010010000
          6 14 6 15 13 vvcurveto
          hintmask 1111111010100000
          -69 callsubr
          hintmask 1111111011000000
          45 -68 10 -91 -64 vvcurveto
          -25 -3 -28 -9 -18 vhcurveto
          -13 25 18 -5 21 hhcurveto
          47 55 47 -19 callgsubr
          14 20 8 24 37 -77 callgsubr
          -69 8 -66 hhcurveto
          -90 -92 -16 -22 -61 hvcurveto
          23 -35 -47 15 -45 hhcurveto
          -50 -47 -19 -31 -37 hvcurveto
          33 -75 -97 17 -95 hhcurveto
          -335 -265 -231 -361 -42 hvcurveto
          -11 -88 -31 -45 -60 -28 60 -29 32 -54 10 -90 rrcurveto
          419 -297 rmoveto
          297 vlineto
          88 49 56 61 29 vhcurveto
          -61 28 -49 45 88 vvcurveto
          239 vlineto
          157 98 63 123 115 101 -66 -154 vhcurveto
          -239 vlineto
          -88 -48 -45 -60 -28 vhcurveto
          60 -29 48 -56 -88 vvcurveto
          -297 vlineto
          -149 -90 -64 -124 -127 -96 64 149 vhcurveto
          533 -62 rmoveto
          24 76 16 210 -22 194 -2 22 -37 19 -24 11 24 9 36 18 3 21 15 100 -13 238 -24 67 31 -6 12 -18 10 -20 rrcurveto
          hintmask 1111110111000000
          27 -54 16 -71 -295 vvcurveto
          -231 -1 -155 -35 -80 vhcurveto
          -13 -29 -22 -20 -21 -6 rrcurveto
          -725 hmoveto
          -65 80 -36 101 -34 300 -2 22 -34 18 -23 11 23 9 33 19 3 21 32 258 40 80 54 66 rrcurveto
          7 -2 6 -9 -11 vvcurveto
          -8 -4 -16 -3 -9 vhcurveto
          -33 -97 -23 -126 -175 vvcurveto
          -221 23 -153 35 -81 vhcurveto
          9 -20 7 -18 -13 vvcurveto
          -15 -8 -8 -7 -3 vhcurveto
          981 1 rmoveto
          -1 3 0 3 3 vvcurveto
          endchar
        </CharString>
        <CharString name="Oacute">
          -105 callgsubr
          270 1335 -98 callgsubr
        </CharString>
        <CharString name="Ocircumflex">
          -105 callgsubr
          118 1295 -93 callgsubr
        </CharString>
        <CharString name="Odieresis">
          -105 callgsubr
          612 1428 -107 callsubr
        </CharString>
        <CharString name="Ograve">
          -105 callgsubr
          555 1335 -92 callsubr
        </CharString>
        <CharString name="Oslash">
          245 -30 134 1323 133 hstem
          315 251 437 124 vstem
          301 -65 rmoveto
          -28 -55 -11 -35 -37 vvcurveto
          -58 26 -37 54 14 17 5 8 10 vhcurveto
          148 295 rlineto
          -33 77 86 -18 96 hhcurveto
          385 207 259 395 44 hvcurveto
          -53 callsubr
          -22 197 -76 152 -113 101 88 175 rcurveline
          19 39 13 39 36 vvcurveto
          60 -31 33 -49 -14 -17 -5 -8 -10 vhcurveto
          -140 -277 rlineto
          40 -85 -96 20 -104 hhcurveto
          -335 -265 -241 -361 -42 hvcurveto
          -11 -88 -31 -45 -60 -28 60 -29 32 -54 10 -90 24 -221 85 -178 133 -115 rrcurveto
          177 217 -78 callgsubr
        </CharString>
        <CharString name="Otilde">
          -105 callgsubr
          134 1324 -41 callgsubr
          -57 callgsubr
          -63 -37 -38 -40 -2 callsubr
          vhcurveto
          -95 callgsubr
        </CharString>
        <CharString name="P">
          107 -20 58 -58 111 443 134 758 134 -68 58 -26 callgsubr
          61 211 344 102 hintmask 10110111
          -54 callsubr
          23 36 hvcurveto
          -23 38 39 -10 37 hhcurveto
          90 84 -82 callsubr
          hintmask 01110111
          -84 callgsubr
          -54 -71 26 55 -28 hvcurveto
          382 vlineto
          -11 45 63 -9 55 hhcurveto
          225 263 140 257 78 hvcurveto
          -10 callsubr
          rrcurveto
          233 -65 -219 162 -275 hhcurveto
          -98 -81 -14 -28 -66 hvcurveto
          hintmask 01101111
          22 -36 -45 -103 callsubr
          -489 vlineto
          -94 callgsubr
          558 742 rmoveto
          456 vlineto
          hintmask 10110111
          105 83 50 92 77 92 -50 -101 vhcurveto
          -452 vlineto
          -111 -100 -44 -76 -90 -78 52 95 vhcurveto
          409 -103 rmoveto
          14 31 23 156 -17 callsubr
          -25 118 -12 25 vhcurveto
          30 -5 36 -61 23 -130 37 callsubr
          -23 -130 -36 -71 -30 -5 rrcurveto
          -681 -447 -104 callsubr
          endchar
        </CharString>
        <CharString name="Q">
          258 -152 50 42 108 -78 134 1323 133 hstemhm
          316 251 -178 1299 -684 124 hintmask 11010100
          389 -156 rmoveto
          -63 60 -66 77 vhcurveto
          143 19 72 82 111 hhcurveto
          118 109 -26 -106 176 hvcurveto
          -118 195 63 -23 98 hhcurveto
          101 100 74 101 35 -31 36 -31 hvcurveto
          -12 -29 -17 -20 -23 -16 rrcurveto
          4 17 0 18 17 vvcurveto
          34 -38 44 -43 8 vhcurveto
          -9 -40 -33 -36 -49 -9 rrcurveto
          2 8 1 8 7 vvcurveto
          30 -28 25 -31 9 vhcurveto
          -35 -24 -43 -22 -57 hhcurveto
          -25 8 -28 10 -35 13 -44 16 -42 15 -39 11 244 83 135 226 35 311 25 callsubr
          -43 -257 210 -337 hhcurveto
          -335 -265 -241 -361 -42 hvcurveto
          -11 -88 -31 -45 -60 -28 60 -29 32 -54 10 -90 32 -293 138 -218 217 -93 rrcurveto
          -111 -34 -35 -64 -78 vvcurveto
          hintmask 10111010
          178 483 -78 callgsubr
        </CharString>
        <CharString name="R">
          236 -20 59 -59 111 558 133 -91 26 710 133 -68 58 -26 callgsubr
          261 11 352 106 -97 98 64 197 hintmask 1001101101100000
          -49 callsubr
          34 -10 46 hhcurveto
          79 44 -82 callsubr
          hintmask 0101101101100000
          -84 callgsubr
          -50 -35 23 48 -18 hvcurveto
          hintmask 1010101110100000
          487 117 vlineto
          158 77 -127 -196 hvcurveto
          -74 vlineto
          -204 74 -68 84 20 20 6 11 18 vhcurveto
          -11 21 24 -6 17 hhcurveto
          26 40 10 16 29 hvcurveto
          -16 28 34 -10 30 hhcurveto
          67 56 -82 callsubr
          hintmask 0101101101100000
          -84 callgsubr
          -84 -69 68 131 hvcurveto
          100 vlineto
          161 -99 120 -132 35 vhcurveto
          133 33 79 83 35 139 16 63 42 45 42 24 -42 20 -42 33 -11 59 rrcurveto
          215 -42 -182 140 -315 hhcurveto
          -78 -115 -14 -29 -77 hvcurveto
          hintmask 0101011101100000
          -101 callgsubr
          -489 vlineto
          -94 callgsubr
          558 796 rmoveto
          409 vlineto
          hintmask 1001101101100000
          114 82 35 110 91 78 -55 -116 vhcurveto
          -292 vlineto
          hintmask 1010101101100000
          -140 -65 -42 -101 -150 -45 16 71 vhcurveto
          434 -47 rmoveto
          14 31 11 97 -17 callsubr
          -19 68 -12 25 vhcurveto
          30 -5 32 -31 23 -130 10 -57 6 -29 56 -18 -56 -18 -6 -49 -10 -57 -19 -105 -32 -37 -28 -5 rrcurveto
          -706 -557 -104 callsubr
          hintmask 1001101110100000
          730 32 rmoveto
          132 vlineto
          33 -10 42 -30 35 vhcurveto
          58 12 47 -64 -108 vvcurveto
          -140 vlineto
          -46 22 -50 14 -22 vhcurveto
          -45 -10 -56 16 170 vvcurveto
          endchar
        </CharString>
        <CharString name="Racute">
          236 -20 59 -59 111 558 133 -91 26 710 133 -68 58 -26 callgsubr
          261 11 352 106 -97 98 64 197 hintmask 1001101101100000
          -49 callsubr
          34 -10 46 hhcurveto
          79 44 -82 callsubr
          hintmask 0101101101100000
          -84 callgsubr
          -50 -35 23 48 -18 hvcurveto
          hintmask 1010101110100000
          487 117 vlineto
          158 77 -127 -196 hvcurveto
          -74 vlineto
          -204 74 -68 84 20 20 6 11 18 vhcurveto
          -11 21 24 -6 17 hhcurveto
          26 40 10 16 29 hvcurveto
          -16 28 34 -10 30 hhcurveto
          67 56 -82 callsubr
          hintmask 0101101101100000
          -84 callgsubr
          -84 -69 68 131 hvcurveto
          100 vlineto
          161 -99 120 -132 35 vhcurveto
          133 33 79 83 35 139 16 63 42 45 42 24 -42 20 -42 33 -11 59 rrcurveto
          215 -42 -182 140 -315 hhcurveto
          -78 -115 -14 -29 -77 hvcurveto
          hintmask 0101011101100000
          -101 callgsubr
          -489 vlineto
          -94 callgsubr
          558 796 rmoveto
          409 vlineto
          hintmask 1001101101100000
          114 82 35 110 91 78 -55 -116 vhcurveto
          -292 vlineto
          hintmask 1010101101100000
          -140 -65 -42 -101 -150 -45 16 71 vhcurveto
          434 -47 rmoveto
          14 31 11 97 -17 callsubr
          -19 68 -12 25 vhcurveto
          30 -5 32 -31 23 -130 10 -57 6 -29 56 -18 -56 -18 -6 -49 -10 -57 -19 -105 -32 -37 -28 -5 rrcurveto
          -706 -557 -104 callsubr
          hintmask 1001101110100000
          730 32 rmoveto
          132 vlineto
          33 -10 42 -30 35 vhcurveto
          58 12 47 -64 -108 vvcurveto
          -140 vlineto
          -46 22 -50 14 -22 vhcurveto
          -45 -10 -56 16 170 vvcurveto
          -408 1303 -98 callgsubr
        </CharString>
        <CharString name="Rcaron">
          236 -20 59 -59 111 558 133 -91 26 710 133 -68 58 -26 callgsubr
          261 11 352 106 -97 98 64 197 hintmask 1001101101100000
          -49 callsubr
          34 -10 46 hhcurveto
          79 44 -82 callsubr
          hintmask 0101101101100000
          -84 callgsubr
          -50 -35 23 48 -18 hvcurveto
          hintmask 1010101110100000
          487 117 vlineto
          158 77 -127 -196 hvcurveto
          -74 vlineto
          -204 74 -68 84 20 20 6 11 18 vhcurveto
          -11 21 24 -6 17 hhcurveto
          26 40 10 16 29 hvcurveto
          -16 28 34 -10 30 hhcurveto
          67 56 -82 callsubr
          hintmask 0101101101100000
          -84 callgsubr
          -84 -69 68 131 hvcurveto
          100 vlineto
          161 -99 120 -132 35 vhcurveto
          133 33 79 83 35 139 16 63 42 45 42 24 -42 20 -42 33 -11 59 rrcurveto
          215 -42 -182 140 -315 hhcurveto
          -78 -115 -14 -29 -77 hvcurveto
          hintmask 0101011101100000
          -101 callgsubr
          -489 vlineto
          -94 callgsubr
          558 796 rmoveto
          409 vlineto
          hintmask 1001101101100000
          114 82 35 110 91 78 -55 -116 vhcurveto
          -292 vlineto
          hintmask 1010101101100000
          -140 -65 -42 -101 -150 -45 16 71 vhcurveto
          434 -47 rmoveto
          14 31 11 97 -17 callsubr
          -19 68 -12 25 vhcurveto
          30 -5 32 -31 23 -130 10 -57 6 -29 56 -18 -56 -18 -6 -49 -10 -57 -19 -105 -32 -37 -28 -5 rrcurveto
          -706 -557 -104 callsubr
          hintmask 1001101110100000
          730 32 rmoveto
          132 vlineto
          33 -10 42 -30 35 vhcurveto
          58 12 47 -64 -108 vvcurveto
          -140 vlineto
          -46 22 -50 14 -22 vhcurveto
          -45 -10 -56 16 170 vvcurveto
          -272 1263 -51 callgsubr
        </CharString>
        <CharString name="Rcommaaccent">
          236 -20 59 -59 111 558 133 -91 26 710 133 -68 58 -26 callgsubr
          261 11 352 106 -97 98 64 197 hintmask 1001101101100000
          -49 callsubr
          34 -10 46 hhcurveto
          79 44 -82 callsubr
          hintmask 0101101101100000
          -84 callgsubr
          -50 -35 23 48 -18 hvcurveto
          hintmask 1010101110100000
          487 117 vlineto
          158 77 -127 -196 hvcurveto
          -74 vlineto
          -204 74 -68 84 20 20 6 11 18 vhcurveto
          -11 21 24 -6 17 hhcurveto
          26 40 10 16 29 hvcurveto
          -16 28 34 -10 30 hhcurveto
          67 56 -82 callsubr
          hintmask 0101101101100000
          -84 callgsubr
          -84 -69 68 131 hvcurveto
          100 vlineto
          161 -99 120 -132 35 vhcurveto
          133 33 79 83 35 139 16 63 42 45 42 24 -42 20 -42 33 -11 59 rrcurveto
          215 -42 -182 140 -315 hhcurveto
          -78 -115 -14 -29 -77 hvcurveto
          hintmask 0101011101100000
          -101 callgsubr
          -489 vlineto
          -94 callgsubr
          558 796 rmoveto
          409 vlineto
          hintmask 1001101101100000
          114 82 35 110 91 78 -55 -116 vhcurveto
          -292 vlineto
          hintmask 1010101101100000
          -140 -65 -42 -101 -150 -45 16 71 vhcurveto
          434 -47 rmoveto
          14 31 11 97 -17 callsubr
          -19 68 -12 25 vhcurveto
          30 -5 32 -31 23 -130 10 -57 6 -29 56 -18 -56 -18 -6 -49 -10 -57 -19 -105 -32 -37 -28 -5 rrcurveto
          -706 -557 -104 callsubr
          hintmask 1001101110100000
          730 32 rmoveto
          132 vlineto
          33 -10 42 -30 35 vhcurveto
          58 12 47 -64 -108 vvcurveto
          -140 vlineto
          -46 22 -50 14 -22 vhcurveto
          -45 -10 -56 16 170 vvcurveto
          -474 -467 -88 callgsubr
        </CharString>
        <CharString name="S">
          -62 14 -21 hstem
          246 38 671 48 vstem
          30 callsubr
          63 hvcurveto
          -39 70 98 -30 129 hhcurveto
          338 198 216 223 170 -46 108 -259 224 hvcurveto
          -12 callgsubr
          77 111 168 114 -111 -153 -18 -5 -29 -12 -28 vhcurveto
          -6 callgsubr
          20 18 22 47 39 vvcurveto
          8 callgsubr
          -32 callgsubr
          1 35 callsubr
          53 callsubr
          -158 -245 -142 53 -106 165 -152 hvcurveto
          -17 callgsubr
          -75 -121 -193 -132 140 4 callsubr
          5 callgsubr
          363 723 rmoveto
          4 10 13 39 -2 9 -6 24 -30 22 -51 46 rrcurveto
          -130 117 -53 97 -39 callsubr
          5 -21 hhcurveto
          -16 -34 -12 -9 -14 hvcurveto
          endchar
        </CharString>
        <CharString name="T">
          193 -20 58 -58 111 1325 134 hstemhm
          35 167 -155 57 -42 156 353 96 261 11 353 156 -140 167 -69 57 hintmask 1010011110000000
          371 73 rmoveto
          -51 64 -42 90 37 38 10 23 38 vhcurveto
          -23 37 -44 callsubr
          33 46 10 23 36 hvcurveto
          -23 38 39 -10 37 hhcurveto
          90 64 -82 callsubr
          hintmask 0110011110000000
          -84 callgsubr
          -53 -56 25 53 -24 hvcurveto
          487 -18 callgsubr
          35 -72 callsubr
          36 66 vvcurveto
          464 vlineto
          8 21 23 4 29 hhcurveto
          136 144 -130 -236 -60 -8 -48 -24 -35 hvcurveto
          -16 8 19 -9 19 hhcurveto
          85 57 88 94 30 -8 31 -15 27 hvcurveto
          hintmask 1010011100100000
          23 26 15 42 35 vvcurveto
          32 -12 33 -18 23 vhcurveto
          hintmask 1011001101000000
          27 30 15 40 51 vvcurveto
          77 -61 50 -70 -14 -19 -6 -9 -10 vhcurveto
          3 -9 4 -13 -12 vvcurveto
          -24 -11 -16 -17 -20 -17 6 11 -39 vhcurveto
          23 -85 -55 8 -54 hhcurveto
          -58 -44 -13 -21 -36 hvcurveto
          24 -37 -47 10 -33 hhcurveto
          -34 -47 -10 -24 -36 hvcurveto
          24 -41 -46 10 -51 hhcurveto
          -54 -55 -8 -23 -85 hvcurveto
          -11 -39 -17 -6 -20 hhcurveto
          -17 -11 16 24 12 4 13 3 9 hvcurveto
          9 -10 -19 6 -14 hhcurveto
          -70 -61 -50 -77 -51 14 -40 28 -30 hvcurveto
          hintmask 1010101110000000
          -18 -23 -12 -33 -32 vvcurveto
          -35 15 -42 22 -26 vhcurveto
          hintmask 0110011110000000
          -14 -27 -8 -31 -30 vvcurveto
          -94 57 -88 85 19 19 9 16 8 vhcurveto
          -24 35 -8 48 60 vvcurveto
          236 144 130 136 28 23 -4 -8 22 vhcurveto
          -464 vlineto
          -66 -33 -36 -79 callsubr
          -487 vlineto
          -53 -25 -56 -92 callgsubr
          296 192 -104 callsubr
          endchar
        </CharString>
        <CharString name="Thorn">
          145 -20 111 248 134 648 134 184 111 -26 callgsubr
          61 211 -211 401 114 91 hintmask 11111011
          -85 callgsubr
          -84 callgsubr
          hintmask 11111101
          -43 -49 34 46 -31 hvcurveto
          186 vlineto
          -10 42 53 -8 48 hhcurveto
          225 243 90 257 78 hvcurveto
          -10 callsubr
          rrcurveto
          233 -65 -199 102 -275 hhcurveto
          -48 -57 -9 -13 -50 hvcurveto
          134 vlineto
          44 28 46 28 49 -63 callsubr
          hintmask 11111011
          -71 callgsubr
          -32 -10 -23 -35 vhcurveto
          23 -36 -47 10 -33 -98 callsubr
          hintmask 11111101
          272 355 rmoveto
          346 vlineto
          105 63 50 92 77 72 -50 -101 vhcurveto
          -342 vlineto
          -111 -80 -44 -76 -90 -58 52 95 vhcurveto
          369 -103 rmoveto
          14 31 12 106 -17 callsubr
          -14 68 -12 25 vhcurveto
          38 -6 31 -42 17 -98 37 callsubr
          -18 -103 -29 -47 -39 -6 rrcurveto
          endchar
        </CharString>
        <CharString name="U">
          -105 callsubr
          endchar
        </CharString>
        <CharString name="Uacute">
          -105 callsubr
          338 1335 -98 callgsubr
        </CharString>
        <CharString name="Ucircumflex">
          -105 callsubr
          186 1295 -93 callgsubr
        </CharString>
        <CharString name="Udieresis">
          -105 callsubr
          680 1428 -107 callsubr
        </CharString>
        <CharString name="Ugrave">
          -105 callsubr
          623 1335 -92 callsubr
        </CharString>
        <CharString name="V">
          100 1480 69 -61 62 hstemhm
          -65 1557 -1200 114 hintmask 10100000
          717 -72 rmoveto
          50 callgsubr
          20 22 144 50 hvcurveto
          183 500 47 136 40 38 94 36 rlinecurve
          -46 14 -22 27 42 vvcurveto
          35 9 32 58 156 vhcurveto
          95 253 rlineto
          53 39 46 25 30 hhcurveto
          26 30 -5 -12 19 hvcurveto
          5 4 6 15 12 vvcurveto
          hintmask 01100000
          60 -37 42 -64 -25 -31 -8 -14 -28 vhcurveto
          14 -20 -24 8 -30 hhcurveto
          -31 -30 -6 -17 -24 hvcurveto
          15 -24 -28 8 -35 hhcurveto
          -59 -40 -36 -53 -16 4 -14 6 -9 hvcurveto
          17 callsubr
          33 34 -29 -45 6 hvcurveto
          -308 -891 -328 936 rlineto
          17 25 35 7 38 hhcurveto
          18 23 -8 -9 14 hvcurveto
          6 4 5 15 16 vvcurveto
          62 -2 -70 36 -83 hhcurveto
          -37 -41 -12 -19 -32 hvcurveto
          20 -32 -45 11 -42 hhcurveto
          -44 -43 -12 -20 -32 hvcurveto
          21 -30 -34 11 -42 hhcurveto
          -84 -37 -47 -55 -12 6 -15 5 -4 hvcurveto
          11 16 16 6 26 hhcurveto
          26 37 -13 -24 34 hvcurveto
          142 -366 rlineto
          hintmask 10010000
          44 -111 5 -18 -16 vvcurveto
          1 -26 -33 -34 -53 -29 109 -40 49 -39 27 -63 rrcurveto
          742 659 rmoveto
          2 1 3 1 3 vhcurveto
          -534 -936 rmoveto
          -67 159 -41 110 -38 81 -19 40 -35 11 -54 10 28 11 31 24 -1 22 -2 25 -8 31 -36 89 rrcurveto
          -56 141 -4 19 39 vvcurveto
          28 11 16 11 8 vhcurveto
          390 -985 -35 7 -34 16 -41 98 rlinecurve
          endchar
        </CharString>
        <CharString name="W">
          844 1488 62 hstemhm
          -66 2301 -1952 103 hintmask 11000000
          683 -72 rmoveto
          50 callgsubr
          24 24 142 56 hvcurveto
          313 832 341 -991 rlineto
          50 callgsubr
          25 24 142 55 hvcurveto
          174 500 52 134 64 40 94 36 rlinecurve
          -46 14 -51 27 42 vvcurveto
          33 10 36 59 154 vhcurveto
          101 280 rlineto
          33 31 40 18 32 -80 callsubr
          17 callsubr
          31 35 -9 -23 23 hvcurveto
          -270 -835 -267 837 rlineto
          18 25 36 7 38 hhcurveto
          18 23 -84 callsubr
          11 16 16 6 26 hhcurveto
          25 36 -12 -23 33 hvcurveto
          89 -260 -221 -637 -325 908 rlineto
          17 25 35 7 38 hhcurveto
          18 23 -84 callsubr
          11 16 16 6 26 hhcurveto
          25 37 -12 -24 34 hvcurveto
          136 -367 rlineto
          hintmask 10100000
          21 -52 27 -62 -29 vvcurveto
          1 -24 -21 -31 -64 -36 87 -32 41 -32 33 -78 rrcurveto
          1103 -390 rmoveto
          -271 728 rlineto
          -27 78 -26 67 45 vvcurveto
          40 6 18 9 13 vhcurveto
          276 -740 rlineto
          19 -55 16 -71 -48 vvcurveto
          -52 5 -15 -7 -8 vhcurveto
          -891 156 rmoveto
          -45 124 -79 175 -25 41 -14 24 -31 4 -54 10 33 13 30 20 -1 24 -2 24 -2 31 -32 94 rrcurveto
          -44 129 -8 36 28 vvcurveto
          20 9 25 11 7 vhcurveto
          57 -146 47 -160 59 -146 73 -179 61 -175 73 -179 -42 8 -31 32 -43 116 rrcurveto
          endchar
        </CharString>
        <CharString name="X">
          60 -20 62 -62 36 callsubr
          116 -19 19 1343 111 -62 62 hstemhm
          -70 1517 hintmask 10010110
          55 -20 rmoveto
          25 31 8 13 28 hvcurveto
          -13 20 24 -8 30 hhcurveto
          29 28 8 17 23 hvcurveto
          -17 26 29 -8 37 hhcurveto
          59 40 36 53 16 -4 14 -6 9 hvcurveto
          hintmask 01000110
          -9 -16 -25 -8 -51 hhcurveto
          -29 -27 7 15 -25 hvcurveto
          298 462 275 -461 rlineto
          hintmask 00100110
          -13 -21 -27 -5 -33 hhcurveto
          -18 -33 8 9 -14 hvcurveto
          -6 -4 -5 -15 -16 vvcurveto
          -62 2 70 -36 83 hhcurveto
          38 43 13 21 32 hvcurveto
          -22 30 42 -12 44 hhcurveto
          46 39 14 20 30 hvcurveto
          -22 31 35 -12 44 hhcurveto
          84 37 47 55 12 -6 15 -5 4 hvcurveto
          -11 -16 -16 -6 -26 hhcurveto
          -28 -34 2 21 -40 hvcurveto
          -420 705 391 588 rlineto
          14 27 30 8 27 -80 callsubr
          hintmask 10011010
          17 callsubr
          28 28 -8 -14 24 hvcurveto
          -296 -455 -271 454 rlineto
          13 22 27 5 33 hhcurveto
          18 33 -84 callsubr
          8 12 24 9 27 hhcurveto
          25 35 -6 -25 40 hvcurveto
          412 -689 -400 -600 rlineto
          -12 -25 -27 -6 -24 hhcurveto
          -26 -30 5 12 -19 hvcurveto
          -5 -4 -6 -15 -12 vvcurveto
          -60 37 -42 64 vhcurveto
          846 285 rmoveto
          -452 728 rlineto
          -78 125 -5 67 38 vvcurveto
          12 1 9 3 6 vhcurveto
          419 -666 rlineto
          89 -157 28 -93 -45 vvcurveto
          -12 -2 -8 -3 -4 vhcurveto
          endchar
        </CharString>
        <CharString name="Y">
          40 -20 58 -58 111 1348 111 -62 62 hstemhm
          520 99 258 11 hintmask 10011100
          320 73 rmoveto
          -51 74 0 callgsubr
          74 -82 callsubr
          hintmask 01011100
          -84 callgsubr
          -53 -56 25 53 -24 hvcurveto
          197 -18 callgsubr
          36 -72 callsubr
          35 66 vvcurveto
          55 vlineto
          350 693 rlineto
          22 32 39 14 35 -80 callsubr
          hintmask 01101100
          17 callsubr
          30 29 -9 -16 26 hvcurveto
          -284 -575 -299 574 rlineto
          15 25 32 6 36 hhcurveto
          18 23 -84 callsubr
          11 16 16 6 26 hhcurveto
          30 47 -18 -34 39 hvcurveto
          402 -696 rlineto
          -36 vlineto
          -66 -33 -35 -85 callsubr
          -36 -58 vvcurveto
          -197 vlineto
          -53 -25 -56 -92 callgsubr
          296 192 rmoveto
          51 8 82 -12 48 vhcurveto
          -7 25 -30 22 -39 14 43 13 22 14 10 30 rrcurveto
          9 31 -2 40 59 vvcurveto
          -300 556 56 -5 23 -21 55 -99 rlinecurve
          205 -371 rlineto
          13 -23 5 -13 -43 vvcurveto
          -167 vlineto
          -58 -2 -63 -99 callsubr
          endchar
        </CharString>
        <CharString name="Yacute">
          40 -20 58 -58 111 1348 111 -62 62 hstemhm
          520 99 258 11 hintmask 10011100
          320 73 rmoveto
          -51 74 0 callgsubr
          74 -82 callsubr
          hintmask 01011100
          -84 callgsubr
          -53 -56 25 53 -24 hvcurveto
          197 -18 callgsubr
          36 -72 callsubr
          35 66 vvcurveto
          55 vlineto
          350 693 rlineto
          22 32 39 14 35 -80 callsubr
          hintmask 01101100
          17 callsubr
          30 29 -9 -16 26 hvcurveto
          -284 -575 -299 574 rlineto
          15 25 32 6 36 hhcurveto
          18 23 -84 callsubr
          11 16 16 6 26 hhcurveto
          30 47 -18 -34 39 hvcurveto
          402 -696 rlineto
          -36 vlineto
          -66 -33 -35 -85 callsubr
          -36 -58 vvcurveto
          -197 vlineto
          -53 -25 -56 -92 callgsubr
          296 192 rmoveto
          51 8 82 -12 48 vhcurveto
          -7 25 -30 22 -39 14 43 13 22 14 10 30 rrcurveto
          9 31 -2 40 59 vvcurveto
          -300 556 56 -5 23 -21 55 -99 rlinecurve
          205 -371 rlineto
          13 -23 5 -13 -43 vvcurveto
          -167 vlineto
          -58 -2 -63 -99 callsubr
          -9 1335 -98 callgsubr
        </CharString>
        <CharString name="Z">
          111 -20 62 -62 116 -116 128 1314 128 hstemhm
          125 77 -46 145 185 107 589 145 -47 77 hintmask 1001101010000000
          40 82 rmoveto
          -55 37 -47 84 44 35 12 23 31 vhcurveto
          -21 33 45 -14 47 hhcurveto
          50 55 14 25 44 hvcurveto
          -25 68 114 -14 67 hhcurveto
          95 97 15 35 76 hvcurveto
          17 37 22 7 24 hhcurveto
          30 12 -19 -27 -21 -1 -9 -3 -14 hvcurveto
          -6 13 21 -5 14 hhcurveto
          72 55 61 73 28 -14 31 -19 24 hvcurveto
          24 24 15 30 38 vvcurveto
          43 -20 29 -34 22 vhcurveto
          hintmask 0011101100000000
          11 26 6 30 34 vvcurveto
          104 -56 52 -61 -20 -15 -7 -12 -14 vhcurveto
          10 -13 11 -33 -51 vvcurveto
          -46 -23 -116 -59 -80 vhcurveto
          -99 -72 -95 -37 -89 hhcurveto
          -56 -101 15 38 -63 hvcurveto
          220 441 55 110 69 60 108 25 rlinecurve
          -62 21 -9 41 19 vvcurveto
          1 46 39 82 137 292 rrcurveto
          106 50 31 30 61 hhcurveto
          20 22 -6 -11 16 hvcurveto
          5 4 6 15 12 vvcurveto
          55 -47 47 -64 -44 -29 -12 -22 -28 vhcurveto
          21 -32 -42 13 -46 hhcurveto
          -52 -45 -21 -29 -35 hvcurveto
          36 -70 -96 14 -84 hhcurveto
          -95 -87 -15 -35 -76 hvcurveto
          -17 -37 -22 -7 -24 hhcurveto
          -30 -12 19 27 21 1 9 3 14 hvcurveto
          6 -13 -21 5 -14 hhcurveto
          -7 callgsubr
          -43 19 -30 34 -22 vhcurveto
          hintmask 0101011010000000
          -11 -25 -5 -30 -34 vvcurveto
          -104 56 55 callsubr
          -11 33 51 vvcurveto
          46 23 116 59 80 vhcurveto
          99 72 105 37 107 hhcurveto
          66 52 -12 -21 52 hvcurveto
          -243 -450 -39 -73 -57 -41 -109 -28 rlinecurve
          62 -21 36 -29 -1 -40 rrcurveto
          -28 -26 -64 -214 -403 vhcurveto
          -103 -55 -42 -13 -43 hhcurveto
          -26 -13 6 11 -16 hvcurveto
          -5 -4 -6 -15 -12 vvcurveto
          404 183 rmoveto
          -8 7 -10 14 27 vvcurveto
          44 12 23 66 136 vhcurveto
          56 115 27 48 6 47 3 22 -23 24 -26 11 54 10 32 13 17 24 28 41 49 99 80 159 49 98 36 16 35 7 rrcurveto
          endchar
        </CharString>
        <CharString name="a">
          -106 callgsubr
          endchar
        </CharString>
        <CharString name="aacute">
          -106 callgsubr
          127 1252 -97 callsubr
        </CharString>
        <CharString name="acircumflex">
          -106 callgsubr
          13 1252 -90 callgsubr
        </CharString>
        <CharString name="acute">
          54 callsubr
          220 76 56 134 vstem
          140 1363 -97 callsubr
        </CharString>
        <CharString name="acute.cap">
          53 callgsubr
          224 77 54 126 vstem
          148 1600 -98 callgsubr
        </CharString>
        <CharString name="adieresis">
          -106 callgsubr
          416 1342 -107 callsubr
        </CharString>
        <CharString name="ae">
          479 -25 137 -137 369 443 403 -120 120 hstemhm
          267 204 274 95 61 181 54 callgsubr
          hintmask 1010111101000000
          129 196 rmoveto
          -128 51 120 -93 204 hhcurveto
          126 112 35 90 85 hvcurveto
          -97 129 129 -28 180 hhcurveto
          176 237 136 164 hvcurveto
          hintmask 0110111101000000
          32 -8 37 49 callgsubr
          hintmask 1010111010000000
          -29 callsubr
          -103 -98 -38 -59 -81 vhcurveto
          60 -76 -108 37 -141 hhcurveto
          -271 -132 -128 -133 -42 hvcurveto
          -14 -46 -21 -31 -26 -16 rrcurveto
          -31 19 35 -18 30 hhcurveto
          9 12 1 3 11 hvcurveto
          18 -30 34 -23 39 -1 rrcurveto
          32 26 14 24 16 hvcurveto
          -19 5 -5 17 11 vvcurveto
          3 vlineto
          -5 14 15 -2 10 hhcurveto
          44 30 28 50 10 hvcurveto
          -49 -1 -31 21 56 vvcurveto
          hintmask 1001111101000000
          68 56 44 94 122 53 -58 -133 vhcurveto
          -137 vlineto
          -59 -67 -91 -20 -175 -3 -201 -5 -56 -73 -22 -64 -21 -62 -12 -67 -89 -41 99 -48 -11 -41 22 -55 rrcurveto
          953 383 rmoveto
          230 vlineto
          171 49 75 94 82 45 -65 -85 vhcurveto
          -280 vlineto
          86 15 rmoveto
          291 vlineto
          -32 callsubr
          -24 -52 callsubr
          13 -75 -1 -52 -82 vvcurveto
          -660 -385 rmoveto
          665 vlineto
          -32 callsubr
          -24 -52 callsubr
          -48 callsubr
          -107 -102 vvcurveto
          -186 -4 -25 -99 callsubr
          -369 75 rmoveto
          101 25 101 85 12 vhcurveto
          68 9 55 18 41 24 rrcurveto
          -329 vlineto
          -104 -64 -51 -61 -101 -48 97 122 vhcurveto
          -150 -229 rmoveto
          -53 41 -33 53 -24 84 -4 14 -23 22 -40 callgsubr
          -86 callsubr
          endchar
        </CharString>
        <CharString name="agrave">
          -106 callgsubr
          432 1260 -89 callsubr
        </CharString>
        <CharString name="ampersand">
          390 -20 136 1309 125 hstemhm
          391 235 -185 215 265 133 -20 26 110 183 100 123 -50 25 hintmask 1101011010000000
          241 381 rmoveto
          -291 88 261 -110 247 hhcurveto
          243 273 184 227 144 -88 77 -70 31 hvcurveto
          51 59 104 76 96 41 rrcurveto
          72 31 38 18 49 vvcurveto
          18 -8 21 -15 22 vhcurveto
          hintmask 1101011100000000
          28 26 15 29 49 vvcurveto
          25 -16 39 -19 20 vhcurveto
          8 22 3 24 11 vvcurveto
          103 -121 79 -79 -21 -33 -13 -30 -10 vhcurveto
          41 -33 12 -34 -51 vvcurveto
          -85 -72 -140 -144 -187 vhcurveto
          hintmask 1110101010000000
          -121 -156 -83 -156 -96 vvcurveto
          -63 51 -41 43 28 17 16 15 6 vhcurveto
          -8 8 -4 13 13 vvcurveto
          16 5 48 46 34 31 -53 -64 -121 -179 -95 -103 -130 -132 74 204 vhcurveto
          158 vlineto
          171 67 54 86 43 vhcurveto
          75 38 25 31 50 vvcurveto
          31 -13 22 -13 8 vhcurveto
          -30 -28 -26 -10 -20 hhcurveto
          hintmask 1101011010000000
          -29 -94 -9 127 hvcurveto
          179 vlineto
          113 90 55 94 76 41 -62 -41 -29 -6 -21 -11 -22 vhcurveto
          -12 6 14 -6 17 hhcurveto
          39 45 42 73 29 -5 25 -10 21 hvcurveto
          24 19 9 31 21 vvcurveto
          31 -11 23 -18 6 vhcurveto
          -18 -6 -37 -14 -33 hhcurveto
          -26 -24 6 8 -36 hvcurveto
          7 -32 -43 8 -44 hhcurveto
          -235 -209 -103 -142 -39 hvcurveto
          21 callgsubr
          13 -42 25 -82 66 -60 90 -32 -95 -66 -101 -116 -34 -120 21 callgsubr
          19 -62 rrcurveto
          236 631 rmoveto
          -40 7 -41 34 -12 56 -12 52 -31 18 -41 13 56 18 17 9 10 57 12 68 44 42 38 6 rrcurveto
          -17 -37 -19 -43 -101 vvcurveto
          -139 19 -23 17 -37 vhcurveto
          658 -323 rmoveto
          127 167 60 59 67 132 21 42 9 24 8 35 rrcurveto
          hintmask 1110011100000000
          9 -11 18 -20 -1 -37 rrcurveto
          -24 -9 -31 -24 -41 vhcurveto
          -56 -97 -86 -70 -143 -128 rrcurveto
          -684 -487 rmoveto
          -30 5 -65 51 -23 130 -10 57 -17 49 -56 18 41 13 31 18 12 52 19 85 38 104 46 8 rrcurveto
          -17 -37 -29 -123 -124 vvcurveto
          -116 43 -153 17 -37 vhcurveto
          endchar
        </CharString>
        <CharString name="aring">
          -106 callgsubr
          306 1225 -35 callgsubr
        </CharString>
        <CharString name="asciicircum">
          -269 902 648 hstem
          120 808 vstem
          180 902 rmoveto
          70 60 8 141 70 hvcurveto
          144 291 144 -291 rlineto
          -142 70 60 -7 70 hhcurveto
          19 29 8 12 12 hvcurveto
          -319 572 rlineto
          37 -20 -36 19 -29 hhcurveto
          -34 -29 -15 -41 -22 hvcurveto
          -319 -572 rlineto
          -12 12 29 -8 19 hhcurveto
          endchar
        </CharString>
        <CharString name="asciitilde">
          34 435 422 hstem
          120 1111 vstem
          233 435 rmoveto
          194 93 65 73 61 42 -17 -116 134 vhcurveto
          -97 113 89 -29 97 hhcurveto
          132 164 109 179 69 -48 65 -65 hvcurveto
          -181 -95 -78 -86 -56 -51 18 119 -134 vhcurveto
          85 -95 -81 37 -100 hhcurveto
          -146 -154 -120 -165 -83 46 -54 67 hvcurveto
          endchar
        </CharString>
        <CharString name="asterisk">
          -332 806 794 hstem
          80 825 vstem
          230 818 rmoveto
          -5 19 16 -1 16 hhcurveto
          122 68 205 102 19 hvcurveto
          -186 30 92 -127 86 hhcurveto
          16 10 1 4 17 hvcurveto
          17 27 7 26 26 vvcurveto
          78 -86 106 -144 77 vhcurveto
          -5 27 33 -1 33 hhcurveto
          178 88 45 104 11 hvcurveto
          -30 36 -32 16 -39 1 -69 3 -113 -51 -102 -93 rrcurveto
          37 71 28 119 37 vvcurveto
          86 -22 53 -66 28 vhcurveto
          -72 -29 -22 -51 -86 vvcurveto
          -43 24 -117 35 -69 vhcurveto
          99 -99 -100 49 -82 hhcurveto
          -40 -33 -15 -32 -28 hvcurveto
          8 -117 116 -47 176 3 rrcurveto
          23 22 3 3 20 hvcurveto
          -152 -79 -83 -96 -82 vvcurveto
          -26 5 -25 15 -25 vhcurveto
          endchar
        </CharString>
        <CharString name="at">
          1145 -387 131 346 99 828 103 316 114 hstemhm
          70 105 61 190 292 80 61 156 -156 212 952 105 61 193 hintmask 1111111101100000
          70 456 rmoveto
          -585 463 -258 543 304 239 78 89 149 vhcurveto
          110 66 60 68 71 vvcurveto
          23 -12 15 -7 5 vhcurveto
          -204 -163 -278 -80 -288 hhcurveto
          -471 -303 271 432 10 hvcurveto
          551 13 486 438 518 hhcurveto
          402 178 -241 -350 -373 -231 -283 -200 -27 -17 18 36 20 11 85 5 21 hvcurveto
          35 155 14 60 20 28 78 28 rlinecurve
          -53 31 -11 27 28 vvcurveto
          15 10 44 32 136 vhcurveto
          44 179 rlineto
          -226 hlineto
          12 -49 -58 8 -67 hhcurveto
          -194 -267 -102 -289 -112 hvcurveto
          -10 -27 -46 -33 -67 -20 rrcurveto
          62 -35 19 -30 -77 vvcurveto
          -239 128 -178 208 85 90 21 53 76 vhcurveto
          -48 65 107 -26 122 hhcurveto
          387 396 352 434 355 -304 319 -643 -763 -602 -512 -582 hvcurveto
          1978 39 rmoveto
          49 103 31 134 134 vvcurveto
          134 -32 133 -48 88 vhcurveto
          83 -47 58 -157 -132 vvcurveto
          -179 -51 -133 -90 -78 vhcurveto
          -1627 -539 rmoveto
          15 -18 4 -14 -11 vvcurveto
          -11 -2 -5 -2 -3 vhcurveto
          -163 104 -98 244 214 vvcurveto
          240 111 259 212 171 vhcurveto
          2 -5 1 -6 -5 vvcurveto
          -16 -7 -17 -11 -14 vhcurveto
          -153 -200 -94 -169 -238 vvcurveto
          -201 84 -173 101 -126 vhcurveto
          594 459 rmoveto
          147 31 50 91 28 vhcurveto
          hintmask 1111111011100000
          -44 21 -22 32 27 vvcurveto
          151 139 146 180 14 16 -2 -4 18 vhcurveto
          -71 -280 -7 -29 -49 -35 -60 -26 rlinecurve
          18 -9 55 -11 -58 vvcurveto
          -7 -10 -56 -18 -83 vhcurveto
          -27 -150 rlineto
          -41 -41 -47 -18 -37 hhcurveto
          hintmask 1111111101100000
          -84 -45 89 118 hvcurveto
          -126 -160 rmoveto
          -56 56 -35 84 118 vvcurveto
          202 124 179 137 67 vhcurveto
          -130 -137 -70 -154 -189 vvcurveto
          -63 4 -89 26 -74 vhcurveto
          466 10 rmoveto
          140 665 rlineto
          20 -9 15 -19 -29 vvcurveto
          -58 -65 -356 -42 -122 vhcurveto
          -16 -45 -28 -18 -24 -9 rrcurveto
          endchar
        </CharString>
        <CharString name="atilde">
          -106 callgsubr
          33 1242 -55 callsubr
          78 -44 65 -53 -14 -11 -3 -9 -9 hvcurveto
          -63 5 -42 -38 -40 hhcurveto
          -2 callsubr
          hvcurveto
          -95 callgsubr
        </CharString>
        <CharString name="b">
          66 -25 146 -120 -21 1054 146 307 53 hstemhm
          205 181 61 96 340 96 hintmask 01111110
          179 6 rmoveto
          -23 22 65 -3 37 hhcurveto
          81 82 41 49 59 hvcurveto
          hintmask 10111110
          -61 76 113 -34 82 27 callsubr
          34 99 48 -89 41 -27 68 38 callgsubr
          -98 -117 -50 -66 -67 hvcurveto
          428 vlineto
          -23 callsubr
          -43 -43 -26 -43 -37 vhcurveto
          7 -30 -80 callgsubr
          49 44 -25 -89 hvcurveto
          -566 vlineto
          -66 -33 -24 -85 callsubr
          -26 -58 vvcurveto
          -278 vlineto
          -125 -3 -28 -23 -29 vhcurveto
          268 259 rmoveto
          -24 9 -21 33 -7 47 rrcurveto
          -5 32 -4 419 1 vvcurveto
          4 2 319 9 49 vhcurveto
          7 38 21 24 22 10 rrcurveto
          96 -933 rmoveto
          482 vlineto
          179 96 56 94 94 56 -56 -179 vhcurveto
          -438 vlineto
          -179 -73 -61 -94 -86 -87 86 110 vhcurveto
          436 -52 -83 callgsubr
          endchar
        </CharString>
        <CharString name="backslash">
          -500 -268 1867 hstem
          65 683 vstem
          620 -255 rmoveto
          -8 10 17 -5 14 hhcurveto
          59 28 42 58 18 -9 47 -14 42 hvcurveto
          -532 1647 rlineto
          8 -10 -17 5 -14 hhcurveto
          -59 -28 -42 -58 -18 9 -47 14 -42 hvcurveto
          endchar
        </CharString>
        <CharString name="bar">
          35 callgsubr
          200 -139 -3 callsubr
          1731 13 callgsubr
          endchar
        </CharString>
        <CharString name="braceleft">
          55 callgsubr
          178 172 -172 441 -379 255 hintmask 11010000
          178 80 rmoveto
          -116 82 -85 141 -35 vhcurveto
          -3 -37 -15 -33 -19 -23 rrcurveto
          -10 13 18 -5 18 hhcurveto
          33 27 18 26 18 hvcurveto
          -4 14 16 -3 17 hhcurveto
          27 23 5 11 29 hvcurveto
          2 9 0 10 9 vvcurveto
          36 -12 28 -27 15 vhcurveto
          14 20 6 24 21 vvcurveto
          23 -18 20 -22 5 vhcurveto
          -16 -24 -32 -30 -36 -18 rrcurveto
          hintmask 11100000
          -69 4 -57 40 71 vvcurveto
          43 11 42 63 106 vhcurveto
          hintmask 11001000
          53 88 18 53 72 vvcurveto
          80 -52 95 -107 37 vhcurveto
          107 36 52 95 81 vvcurveto
          72 -18 53 -53 88 vhcurveto
          hintmask 11100000
          -63 106 -11 42 43 vvcurveto
          71 57 40 69 4 vhcurveto
          36 -18 32 -30 16 -24 rrcurveto
          22 5 18 20 23 vvcurveto
          21 -6 24 -14 20 vhcurveto
          hintmask 11010000
          27 15 12 28 36 vvcurveto
          9 0 10 -2 9 vhcurveto
          11 -29 -23 5 -27 hhcurveto
          -17 -15 -3 -4 -15 hvcurveto
          26 -18 -27 18 -33 hhcurveto
          -18 -18 -5 -10 -13 hvcurveto
          19 -24 15 -32 3 -37 rrcurveto
          -143 -35 -80 -88 -113 vvcurveto
          -62 16 -30 19 -78 vhcurveto
          hintmask 11001000
          18 -75 9 -64 -52 vvcurveto
          -112 -53 -69 -95 -35 vhcurveto
          -11 -4 -1 -4 -3 vvcurveto
          -3 1 -4 11 -4 vhcurveto
          95 -35 53 -69 -112 vvcurveto
          -52 -9 -64 -18 -75 vhcurveto
          hintmask 11010000
          -19 -78 -16 -30 -62 vvcurveto
          265 1331 rmoveto
          11 -3 rlineto
          -11 -1483 rmoveto
          11 3 rlineto
          endchar
        </CharString>
        <CharString name="braceright">
          55 callgsubr
          80 441 -317 255 -110 172 hintmask 11100000
          521 80 rmoveto
          62 -16 30 -19 78 vhcurveto
          hintmask 11010000
          -18 75 -9 64 52 vvcurveto
          112 53 69 95 35 vhcurveto
          11 4 1 4 3 vvcurveto
          3 -1 4 -11 4 vhcurveto
          -95 35 -53 69 112 vvcurveto
          52 9 64 18 75 vhcurveto
          hintmask 11100000
          19 78 16 30 62 vvcurveto
          113 -80 88 -143 35 vhcurveto
          3 37 15 32 19 24 rrcurveto
          10 -13 -18 5 -18 hhcurveto
          -33 -27 -18 -26 -18 hvcurveto
          4 -15 -15 3 -17 hhcurveto
          -27 -23 -5 -11 -29 hvcurveto
          -2 -9 0 -10 -9 vvcurveto
          -36 12 -28 27 -15 vhcurveto
          -14 -20 -6 -24 -21 vvcurveto
          -23 18 -20 22 -5 vhcurveto
          16 24 32 30 36 18 rrcurveto
          hintmask 11001000
          69 -4 57 -40 -71 vvcurveto
          -43 -11 -42 -63 -106 vhcurveto
          hintmask 11010000
          -53 -88 -18 -53 -72 vvcurveto
          -81 52 -95 107 -36 vhcurveto
          -107 -37 -52 -95 -80 vvcurveto
          -72 18 -53 53 -88 vhcurveto
          hintmask 11001000
          63 -106 11 -42 -43 vvcurveto
          -71 -57 -40 -69 -4 vhcurveto
          -36 18 -32 30 -16 24 rrcurveto
          -22 -5 -18 -20 -23 vvcurveto
          -21 6 -24 14 -20 vhcurveto
          hintmask 11100000
          -27 -15 -12 -28 -36 vvcurveto
          -9 0 -10 2 -9 vhcurveto
          -11 29 23 -5 27 hhcurveto
          17 16 3 4 14 hvcurveto
          -26 18 27 -18 33 hhcurveto
          18 18 5 10 13 hvcurveto
          -19 23 -15 33 -3 37 rrcurveto
          141 35 82 85 116 vvcurveto
          -276 1328 rmoveto
          11 3 rlineto
          -11 -1483 rmoveto
          11 -3 rlineto
          endchar
        </CharString>
        <CharString name="bracketleft">
          39 callgsubr
          202 198 vstem
          103 -139 rmoveto
          -5 -7 -6 -13 -15 vvcurveto
          -51 43 -42 71 33 36 14 29 34 vhcurveto
          -27 27 42 -16 73 hhcurveto
          311 hlineto
          8 9 4 15 20 vvcurveto
          58 -50 44 -90 vhcurveto
          -234 646 hlineto
          40 callsubr
          643 234 vlineto
          90 50 44 58 20 -4 15 -8 9 hvcurveto
          -311 hlineto
          -73 -42 -16 -27 -27 hvcurveto
          29 -34 -36 14 -33 hhcurveto
          -71 -43 -42 -51 -15 6 -13 5 -7 hvcurveto
          -89 callgsubr
          14 15 -6 -7 14 hvcurveto
          -665 vlineto
          -66 -33 -36 -89 -41 57 callgsubr
          -36 -66 vvcurveto
          -668 vlineto
          -7 -14 -15 -6 -14 hhcurveto
          -19 -20 -67 callgsubr
          endchar
        </CharString>
        <CharString name="bracketright">
          39 callgsubr
          374 198 vstem
          671 -139 rmoveto
          -84 callgsubr
          -14 -15 6 7 -14 hvcurveto
          668 vlineto
          40 callsubr
          665 vlineto
          7 14 15 6 14 -63 callsubr
          5 7 6 13 15 vvcurveto
          51 -43 42 -71 -33 -36 -14 -29 -34 vhcurveto
          27 -27 -42 16 -73 hhcurveto
          -311 hlineto
          -8 -9 -4 -15 -20 vvcurveto
          -58 50 -44 90 vhcurveto
          234 -643 hlineto
          -66 -33 -36 -89 -41 57 callgsubr
          -36 -66 vvcurveto
          -646 -234 vlineto
          -90 -50 -44 -58 -20 4 -15 8 -9 hvcurveto
          311 hlineto
          73 42 16 27 27 hvcurveto
          -29 34 36 -14 33 hhcurveto
          71 43 42 51 15 -6 13 -5 7 hvcurveto
          endchar
        </CharString>
        <CharString name="brokenbar">
          35 callgsubr
          314 824 rmoveto
          8 17 3 5 9 hvcurveto
          639 13 callgsubr
          -639 vlineto
          -85 51 -44 63 vhcurveto
          -114 -963 -3 callsubr
          680 13 callgsubr
          endchar
        </CharString>
        <CharString name="bullet">
          -585 554 490 hstem
          217 62 vstem
          366 554 rmoveto
          135 111 105 139 124 -103 122 -146 -149 -94 -114 -132 -149 126 -95 120 hvcurveto
          -49 122 rmoveto
          -28 -25 18 38 -20 hvcurveto
          -35 67 0 0 29 66 rrcurveto
          46 20 30 16 29 hhcurveto
          -16 -24 -22 -51 -54 vvcurveto
          -58 22 -34 16 -30 vhcurveto
          endchar
        </CharString>
        <CharString name="c">
          -4 callsubr
          162 456 rmoveto
          -281 35 180 -200 301 -66 callgsubr
          rrcurveto
          175 -191 rmoveto
          -66 callsubr
        </CharString>
        <CharString name="caron">
          -423 1363 482 hstem
          465 1363 -50 callgsubr
        </CharString>
        <CharString name="caron.cap">
          -416 1560 420 hstem
          466 1560 -51 callgsubr
        </CharString>
        <CharString name="ccedilla">
          -4 callsubr
          287 -363 rmoveto
          -24 callgsubr
          vhcurveto
          14 75 rlineto
          -6 35 37 -4 39 -66 callgsubr
          26 -207 104 -163 173 -72 -36 -200 rcurveline
          -20 callsubr
          20 callgsubr
          hvcurveto
          50 628 rmoveto
          -66 callsubr
        </CharString>
        <CharString name="cedilla">
          -579 -540 96 -96 279 75 96 113 -20 hstemhm
          432 206 hintmask 10111000
          280 22 rmoveto
          -38 -208 rlineto
          -20 callsubr
          hintmask 01111000
          20 callgsubr
          -24 callgsubr
          hvcurveto
          21 113 rlineto
          endchar
        </CharString>
        <CharString name="cent">
          -244 -174 511 -137 354 153 492 -405 405 -134 134 -134 485 hstemhm
          301 199 47 140 99 230 -134 134 hintmask 1010001110000000
          547 -45 rmoveto
          22 callgsubr
          hintmask 0110001101000000
          366 vlineto
          212 9 117 122 148 vvcurveto
          32 -18 43 49 callgsubr
          hintmask 1000101110000000
          -101 1 -50 -84 -136 hhcurveto
          -141 -56 82 162 hvcurveto
          272 vlineto
          135 51 77 112 79 44 -39 -57 -76 -69 -22 -49 1 vhcurveto
          hintmask 1001001110000000
          -50 10 30 -28 44 hhcurveto
          4 7 0 1 8 hvcurveto
          -3 -26 -15 -27 -16 -7 rrcurveto
          hintmask 1010001110000000
          -17 13 23 -11 26 hhcurveto
          49 56 32 42 27 hvcurveto
          -3 11 12 -1 10 hhcurveto
          30 35 18 31 19 hvcurveto
          -33 13 -18 32 48 vvcurveto
          133 -117 134 -193 13 vhcurveto
          222 vlineto
          hintmask 1000011110000000
          20 callsubr
          -349 vlineto
          -239 -30 -96 -130 -50 -143 -44 -123 -24 -24 -54 -25 72 -35 31 -29 19 -78 46 -193 146 -135 193 -38 rrcurveto
          -210 195 rmoveto
          -39 57 -23 34 9 callsubr
          24 39 47 rrcurveto
          7 -5 7 -16 -11 vvcurveto
          -9 -1 -10 -8 -30 vhcurveto
          -16 -61 -25 -75 -76 vvcurveto
          -76 25 -95 16 -61 vhcurveto
          8 -30 1 57 callsubr
          -7 -16 -7 -5 vhcurveto
          endchar
        </CharString>
        <CharString name="circumflex">
          -433 1363 482 hstem
          147 1363 -90 callgsubr
        </CharString>
        <CharString name="circumflex.cap">
          -416 1560 420 hstem
          147 1560 -93 callgsubr
        </CharString>
        <CharString name="colon">
          -639 -25 380 252 380 hstemhm
          78 522 hintmask 10100000
          78 164 -99 callgsubr
          hintmask 01100000
          -115 632 -99 callgsubr
          endchar
        </CharString>
        <CharString name="comma">
          -616 -357 712 hstem
          88 512 vstem
          88 164 -61 callgsubr
        </CharString>
        <CharString name="commaaccent">
          -650 -540 459 hstem
          174 -170 -88 callgsubr
        </CharString>
        <CharString name="copyright">
          125 -25 118 147 116 -116 266 150 266 -116 116 150 118 hstemhm
          100 133 172 81 55 139 206 119 203 134 hintmask 1011011111100000
          100 591 rmoveto
          -349 242 -267 391 331 278 250 366 311 -231 288 -380 -355 -276 -257 -342 vhcurveto
          133 -6 rmoveto
          271 195 216 300 274 206 -196 -291 -291 -195 -201 -281 -293 -206 203 289 vhcurveto
          172 7 rmoveto
          -224 132 -128 204 157 107 84 106 43 -27 33 -45 -28 -19 -15 -18 -11 vhcurveto
          5 -6 6 -13 -17 vvcurveto
          hintmask 1100111111100000
          -46 -42 -35 -59 -67 -38 37 91 vhcurveto
          201 vlineto
          78 35 43 70 62 39 -40 -41 -17 -6 -13 -5 -6 vhcurveto
          hintmask 1101011111100000
          -16 7 25 -17 26 hhcurveto
          37 35 29 47 106 -107 84 -144 -213 -136 -117 -213 hvcurveto
          164 -218 rmoveto
          -53 17 -30 69 133 vvcurveto
          116 42 97 51 7 vhcurveto
          -19 -25 -19 -138 -57 vvcurveto
          -74 11 -101 17 -44 vhcurveto
          endchar
        </CharString>
        <CharString name="currency">
          11 58 -21 193 149 460 151 190 -20 hstem
          265 173 448 173 vstem
          120 154 rmoveto
          123 -117 220 239 rlineto
          -30 60 70 -16 77 hhcurveto
          70 67 16 29 56 hvcurveto
          221 -238 124 115 -218 234 rlineto
          43 60 26 77 87 vvcurveto
          85 -25 76 -42 61 vhcurveto
          216 233 -124 115 -218 -236 rlineto
          29 -56 -65 17 -72 hhcurveto
          -81 -70 -18 -31 -58 hvcurveto
          -221 239 -123 -117 216 -232 rlineto
          -46 -64 -25 -78 -79 vvcurveto
          -88 25 -77 45 -61 vhcurveto
          103 226 rmoveto
          136 101 93 121 132 94 -97 -132 -146 -92 -85 -133 -112 -111 86 145 vhcurveto
          endchar
        </CharString>
        <CharString name="d">
          49 -25 146 -141 63 -63 111 943 146 307 53 hstemhm
          351 149 340 96 61 181 hintmask 10011111
          25 callgsubr
          90 105 41 74 64 hvcurveto
          hintmask 01011111
          -72 37 61 -38 61 hhcurveto
          28 30 11 21 28 hvcurveto
          -20 -86 callgsubr
          hintmask 00111111
          -84 callgsubr
          -35 -31 30 45 -17 hvcurveto
          300 vlineto
          44 33 47 89 40 -55 callgsubr
          42 49 vvcurveto
          763 vlineto
          -23 callsubr
          -53 -40 -31 -38 -31 vhcurveto
          7 -29 -80 callgsubr
          49 44 -25 -89 hvcurveto
          -215 vlineto
          66 -50 -98 34 -87 31 callsubr
          -58 -89 -41 99 -48 20 -34 3 -58 rrcurveto
          774 -191 rmoveto
          985 vlineto
          -32 callsubr
          -24 7 -38 8 -48 2 -308 1 -14 rrcurveto
          12 -4 -433 -99 callsubr
          -436 96 16 callgsubr
          hintmask 10011111
          -90 -64 -76 -86 -94 -96 61 179 vhcurveto
          -163 -96 rmoveto
          -39 57 -23 52 9 callsubr
          66 39 47 rrcurveto
          7 -5 7 -16 -11 vvcurveto
          -9 -1 -10 -8 -30 vhcurveto
          -16 -61 -25 -117 -76 vvcurveto
          -76 25 -113 16 -61 vhcurveto
          8 -30 1 57 callsubr
          -7 -16 -7 -5 vhcurveto
          endchar
        </CharString>
        <CharString name="dagger">
          -466 -254 -21 1290 15 callgsubr
          hintmask 11110000
          347 -146 -3 callsubr
          1282 97 vlineto
          hintmask 11100100
          85 44 51 -52 callgsubr
          hintmask 11110000
          -218 303 hlineto
          85 -51 44 -63 vhcurveto
          hintmask 11101000
          -13 -12 -3 -5 -9 hvcurveto
          -424 -97 vlineto
          hintmask 11110000
          -85 -44 -51 -48 callgsubr
          hintmask 11101000
          218 hlineto
          endchar
        </CharString>
        <CharString name="daggerdbl">
          -462 -253 -21 801 146 343 15 callgsubr
          hintmask 11111000
          347 -145 -3 callsubr
          793 97 vlineto
          hintmask 11110010
          85 44 51 -52 callgsubr
          hintmask 11111000
          -218 343 97 hlineto
          hintmask 11110010
          85 44 51 -52 callgsubr
          hintmask 11111000
          -218 303 hlineto
          85 -51 44 -63 vhcurveto
          hintmask 11110100
          -13 -12 -3 -5 -9 hvcurveto
          -424 -97 vlineto
          hintmask 11111000
          -85 -44 -51 -48 callgsubr
          hintmask 11110100
          218 -343 -97 hlineto
          hintmask 11111000
          -85 -44 -51 -48 callgsubr
          hintmask 11110100
          218 hlineto
          endchar
        </CharString>
        <CharString name="degree">
          -601 1018 119 294 119 hstem
          80 139 279 138 vstem
          364 1018 rmoveto
          152 120 106 160 163 -116 103 -154 -180 -106 -128 -138 -160 118 -106 166 hvcurveto
          -5 119 rmoveto
          -73 -67 56 91 87 61 60 78 84 56 -62 -85 -92 -55 -55 -84 hvcurveto
          endchar
        </CharString>
        <CharString name="dieresis">
          44 1363 337 hstem
          784 1453 -107 callsubr
        </CharString>
        <CharString name="dieresis.cap">
          -163 1602 337 hstem
          784 1692 -107 callsubr
        </CharString>
        <CharString name="divide">
          -239 127 273 395 273 hstemhm
          404 267 hintmask 00000000
          hintmask 11100000
          537 795 rmoveto
          43 callsubr
          -76 60 -59 73 hvcurveto
          -417 -270 rmoveto
          838 146 -838 hlineto
          284 -409 rmoveto
          -76 60 -59 73 43 callsubr
          vhcurveto
          endchar
        </CharString>
        <CharString name="dollar">
          -62 -367 481 -155 155 -113 -21 22 -21 1084 429 -86 86 -86 489 hstemhm
          110 188 -153 101 -101 153 -14 206 -39 140 90 140 37 327 -234 135 -83 117 hintmask 0100100100011100
          30 callsubr
          64 hvcurveto
          28 -14 32 -13 38 -9 rrcurveto
          -241 vlineto
          hintmask 1000100100011100
          22 callgsubr
          341 vlineto
          hintmask 0010100100011100
          -1 18 20 -1 20 hhcurveto
          hintmask 0001100100011100
          11 10 1 11 hhcurveto
          -219 vlineto
          hintmask 1000010010101100
          22 callgsubr
          359 vlineto
          232 56 132 171 182 vvcurveto
          170 -46 108 -259 224 vhcurveto
          -12 callgsubr
          67 111 vhcurveto
          hintmask 1000100100011010
          42 callsubr
          hvcurveto
          -6 callgsubr
          hintmask 1000100100011001
          20 18 22 47 39 vvcurveto
          hintmask 1000100100011010
          8 callgsubr
          -32 callgsubr
          -9 35 callsubr
          -7 2 rlineto
          255 vlineto
          hintmask 1000001001011100
          20 callsubr
          -343 vlineto
          2 -24 -25 2 -26 -5 -5 -1 -5 hhcurveto
          219 vlineto
          20 callsubr
          -359 vlineto
          -181 -47 -125 -133 -193 vvcurveto
          -142 53 -106 165 -152 vhcurveto
          -17 callgsubr
          -65 -121 -193 -132 130 4 callsubr
          hintmask 1000100100011100
          5 callgsubr
          380 738 rmoveto
          4 10 1 21 9 vvcurveto
          12 -13 11 -81 72 vhcurveto
          hintmask 1000100010101001
          -131 116 -52 98 -39 callsubr
          14 -21 hhcurveto
          -16 -17 -6 -9 -14 hvcurveto
          endchar
        </CharString>
        <CharString name="dotaccent">
          44 1363 24 callsubr
          1363 -56 callgsubr
        </CharString>
        <CharString name="dotaccent.001">
          -601 1323 370 hstem
          -77 callsubr
          endchar
        </CharString>
        <CharString name="dotaccent.cap">
          -163 1602 24 callsubr
          1602 -56 callgsubr
        </CharString>
        <CharString name="dotlessi">
          -31 callgsubr
          26 callsubr
          hintmask 11110000
          -96 callgsubr
          hintmask 11101000
          49 44 -25 -100 callgsubr
          endchar
        </CharString>
        <CharString name="dotlessj">
          23 callgsubr
          32 callsubr
          -96 338 hintmask 01110100
          -113 -178 -83 callsubr
          -76 -75 callgsubr
          -25 8 callsubr
          hintmask 10111000
          -81 callgsubr
          endchar
        </CharString>
        <CharString name="e">
          -97 -25 137 943 135 hstemhm
          453 46 291 86 62 206 -174 156 hintmask 11110100
          162 456 rmoveto
          -281 37 175 -200 324 hhcurveto
          180 248 102 177 32 -21 58 -59 -48 -23 -22 -20 -10 hvcurveto
          -103 26 -86 -87 -168 hhcurveto
          -131 -106 91 158 hvcurveto
          96 vlineto
          453 76 119 15 42 7 81 14 -10 75 -25 31 rrcurveto
          hintmask 11111000
          -22 3 6 21 18 vvcurveto
          274 -225 199 -248 -241 -232 -23 callgsubr
          vhcurveto
          -29 callgsubr
          338 122 rmoveto
          231 vlineto
          179 69 67 94 74 53 -62 -88 vhcurveto
          -280 vlineto
          86 15 rmoveto
          291 vlineto
          -32 callsubr
          -24 -52 callsubr
          13 -75 -1 -52 -82 vvcurveto
          -601 -385 rmoveto
          -39 57 -23 -35 callsubr
          21 -40 callgsubr
          23 3 14 38 171 23 64 39 47 rrcurveto
          7 -5 7 -16 -11 vvcurveto
          -9 -1 -10 -8 -30 vhcurveto
          -16 -61 -25 -115 -76 vvcurveto
          -76 25 -115 16 -61 vhcurveto
          8 -30 1 57 callsubr
          -7 -16 -7 -5 vhcurveto
          endchar
        </CharString>
        <CharString name="eacute">
          -97 -25 137 943 135 hstemhm
          453 46 291 86 62 206 -174 156 hintmask 11110100
          162 456 rmoveto
          -281 37 175 -200 324 hhcurveto
          180 248 102 177 32 -21 58 -59 -48 -23 -22 -20 -10 hvcurveto
          -103 26 -86 -87 -168 hhcurveto
          -131 -106 91 158 hvcurveto
          96 vlineto
          453 76 119 15 42 7 81 14 -10 75 -25 31 rrcurveto
          hintmask 11111000
          -22 3 6 21 18 vvcurveto
          274 -225 199 -248 -241 -232 -23 callgsubr
          vhcurveto
          -29 callgsubr
          338 122 rmoveto
          231 vlineto
          179 69 67 94 74 53 -62 -88 vhcurveto
          -280 vlineto
          86 15 rmoveto
          291 vlineto
          -32 callsubr
          -24 -52 callsubr
          13 -75 -1 -52 -82 vvcurveto
          -601 -385 rmoveto
          -39 57 -23 -35 callsubr
          21 -40 callgsubr
          23 3 14 38 171 23 64 39 47 rrcurveto
          7 -5 7 -16 -11 vvcurveto
          -9 -1 -10 -8 -30 vhcurveto
          -16 -61 -25 -115 -76 vvcurveto
          -76 25 -115 16 -61 vhcurveto
          8 -30 1 57 callsubr
          -7 -16 -7 -5 vhcurveto
          132 1098 -97 callsubr
        </CharString>
        <CharString name="ecircumflex">
          -97 -25 137 943 135 hstemhm
          453 46 291 86 62 206 -174 156 hintmask 11110100
          162 456 rmoveto
          -281 37 175 -200 324 hhcurveto
          180 248 102 177 32 -21 58 -59 -48 -23 -22 -20 -10 hvcurveto
          -103 26 -86 -87 -168 hhcurveto
          -131 -106 91 158 hvcurveto
          96 vlineto
          453 76 119 15 42 7 81 14 -10 75 -25 31 rrcurveto
          hintmask 11111000
          -22 3 6 21 18 vvcurveto
          274 -225 199 -248 -241 -232 -23 callgsubr
          vhcurveto
          -29 callgsubr
          338 122 rmoveto
          231 vlineto
          179 69 67 94 74 53 -62 -88 vhcurveto
          -280 vlineto
          86 15 rmoveto
          291 vlineto
          -32 callsubr
          -24 -52 callsubr
          13 -75 -1 -52 -82 vvcurveto
          -601 -385 rmoveto
          -39 57 -23 -35 callsubr
          21 -40 callgsubr
          23 3 14 38 171 23 64 39 47 rrcurveto
          7 -5 7 -16 -11 vvcurveto
          -9 -1 -10 -8 -30 vhcurveto
          -16 -61 -25 -115 -76 vvcurveto
          -76 25 -115 16 -61 vhcurveto
          8 -30 1 57 callsubr
          -7 -16 -7 -5 vhcurveto
          -22 1098 -90 callgsubr
        </CharString>
        <CharString name="edieresis">
          -97 -25 137 943 135 hstemhm
          453 46 291 86 62 206 -174 156 hintmask 11110100
          162 456 rmoveto
          -281 37 175 -200 324 hhcurveto
          180 248 102 177 32 -21 58 -59 -48 -23 -22 -20 -10 hvcurveto
          -103 26 -86 -87 -168 hhcurveto
          -131 -106 91 158 hvcurveto
          96 vlineto
          453 76 119 15 42 7 81 14 -10 75 -25 31 rrcurveto
          hintmask 11111000
          -22 3 6 21 18 vvcurveto
          274 -225 199 -248 -241 -232 -23 callgsubr
          vhcurveto
          -29 callgsubr
          338 122 rmoveto
          231 vlineto
          179 69 67 94 74 53 -62 -88 vhcurveto
          -280 vlineto
          86 15 rmoveto
          291 vlineto
          -32 callsubr
          -24 -52 callsubr
          13 -75 -1 -52 -82 vvcurveto
          -601 -385 rmoveto
          -39 57 -23 -35 callsubr
          21 -40 callgsubr
          23 3 14 38 171 23 64 39 47 rrcurveto
          7 -5 7 -16 -11 vvcurveto
          -9 -1 -10 -8 -30 vhcurveto
          -16 -61 -25 -115 -76 vvcurveto
          -76 25 -115 16 -61 vhcurveto
          8 -30 1 57 callsubr
          -7 -16 -7 -5 vhcurveto
          421 1188 -107 callsubr
        </CharString>
        <CharString name="egrave">
          -97 -25 137 943 135 hstemhm
          453 46 291 86 62 206 -174 156 hintmask 11110100
          162 456 rmoveto
          -281 37 175 -200 324 hhcurveto
          180 248 102 177 32 -21 58 -59 -48 -23 -22 -20 -10 hvcurveto
          -103 26 -86 -87 -168 hhcurveto
          -131 -106 91 158 hvcurveto
          96 vlineto
          453 76 119 15 42 7 81 14 -10 75 -25 31 rrcurveto
          hintmask 11111000
          -22 3 6 21 18 vvcurveto
          274 -225 199 -248 -241 -232 -23 callgsubr
          vhcurveto
          -29 callgsubr
          338 122 rmoveto
          231 vlineto
          179 69 67 94 74 53 -62 -88 vhcurveto
          -280 vlineto
          86 15 rmoveto
          291 vlineto
          -32 callsubr
          -24 -52 callsubr
          13 -75 -1 -52 -82 vvcurveto
          -601 -385 rmoveto
          -39 57 -23 -35 callsubr
          21 -40 callgsubr
          23 3 14 38 171 23 64 39 47 rrcurveto
          7 -5 7 -16 -11 vvcurveto
          -9 -1 -10 -8 -30 vhcurveto
          -16 -61 -25 -115 -76 vvcurveto
          -76 25 -115 16 -61 vhcurveto
          8 -30 1 57 callsubr
          -7 -16 -7 -5 vhcurveto
          437 1106 -89 callsubr
        </CharString>
        <CharString name="eight">
          90 -25 134 593 149 -121 134 551 135 hstemhm
          273 242 -175 205 317 91 -61 91 hintmask 10110110
          120 362 rmoveto
          -274 83 166 -113 339 hhcurveto
          313 169 116 271 97 hvcurveto
          22 61 36 36 42 24 -32 18 -48 38 -15 57 -25 95 -101 100 -117 41 69 45 61 80 38 82 29 62 29 35 42 24 -32 18 -38 38 -25 57 rrcurveto
          198 -85 -170 79 -259 hhcurveto
          -256 -181 -77 -200 -86 hvcurveto
          -25 -57 -14 -30 -56 -26 56 -32 15 -45 29 -62 34 -75 69 -71 69 -43 -112 -41 -108 -100 -27 -95 21 callgsubr
          19 -62 rrcurveto
          588 502 rmoveto
          -70 -93 30 140 hvcurveto
          230 vlineto
          91 83 60 80 79 75 -63 -95 vhcurveto
          -223 vlineto
          -139 -87 -31 -67 vhcurveto
          -302 77 rmoveto
          -54 4 -34 44 19 callsubr
          51 46 8 rrcurveto
          -43 -61 -33 -70 -92 vvcurveto
          -81 21 -95 45 -62 vhcurveto
          539 hmoveto
          9 64 -1 12 -17 callsubr
          -22 30 -12 25 vhcurveto
          34 -6 42 -57 15 -84 4 -25 21 -43 51 -17 -42 -14 -22 -13 -8 -49 -21 -116 -15 -21 -33 -6 rrcurveto
          hintmask 10111001
          -430 -616 rmoveto
          233 vlineto
          105 97 67 96 89 95 -41 -131 vhcurveto
          -233 vlineto
          -143 -87 -73 -97 -98 -95 72 144 vhcurveto
          440 -124 rmoveto
          14 31 14 108 143 vvcurveto
          hintmask 11011001
          104 -13 90 -12 25 vhcurveto
          35 -6 34 -49 15 -87 7 -43 29 -22 7 callsubr
          -35 -40 -7 rrcurveto
          -616 -1 rmoveto
          -30 5 -44 29 -43 151 -18 63 -27 23 -38 12 41 13 24 19 16 51 27 87 35 41 46 8 rrcurveto
          -45 -78 -10 -46 -95 vvcurveto
          -88 29 -102 37 -93 vhcurveto
          endchar
        </CharString>
        <CharString name="ellipsis">
          717 -25 380 hstem
          1434 164 -91 callsubr
          -678 hmoveto
          -96 callsubr
          -678 hmoveto
          -96 callsubr
          1471 hmoveto
          21 10 24 47 8 10 rrcurveto
          40 31 19 7 29 hhcurveto
          -16 -24 -22 -36 -54 vvcurveto
          -58 22 -14 16 -30 vhcurveto
          -28 -18 3 33 -27 hvcurveto
          -21 24 -17 30 -21 12 rrcurveto
          -678 hmoveto
          21 10 24 47 8 10 rrcurveto
          40 31 19 7 29 hhcurveto
          -16 -24 -22 -36 -54 vvcurveto
          -58 22 -14 16 -30 vhcurveto
          -28 -18 3 33 -27 hvcurveto
          -21 24 -17 30 -21 12 rrcurveto
          -678 -50 callsubr
        </CharString>
        <CharString name="emdash">
          -95 722 146 hstem
          0 1222 vstem
          8 722 rmoveto
          1085 hlineto
          85 44 51 -52 callgsubr
          -1085 hlineto
          -85 -44 -51 -48 callgsubr
          endchar
        </CharString>
        <CharString name="endash">
          -315 722 146 hstem
          0 1002 vstem
          8 722 rmoveto
          865 hlineto
          85 44 51 -52 callgsubr
          -865 hlineto
          -85 -44 -51 -48 callgsubr
          endchar
        </CharString>
        <CharString name="equal">
          -209 270 650 hstem
          170 768 vstem
          170 774 rmoveto
          768 146 -768 hlineto
          -650 vmoveto
          768 146 -768 hlineto
          endchar
        </CharString>
        <CharString name="eth">
          43 -25 146 813 146 520 -20 hstem
          311 199 340 96 vstem
          162 456 rmoveto
          -323 42 214 -158 264 hhcurveto
          269 206 176 305 41 hvcurveto
          8 57 15 37 99 48 -89 41 -22 58 -11 73 -31 206 -78 205 -125 155 139 40 rcurveline
          67 19 18 45 50 vvcurveto
          14 -2 8 -3 7 vhcurveto
          -309 -89 rlineto
          105 -117 -147 65 -177 hhcurveto
          -115 -6 -37 -40 15 hvcurveto
          147 -22 110 -55 79 -76 -170 -48 rcurveline
          -75 -21 -22 -60 -38 vvcurveto
          -11 2 -10 3 -9 vhcurveto
          342 99 41 -67 27 -74 14 -76 rlinecurve
          16 -42 -48 9 -57 hhcurveto
          -263 -195 -144 -166 -58 hvcurveto
          -22 -62 -11 -69 -89 -41 99 -48 15 -36 8 -58 rrcurveto
          784 -191 rmoveto
          441 vlineto
          268 -31 149 -67 127 vhcurveto
          19 28 -5 -27 17 hvcurveto
          77 -124 21 -141 -206 vvcurveto
          -65 5 -169 -17 -159 vhcurveto
          -5 -47 -23 -33 -24 -9 rrcurveto
          -436 96 rmoveto
          328 vlineto
          179 66 66 104 105 65 -66 -179 vhcurveto
          -328 39 callsubr
          -163 -96 rmoveto
          -39 57 -23 -35 callsubr
          22 -40 callgsubr
          22 3 14 25 113 25 49 50 60 rrcurveto
          7 -5 7 -16 -11 vvcurveto
          -9 1 -11 -10 -29 vhcurveto
          -28 -78 -13 -38 -76 vvcurveto
          -76 25 -115 16 -61 vhcurveto
          8 -30 1 57 callsubr
          -7 -16 -7 -5 vhcurveto
          endchar
        </CharString>
        <CharString name="exclam">
          -469 1642 38 hstem
          80 688 vstem
          434 469 rmoveto
          37 44 36 72 12 hvcurveto
          93 896 rlineto
          64 8 9 32 64 hhcurveto
          19 20 -5 -12 17 hvcurveto
          8 10 3 9 16 vvcurveto
          51 -34 42 -70 -31 -37 -5 -10 -35 vhcurveto
          25 -42 -61 10 -34 hhcurveto
          -35 -61 -10 -25 -42 hvcurveto
          10 -35 -36 5 -31 hhcurveto
          -70 -34 -41 -52 -15 3 -10 -73 callsubr
          64 9 -32 -64 8 hvcurveto
          104 -895 rlineto
          -68 10 45 -41 47 hhcurveto
          -33 167 rmoveto
          -82 877 61 31 19 -370 20 -266 rlinecurve
          9 -133 -4 -127 -23 -12 rrcurveto
          -233 -472 -99 callgsubr
          endchar
        </CharString>
        <CharString name="exclamdown">
          -469 -327 38 hstem
          80 688 vstem
          434 884 rmoveto
          -47 -45 -41 -68 -10 hvcurveto
          -104 -895 rlineto
          -64 -8 -9 -32 -64 hhcurveto
          -19 -20 -67 callgsubr
          -8 -10 -3 -10 -15 vvcurveto
          -52 34 -41 70 31 36 5 10 35 vhcurveto
          -25 42 61 -10 35 hhcurveto
          34 61 10 25 42 hvcurveto
          -10 35 37 -5 31 hhcurveto
          70 34 -82 callsubr
          -12 -17 -20 -5 -19 hhcurveto
          -64 -9 32 64 -8 hvcurveto
          -93 896 rlineto
          72 -12 -44 36 -37 hhcurveto
          -33 -167 rmoveto
          23 -12 4 -127 -9 -133 -20 -266 -19 -370 -61 31 rrcurveto
          -151 1349 rmoveto
          51 -31 19 -20 24 -44 rrcurveto
          -59 32 68 -37 71 hhcurveto
          72 58 35 59 32 hvcurveto
          24 44 30 36 41 17 -41 23 -25 12 -29 50 rrcurveto
          59 -34 -61 45 -67 hhcurveto
          -67 -71 -45 -59 -33 hvcurveto
          -28 -50 -18 -13 -48 -22 rrcurveto
          115 hmoveto
          21 12 17 30 21 24 rrcurveto
          33 27 18 3 28 hhcurveto
          -16 -30 -22 -14 -58 vvcurveto
          -54 22 -36 16 -24 vhcurveto
          -29 -19 7 40 -31 hvcurveto
          -8 10 -24 47 -21 10 rrcurveto
          endchar
        </CharString>
        <CharString name="f">
          -463 -20 63 -63 111 906 136 264 78 134 134 hstemhm
          221 52 -41 85 56 186 hintmask 10111101
          68 62 -14 callgsubr
          35 11 23 28 hvcurveto
          -22 38 49 -12 36 hhcurveto
          79 47 42 40 22 -6 14 -8 10 hvcurveto
          hintmask 01111101
          -13 -17 -30 -4 -19 hhcurveto
          -36 -45 19 54 -22 hvcurveto
          302 -18 callgsubr
          25 -72 callsubr
          25 66 vvcurveto
          268 206 47 callsubr
          -299 hlineto
          -8 69 -20 123 53 vvcurveto
          182 65 49 93 82 40 -36 -40 -39 -59 -20 -71 1 vhcurveto
          -53 -5 45 47 callgsubr
          -18 -12 -22 -25 -3 vhcurveto
          -16 3 34 -17 60 hhcurveto
          42 42 24 35 23 hvcurveto
          -3 10 10 -1 8 hhcurveto
          41 25 13 36 23 hvcurveto
          -33 13 -21 13 -7 47 rrcurveto
          145 -25 -118 96 -203 hhcurveto
          -294 -167 -253 -296 hvcurveto
          -61 -70 vlineto
          -57 -42 -35 -49 -8 3 -35 5 -9 hvcurveto
          161 -268 hlineto
          -64 callsubr
          -25 -58 -28 callsubr
          hintmask 10111011
          249 203 30 callgsubr
          rrcurveto
          42 15 26 20 16 vvcurveto
          160 vlineto
          202 31 45 50 24 vhcurveto
          -6 -65 -7 148 -485 vvcurveto
          -193 1 -82 -8 -49 vhcurveto
          -8 -47 -16 -27 -25 -15 rrcurveto
          endchar
        </CharString>
        <CharString name="five">
          -30 -20 136 738 134 279 130 -13 35 23 108 hstemhm
          98 77 -37 36 7 155 457 96 65 147 hintmask 1101110111000000
          98 89 rmoveto
          -69 60 3 callsubr
          69 94 -13 69 hhcurveto
          338 159 105 316 69 hvcurveto
          13 63 45 34 42 24 -32 18 -49 37 -14 58 rrcurveto
          230 -54 -154 123 -293 hhcurveto
          -171 -107 -45 -35 -58 hvcurveto
          320 vlineto
          hintmask 1110101111000000
          24 66 82 15 90 hhcurveto
          278 102 -44 -48 -26 0 -20 -13 -15 hvcurveto
          -18 4 27 -8 19 hhcurveto
          66 44 57 55 29 -6 21 -12 16 hvcurveto
          18 16 14 24 28 vvcurveto
          34 -14 27 -20 15 vhcurveto
          12 16 10 20 16 vvcurveto
          58 -51 30 -49 -37 -47 -9 -13 -33 vhcurveto
          12 -80 -111 10 -81 hhcurveto
          -93 -103 -18 -22 -76 hvcurveto
          29 -20 -24 11 -31 hhcurveto
          -72 -11 -65 -75 -3 hvcurveto
          -516 vlineto
          -69 -3 32 -39 83 68 34 68 215 hhcurveto
          124 59 -133 -167 hvcurveto
          -140 vlineto
          -225 -114 -73 -103 -159 -133 10 callgsubr
          -32 0 -25 7 -24 hvcurveto
          -32 -20 -22 -39 -41 vvcurveto
          -38 14 -34 25 -28 vhcurveto
          hintmask 1101110111000000
          -20 -24 -12 -32 -27 vvcurveto
          246 1269 -8 callsubr
          hintmask 1110101111000000
          29 callgsubr
          507 -1137 rmoveto
          16 33 22 76 193 vvcurveto
          165 -49 91 -14 23 vhcurveto
          50 -8 52 -68 22 -104 7 -43 27 -44 38 -12 -30 -10 -30 -34 -12 -70 -26 -142 -29 -39 -44 -7 rrcurveto
          endchar
        </CharString>
        <CharString name="florin">
          -463 -526 134 -134 363 -363 418 1105 136 192 418 -346 346 -134 134 hstemhm
          hintmask 00111000
          -134 -141 rmoveto
          16 -1 -32 17 -60 hhcurveto
          -42 -35 -24 -34 -21 hvcurveto
          hintmask 01010010
          2 -8 -9 1 -7 hhcurveto
          -41 -26 -13 -36 -28 hvcurveto
          32 -13 19 -13 1 -47 rrcurveto
          -145 7 107 -96 203 hhcurveto
          294 198 253 296 36 hvcurveto
          58 443 7 58 26 25 105 48 rlinecurve
          -84 41 -30 25 9 66 32 268 rcurveline
          207 hlineto
          54 49 32 52 6 hvcurveto
          3 26 -1 15 -4 11 rrcurveto
          -299 hlineto
          1 69 -5 122 7 54 rrcurveto
          182 22 71 49 93 hhcurveto
          82 36 -36 -40 -5 hvcurveto
          -5 -39 -62 -20 -71 1 rrcurveto
          hintmask 10010100
          -53 -11 42 47 callgsubr
          -2 -18 5 -22 -25 -3 rrcurveto
          hintmask 10011000
          -16 1 32 -17 60 hhcurveto
          42 35 24 34 21 hvcurveto
          -2 8 9 -1 7 hhcurveto
          41 26 13 36 28 hvcurveto
          -32 13 -19 13 -1 47 rrcurveto
          145 -7 -107 96 -203 hhcurveto
          -294 -198 -253 -296 -36 hvcurveto
          -8 -61 rlineto
          -70 hlineto
          -57 -46 -35 -49 -6 hvcurveto
          -1 -8 -1 -35 4 -9 rrcurveto
          161 hlineto
          -33 -268 -9 -66 -36 -25 -94 -41 rlinecurve
          93 -48 20 -25 -7 -58 -35 -316 -8 -250 -8 -61 rrcurveto
          -182 -22 -71 -49 -93 hhcurveto
          -82 -36 36 40 5 hvcurveto
          5 39 62 20 71 -1 rrcurveto
          53 11 -42 25 -44 hhcurveto
          -10 -17 -1 -5 -15 hvcurveto
          2 vlineto
          2 18 -5 22 25 3 rrcurveto
          386 406 rmoveto
          18 177 6 57 -8 48 -3 15 -19 21 -42 15 44 15 28 20 2 16 14 160 rcurveline
          20 202 35 45 53 24 -12 -65 6 148 -46 -485 -18 -193 -7 -82 -13 -49 -12 -47 -19 -27 -27 -15 rrcurveto
          endchar
        </CharString>
        <CharString name="foundryicon">
          1334 -109 374 1061 201 hstem
          536 463 121 372 vstem
          565 491 rmoveto
          -346 96 316 -254 377 hhcurveto
          452 366 366 452 452 -366 366 -452 -452 -366 -366 -452 -75 10 -73 19 -70 hvcurveto
          261 -180 rmoveto
          -13 10 -8 11 -3 13 rrcurveto
          28 18 84 5 22 vhcurveto
          16 11 77 0 11 -7 5 -27 0 -14 11 -29 16 -41 140 -73 86 56 13 28 -5 32 -8 20 -40 94 -233 57 -66 124 -21 40 -13 70 35 61 24 43 61 46 49 19 rrcurveto
          13 3 14 5 13 3 rrcurveto
          -16 20 -8 20 21 vvcurveto
          120 241 133 244 12 vhcurveto
          169 8 5 -137 -3 -116 rrcurveto
          -1 -7 0 -6 -5 vvcurveto
          -16 vlineto
          1 -1 rlineto
          -62 vlineto
          223 9 rlineto
          11 2 -9 -12 -28 -17 -63 -11 -3 hvcurveto
          -208 hlineto
          -47 -1 -56 -56 vvcurveto
          -216 vlineto
          -103 34 -33 53 -3 vhcurveto
          51 -3 70 16 29 8 17 3 8 -38 -6 -9 rrcurveto
          -27 -46 -88 -49 -107 hhcurveto
          -93 -90 33 148 hvcurveto
          13 433 -100 1 rlineto
          -18 1 30 19 16 hvcurveto
          3 3 52 24 48 29 8 197 47 112 -128 -5 -118 -5 -198 -80 8 -100 5 -69 90 -40 59 -24 7 -3 5 0 4 -3 6 -3 rcurveline
          3 -31 -17 -102 -8 -19 -8 -5 -61 -4 -17 8 -7 8 -5 28 -9 32 -13 35 -111 64 -78 -54 -11 -19 -3 -34 7 -19 27 -86 211 -64 87 -99 44 -49 9 -57 -15 -59 rrcurveto
          -19 -49 -54 -59 -51 -27 -63 -37 -84 -6 -52 3 -64 2 -71 19 -37 29 rrcurveto
          endchar
        </CharString>
        <CharString name="four">
          107 -25 58 407 134 918 58 hstem
          649 96 263 9 285 45 vstem
          115 440 rmoveto
          534 -278 hlineto
          -94 callgsubr
          -91 callgsubr
          -84 callgsubr
          -52 -49 25 51 -22 hvcurveto
          278 vlineto
          34 -1 64 -7 24 -10 rrcurveto
          49 -21 22 -33 -38 vvcurveto
          -40 -5 -31 -16 -26 vhcurveto
          -7 9 21 -9 20 hhcurveto
          41 67 31 99 14 -5 19 -7 19 hvcurveto
          35 41 6 57 16 vvcurveto
          12 -6 56 -35 41 vhcurveto
          7 18 5 19 15 vvcurveto
          98 -67 33 -41 -20 -21 -6 -8 -9 vhcurveto
          16 -27 5 -31 -40 vvcurveto
          -60 -22 -24 -37 -17 vhcurveto
          -24 -11 -75 -6 -35 -1 rrcurveto
          801 vlineto
          48 27 35 16 49 -63 callsubr
          8 10 3 9 16 vvcurveto
          54 -57 39 -63 -34 -31 -7 -13 -26 vhcurveto
          12 -21 -26 8 -27 hhcurveto
          -30 -34 -11 -18 -25 hvcurveto
          17 -22 -30 12 -26 hhcurveto
          -54 -49 -41 -87 -66 hvcurveto
          -520 -807 rlineto
          -25 -33 -27 -41 -32 vvcurveto
          -38 34 -31 79 vhcurveto
          76 134 rmoveto
          458 720 rlineto
          -720 vlineto
          96 -309 rmoveto
          985 vlineto
          -32 callsubr
          -24 -52 callsubr
          -48 callsubr
          -275 -282 vvcurveto
          -28 34 -19 34 -10 vhcurveto
          -42 -15 -26 -20 -16 vvcurveto
          -44 -4 -31 -99 callsubr
          endchar
        </CharString>
        <CharString name="g">
          -91 -540 136 688 134 629 143 -83 91 32 112 -24 121 hstemhm
          67 178 -101 109 80 169 235 97 -90 107 199 162 -114 24 hintmask 1110100110101000
          144 125 rmoveto
          -62 23 -57 49 -45 vhcurveto
          hintmask 1110101010101000
          -95 -48 -54 -86 -67 vvcurveto
          -153 157 -147 406 vhcurveto
          hintmask 1110100110110000
          312 270 143 232 159 -151 93 -234 35 hvcurveto
          -31 4 -29 34 -5 67 -52 -75 -56 -13 -26 4 rrcurveto
          -197 30 -43 27 64 vvcurveto
          20 14 16 19 12 vhcurveto
          -19 58 67 -9 75 hhcurveto
          240 153 106 225 72 hvcurveto
          22 69 29 29 70 34 -61 27 -41 56 -20 69 -33 111 -85 85 -114 49 rrcurveto
          hintmask 1101010110101000
          111 12 45 63 65 hhcurveto
          42 25 -15 -40 -28 -32 -38 -50 -16 hvcurveto
          -27 16 23 -11 24 hhcurveto
          44 38 16 23 12 hvcurveto
          11 -10 6 -11 -13 vvcurveto
          -12 -3 -13 -12 -10 vhcurveto
          -4 7 36 -2 8 hhcurveto
          71 40 53 82 6 hvcurveto
          41 14 23 30 -2 59 -35 -7 -24 6 -37 28 rrcurveto
          46 -61 -79 21 -77 hhcurveto
          -147 -122 -116 -146 -20 hvcurveto
          hintmask 1110100110101000
          8 -41 -44 5 -44 hhcurveto
          -280 -131 -134 -157 -53 hvcurveto
          -25 -75 -31 -47 -66 -30 80 -39 19 -25 21 -68 35 -115 54 -82 76 -53 rrcurveto
          -94 -51 -79 -83 -106 vvcurveto
          475 293 rmoveto
          -78 -39 42 134 hvcurveto
          277 vlineto
          134 39 42 78 vhcurveto
          hintmask 1110100111001000
          79 39 -42 -134 hvcurveto
          -277 vlineto
          -134 -39 -42 -79 vhcurveto
          215 55 rmoveto
          539 vlineto
          16 -7 26 -18 5 -29 rrcurveto
          7 -38 6 -94 -79 vvcurveto
          -81 -5 -101 -6 -25 vhcurveto
          -8 -35 -23 -25 -18 -7 rrcurveto
          -521 hmoveto
          -29 43 -19 64 -29 128 -2 11 -30 16 -24 12 24 11 30 16 2 11 30 131 19 47 40 49 rrcurveto
          10 -8 -2 -10 -23 vvcurveto
          -7 -1 -6 -6 -23 vhcurveto
          -12 -45 -15 -86 -57 vvcurveto
          -57 15 -86 12 -46 vhcurveto
          6 -23 1 -5 -9 vvcurveto
          -19 -4 -17 -16 -12 vhcurveto
          -60 -382 rmoveto
          7 2 13 7 6 vhcurveto
          50 -87 162 -51 163 -19 rrcurveto
          hintmask 1110100110110000
          301 -34 112 -35 -81 vvcurveto
          -8 -6 -12 -6 -8 vhcurveto
          -60 82 -99 16 -182 22 -31 4 -51 -43 -4 -11 -4 25 -23 47 -23 4 -206 37 -100 59 -2 67 rrcurveto
          hintmask 1110101010101000
          -8 -310 rmoveto
          65 31 34 40 17 vhcurveto
          53 -23 66 -18 81 -10 rrcurveto
          24 -3 31 -30 -75 vvcurveto
          58 62 39 23 39 -4 rrcurveto
          116 -13 132 -21 -70 vvcurveto
          -56 -98 -63 -212 -260 -140 103 82 vhcurveto
          endchar
        </CharString>
        <CharString name="germandbls">
          77 -510 111 374 122 -122 380 1111 134 hstemhm
          167 91 56 191 123 165 -165 284 7 155 -23 325 hintmask 1101111010000000
          167 -332 rmoveto
          -49 -18 -31 -18 -34 hhcurveto
          -19 -20 4 13 -17 hvcurveto
          -60 callgsubr
          1510 vlineto
          211 115 75 112 112 75 -60 -77 -50 -12 -43 -124 -102 vhcurveto
          -96 -74 -59 -88 -70 vvcurveto
          -140 62 -108 178 -140 vhcurveto
          hintmask 1101111001000000
          127 -100 56 -83 -96 vvcurveto
          -98 -52 -40 -74 -73 -59 50 84 35 12 29 25 26 vhcurveto
          hintmask 1011110101000000
          22 -14 -30 12 -32 hhcurveto
          -67 -47 -68 -78 -120 125 -114 179 252 180 137 234 160 -102 132 -153 118 hvcurveto
          -176 135 -33 75 61 vvcurveto
          42 24 34 43 45 vhcurveto
          hintmask 1101111010000000
          62 65 33 57 70 vvcurveto
          154 -148 106 -218 -335 -206 -233 -316 vhcurveto
          -281 vlineto
          -66 -33 -65 -85 callsubr
          -36 -58 vvcurveto
          91 -191 30 callgsubr
          rrcurveto
          42 15 26 20 16 vvcurveto
          160 vlineto
          202 31 45 50 24 vhcurveto
          -6 -65 -7 148 -485 vvcurveto
          -193 1 -82 -8 -49 vhcurveto
          -8 -47 -16 -27 -25 -15 rrcurveto
          endchar
        </CharString>
        <CharString name="grave">
          54 callsubr
          100 70 57 139 vstem
          396 1371 -89 callsubr
        </CharString>
        <CharString name="grave.cap">
          53 callgsubr
          100 68 59 130 vstem
          433 1600 -92 callsubr
        </CharString>
        <CharString name="greater">
          -295 74 1048 hstem
          144 714 vstem
          802 513 rmoveto
          53 37 3 27 21 vvcurveto
          21 -3 27 -53 37 vhcurveto
          -638 439 rlineto
          -12 -12 -8 -29 -19 vvcurveto
          -85 23 -61 126 -84 vhcurveto
          352 -234 -352 -234 rlineto
          -124 -86 -25 -59 -85 vvcurveto
          -19 8 -29 12 -12 vhcurveto
          638 439 rlineto
          endchar
        </CharString>
        <CharString name="guillemotleft">
          -148 180 848 hstemhm
          80 479 11 479 hintmask 11000000
          142 543 rmoveto
          -63 callgsubr
          hintmask 10100000
          490 hmoveto
          -63 callgsubr
          endchar
        </CharString>
        <CharString name="guillemotright">
          -148 180 848 hstemhm
          120 479 11 479 hintmask 11000000
          537 543 rmoveto
          -58 callsubr
          12 callsubr
          490 hmoveto
          -58 callsubr
          hintmask 10100000
          12 callsubr
          endchar
        </CharString>
        <CharString name="guilsinglleft">
          -638 180 848 hstem
          80 479 vstem
          142 543 rmoveto
          -63 callgsubr
          endchar
        </CharString>
        <CharString name="guilsinglright">
          -638 180 848 hstem
          120 479 vstem
          537 543 rmoveto
          -58 callsubr
          12 callsubr
          endchar
        </CharString>
        <CharString name="h">
          74 -20 63 -63 111 883 206 307 53 hstemhm
          219 94 184 58 -9 11 109 15 74 15 109 95 61 182 0 150 hintmask 1011110111100000
          66 -53 callgsubr
          37 33 10 20 -2 callgsubr
          62 12 -6 15 -9 8 hvcurveto
          -45 callsubr
          -5 -9 hhcurveto
          hintmask 1011101111010000
          -26 -23 10 39 -14 hvcurveto
          647 vlineto
          106 11 57 78 94 hhcurveto
          94 66 -40 -195 hvcurveto
          -596 -64 callgsubr
          39 32 11 19 25 vhcurveto
          -20 28 32 -10 38 hhcurveto
          35 39 12 20 28 hvcurveto
          -21 32 37 -11 36 hhcurveto
          79 34 -82 callsubr
          hintmask 0111110111100000
          -84 callgsubr
          -47 -23 20 42 -13 hvcurveto
          313 -18 callgsubr
          26 -72 callsubr
          24 66 vvcurveto
          67 vlineto
          239 -118 145 -225 vhcurveto
          hintmask 0111101111100000
          -150 -106 -67 -114 -61 hvcurveto
          493 vlineto
          -23 callsubr
          -53 -40 -31 -38 -31 vhcurveto
          7 -29 -80 callgsubr
          49 44 -25 -89 hvcurveto
          -566 vlineto
          -64 callsubr
          -13 -70 vvcurveto
          -308 -36 callgsubr
          17 2 callgsubr
          1 -496 -20 vvcurveto
          42 0 -236 1 callgsubr
          661 -1 rmoveto
          360 vlineto
          185 -24 57 -26 65 vhcurveto
          79 -39 32 -35 11 callsubr
        </CharString>
        <CharString name="hbar">
          74 -20 114 850 206 76 148 95 131 hstemhm
          45 257 -94 94 -94 338 322 95 61 182 hintmask 1111001110000000
          -36 callsubr
          37 33 10 20 27 hvcurveto
          -19 25 32 -11 40 -43 callsubr
          617 vlineto
          106 11 57 78 94 hhcurveto
          94 66 -40 -195 hvcurveto
          -566 -64 callgsubr
          39 32 11 19 25 vhcurveto
          -20 28 32 -10 38 hhcurveto
          35 39 12 20 28 hvcurveto
          -21 32 37 -11 36 hhcurveto
          79 34 -82 callsubr
          -84 callgsubr
          -47 -23 20 42 -13 hvcurveto
          303 -18 callgsubr
          36 -72 callsubr
          65 62 vvcurveto
          239 -118 145 -225 -150 -106 -67 -114 -61 vhcurveto
          254 vlineto
          246 7 rlineto
          85 44 54 -52 callgsubr
          -367 -9 rlineto
          86 vlineto
          99 -41 45 -70 -32 -31 -11 -21 -25 vhcurveto
          20 -37 -42 12 -46 hhcurveto
          hintmask 1111100110000000
          -122 -55 -56 -95 callsubr
          hintmask 1111010110000000
          48 43 -25 -85 2 hvcurveto
          -28 hlineto
          -90 -4 -39 -54 -61 vvcurveto
          -12 3 -11 5 -4 vhcurveto
          149 -443 hlineto
          -66 -33 -65 -85 callsubr
          -36 -58 vvcurveto
          -298 -57 callsubr
          21 -31 callsubr
          21 -27 callsubr
          17 2 callgsubr
          1 -496 -20 vvcurveto
          42 0 -236 1 callgsubr
          661 -1 rmoveto
          381 vlineto
          185 -24 27 -26 65 vhcurveto
          79 -39 32 -26 11 callsubr
        </CharString>
        <CharString name="hyphen">
          -457 525 146 hstem
          130 600 vstem
          138 525 rmoveto
          463 hlineto
          85 44 51 -52 callgsubr
          -463 hlineto
          -85 -44 -51 -48 callgsubr
          endchar
        </CharString>
        <CharString name="i">
          -601 -20 63 -63 111 502 10 366 171 -73 113 225 211 32 callsubr
          59 183 hintmask 10110111
          -77 callsubr
          -292 -1343 -14 callgsubr
          34 10 22 28 hvcurveto
          -20 -86 callgsubr
          hintmask 01101111
          -84 callgsubr
          -30 -32 18 35 -21 hvcurveto
          322 -18 callgsubr
          25 -62 callsubr
          22 callsubr
          -35 -29 -35 -27 vhcurveto
          hintmask 01110111
          15 -33 -36 9 -40 -40 callsubr
          -96 -75 callgsubr
          -5 -100 callgsubr
          endchar
        </CharString>
        <CharString name="iacute">
          -31 callgsubr
          724 -20 26 callsubr
          -69 69 63 134 hintmask 11111000
          -96 callgsubr
          hintmask 11110101
          49 44 -25 -100 callgsubr
          -149 1098 rmoveto
          13 19 3 5 18 hvcurveto
          169 43 127 155 158 vvcurveto
          91 -60 66 -92 -48 -53 -15 -25 -23 vhcurveto
          hintmask 11110011
          6 -19 4 -31 -24 vvcurveto
          -158 -47 -110 -57 -73 vhcurveto
          -10 -12 -6 -12 -15 vvcurveto
          -18 21 -9 19 vhcurveto
          74 110 rmoveto
          55 75 27 94 115 vvcurveto
          22 -5 27 -6 15 vhcurveto
          3 3 9 4 8 hhcurveto
          24 23 -22 -61 -100 -71 -188 -67 16 hvcurveto
          endchar
        </CharString>
        <CharString name="icircumflex">
          -31 callgsubr
          203 482 26 callsubr
          hintmask 11111000
          -96 callgsubr
          hintmask 11110100
          49 44 -25 -100 callgsubr
          -232 1098 rmoveto
          47 30 17 68 40 hvcurveto
          93 157 101 -132 rlineto
          -81 62 55 -29 91 hhcurveto
          49 48 21 34 21 hvcurveto
          -229 324 rlineto
          86 -61 -24 17 -41 hhcurveto
          -37 -34 -25 -78 -48 hvcurveto
          -210 -343 rlineto
          -19 23 -17 24 vhcurveto
          hintmask 11111000
          474 77 rmoveto
          -42 -28 14 76 -57 hvcurveto
          -102 134 26 40 rlineto
          endchar
        </CharString>
        <CharString name="idieresis">
          -31 callgsubr
          203 337 26 callsubr
          hintmask 11111000
          -96 callgsubr
          hintmask 11110100
          49 44 -25 -100 callgsubr
          140 1188 -107 callsubr
        </CharString>
        <CharString name="igrave">
          -31 callgsubr
          724 -20 hstemhm
          45 501 -382 70 -26 96 -13 139 hintmask 11111000
          -96 callgsubr
          hintmask 11110010
          49 44 -25 -100 callgsubr
          156 1106 rmoveto
          -5 18 19 -3 13 hhcurveto
          19 21 9 18 15 -6 12 -10 12 hvcurveto
          hintmask 11110101
          -57 73 -47 106 171 vvcurveto
          24 6 21 4 20 vhcurveto
          25 -23 -53 15 -48 hhcurveto
          -92 -60 -66 -91 -158 127 -155 169 -43 hvcurveto
          -56 102 rmoveto
          -60 -12 -110 168 100 vvcurveto
          54 30 44 41 -18 vhcurveto
          -11 -23 -3 -21 -17 vvcurveto
          -107 19 -55 94 -113 vhcurveto
          endchar
        </CharString>
        <CharString name="ij">
          134 -510 127 363 63 -63 111 -70 -21 593 10 366 171 -73 113 -108 68 265 211 32 callsubr
          59 183 -103 157 324 96 56 186 hintmask 0100110011100000
          -77 callsubr
          -292 -1343 -14 callgsubr
          34 10 22 28 hvcurveto
          -20 -86 callgsubr
          hintmask 0010101011100000
          -84 callgsubr
          -30 -32 18 35 -21 hvcurveto
          322 -18 callgsubr
          25 -62 callsubr
          22 callsubr
          -35 -29 -35 -27 vhcurveto
          hintmask 0010110011100000
          15 -33 -36 9 -40 -40 callsubr
          -96 -75 callgsubr
          -5 -100 callgsubr
          hintmask 1001000110011100
          787 1058 -87 callsubr
        </CharString>
        <CharString name="itilde">
          -31 callgsubr
          203 70 33 71 -71 145 -23 136 26 callsubr
          hintmask 1111101100000000
          -96 callgsubr
          hintmask 1111010010000000
          49 44 -25 -100 callgsubr
          -243 1088 -55 callsubr
          hvcurveto
          hintmask 1111101100000000
          78 -44 65 -53 -14 -11 -3 -9 -9 vhcurveto
          hintmask 1111010100000000
          -63 5 -42 -38 -40 hhcurveto
          -2 callsubr
          hvcurveto
          38 -80 -46 22 -67 -25 callgsubr
          -82 -93 -125 -78 44 -65 53 hvcurveto
          14 128 rmoveto
          -6 8 -2 11 9 vvcurveto
          hintmask 1111101100000000
          49 1 46 30 53 hhcurveto
          48 39 -7 -45 98 hvcurveto
          -42 92 32 -10 42 hhcurveto
          39 38 20 37 14 hvcurveto
          6 -8 2 -11 -9 vvcurveto
          -49 -1 -45 -31 -53 hhcurveto
          -40 -49 11 45 -97 hvcurveto
          38 -81 -39 10 -45 hhcurveto
          -39 -39 -19 -37 -14 hvcurveto
          endchar
        </CharString>
        <CharString name="j">
          -582 -510 127 404 -21 1072 68 265 211 hstem
          -273 157 324 96 56 186 vstem
          375 1323 -87 callsubr
        </CharString>
        <CharString name="jcircumflex">
          23 callgsubr
          203 482 32 callsubr
          -96 338 hintmask 01111010
          -113 -178 -83 callsubr
          -76 -75 callgsubr
          -25 8 callsubr
          hintmask 10111100
          -81 callgsubr
          -231 1387 -90 callgsubr
        </CharString>
        <CharString name="k">
          -93 callsubr
          endchar
        </CharString>
        <CharString name="kcommaaccent">
          -93 callsubr
          -377 -435 -88 callgsubr
        </CharString>
        <CharString name="kgreenlandic">
          58 -20 114 895 131 -75 115 20 -20 44 callsubr
          94 hintmask 10101000
          -36 callsubr
          37 33 10 20 -2 callgsubr
          46 28 -6 -62 callgsubr
          328 vlineto
          125 119 212 -461 rlineto
          -27 -14 -21 -8 -22 hhcurveto
          -9 -20 5 13 -17 hvcurveto
          -9 -8 -6 -15 -24 vvcurveto
          -50 -7 callsubr
          40 13 21 29 hvcurveto
          -22 38 49 -12 36 hhcurveto
          79 37 42 40 22 -6 14 -8 10 hvcurveto
          -84 callgsubr
          -44 -22 36 80 -38 hvcurveto
          -295 627 101 95 rlineto
          92 97 56 24 59 hhcurveto
          28 35 1 callsubr
          53 -55 35 -57 -38 -26 -13 -14 -19 vhcurveto
          15 -18 -24 12 -34 hhcurveto
          -38 -30 -15 -19 -21 hvcurveto
          17 -21 -31 17 -41 hhcurveto
          -79 -40 -43 -45 -15 3 -13 8 -13 hvcurveto
          9 16 46 10 31 hhcurveto
          31 14 -12 -14 -13 -16 -24 -45 -42 hvcurveto
          -303 -282 rlineto
          409 vlineto
          hintmask 11011000
          -23 callsubr
          -53 -40 -31 -38 -31 vhcurveto
          7 -29 -80 callgsubr
          hintmask 11010100
          49 44 -25 -89 hvcurveto
          -105 vlineto
          -66 -33 -65 -85 callsubr
          -36 -58 vvcurveto
          -298 -57 callsubr
          21 -31 callsubr
          21 4 15 rrcurveto
          13 48 -1 172 61 -37 callsubr
          -205 3 vvcurveto
          4 -1 -197 -58 callgsubr
          635 -1 rmoveto
          -185 400 46 44 98 -212 rlineto
          28 -52 26 -71 -55 vvcurveto
          -38 -9 -11 -4 -5 vhcurveto
          endchar
        </CharString>
        <CharString name="l">
          -583 14 callsubr
          61 62 -14 callgsubr
          32 11 21 27 hvcurveto
          -20 -86 callgsubr
          hintmask 01111000
          -84 callgsubr
          -35 -31 18 49 -17 hvcurveto
          308 34 callgsubr
          762 vlineto
          73 -32 35 -68 -53 -40 -31 -38 -31 vhcurveto
          7 -29 -80 callgsubr
          49 44 -25 -89 hvcurveto
          -565 vlineto
          -66 -33 -26 -85 callsubr
          -25 -58 -28 callsubr
          249 204 27 callgsubr
          56 -13 48 vhcurveto
          -4 15 -22 20 -31 callsubr
          22 -27 callsubr
          17 2 callgsubr
          1 -496 -20 vvcurveto
          42 0 -236 1 callgsubr
          endchar
        </CharString>
        <CharString name="ldot">
          -203 14 callsubr
          740 798 rmoveto
          -106 100 -80 96 107 86 89 97 106 -91 81 -102 -99 -97 -80 -107 vhcurveto
          142 -109 rmoveto
          -45 4 -38 58 47 vvcurveto
          44 34 58 48 8 vhcurveto
          hintmask 01111000
          -14 -31 -8 -38 -42 vvcurveto
          -35 7 -40 16 -33 vhcurveto
          -821 -627 -14 callgsubr
          32 11 21 27 hvcurveto
          -20 -43 callgsubr
          18 49 -17 hvcurveto
          308 34 callgsubr
          762 vlineto
          73 -32 35 -68 -53 -40 -31 -38 -31 vhcurveto
          7 -29 -80 callgsubr
          49 44 -25 -89 hvcurveto
          -565 vlineto
          -66 -33 -26 -85 callsubr
          -25 -58 -28 callsubr
          249 204 27 callgsubr
          56 -13 48 vhcurveto
          -4 15 -22 20 -31 callsubr
          22 -27 callsubr
          17 2 callgsubr
          1 -496 -20 vvcurveto
          42 0 -236 1 callgsubr
          endchar
        </CharString>
        <CharString name="less">
          -295 74 1048 hstem
          164 714 vstem
          220 513 rmoveto
          638 -439 rlineto
          12 12 8 29 19 vvcurveto
          85 -25 59 -124 86 vhcurveto
          -352 234 352 234 rlineto
          126 84 23 61 85 vvcurveto
          19 -8 29 -12 12 vhcurveto
          -638 -439 rlineto
          -53 -37 -3 -27 -21 vvcurveto
          -21 3 -27 53 -37 vhcurveto
          endchar
        </CharString>
        <CharString name="logicalnot">
          -239 271 400 hstem
          120 838 vstem
          120 525 rmoveto
          684 -254 154 400 -838 hlineto
          endchar
        </CharString>
        <CharString name="lslash">
          -583 -20 111 1318 131 60 -20 hstemhm
          45 259 -96 96 -96 491 -336 183 hintmask 11100100
          -36 callsubr
          39 34 10 22 28 hvcurveto
          -20 -86 callgsubr
          -84 callgsubr
          hintmask 11110010
          -35 -31 18 49 -17 hvcurveto
          729 vlineto
          80 49 34 callsubr
          -143 -88 rlineto
          448 vlineto
          -23 callsubr
          -53 -40 -31 -38 -31 vhcurveto
          7 -29 -80 callgsubr
          hintmask 11101010
          49 44 -25 -89 hvcurveto
          -449 9 callgsubr
          -531 -69 callgsubr
          249 204 rmoveto
          984 vlineto
          22 -15 17 -12 callsubr
          6 -32 3 -271 1 -101 -1 -124 -3 -246 48 callgsubr
        </CharString>
        <CharString name="m">
          731 -20 111 878 171 -166 206 hstemhm
          221 96 174 63 -4 8 205 15 109 96 233 8 107 15 83 15 109 96 61 178 hintmask 1011101111111000
          71 -33 callgsubr
          31 10 19 26 hvcurveto
          -19 25 32 -10 40 hhcurveto
          53 48 35 62 12 -9 -62 callgsubr
          hintmask 1011011111111000
          2 637 rlineto
          106 16 66 88 92 hhcurveto
          94 61 -56 -179 hvcurveto
          -596 -64 callgsubr
          39 32 11 19 25 vhcurveto
          -20 28 32 -10 38 hhcurveto
          33 36 11 19 27 hvcurveto
          -19 25 32 -11 40 -43 callsubr
          3 638 rlineto
          105 19 72 88 66 hhcurveto
          94 77 -56 -179 hvcurveto
          -596 -64 callgsubr
          39 32 11 19 25 vhcurveto
          -20 28 32 -10 38 hhcurveto
          34 38 12 20 28 hvcurveto
          -20 31 38 -4 callgsubr
          79 34 42 51 16 -13 9 -8 10 hvcurveto
          -13 -17 -10 -4 -19 hhcurveto
          -47 -23 20 42 -13 hvcurveto
          312 -18 callgsubr
          26 -72 callsubr
          25 66 vvcurveto
          3 67 rlineto
          239 -122 145 -209 -162 -132 -85 -134 -65 vhcurveto
          139 -45 -107 80 -156 hhcurveto
          -138 -124 -77 -114 -73 hvcurveto
          1 83 rlineto
          -23 callsubr
          -49 -39 -27 -35 -30 vhcurveto
          hintmask 1101101111111000
          14 -31 -34 -47 callsubr
          -146 vlineto
          -66 -33 -25 -44 callgsubr
          99 -48 23 -26 -58 vvcurveto
          -312 vlineto
          -42 -13 -23 -20 -47 -94 callsubr
          1578 192 rmoveto
          -16 callsubr
          -16 callsubr
          -22 callsubr
          57 -13 48 vhcurveto
          -4 15 -22 20 -31 callsubr
          22 4 15 rrcurveto
          13 48 -1 57 -22 callgsubr
          -15 17 -12 callsubr
          rrcurveto
          9 -46 -1 32 callgsubr
          26 1 -218 44 callgsubr
        </CharString>
        <CharString name="macron">
          -355 1383 146 hstem
          108 1383 rmoveto
          625 hlineto
          85 44 51 -52 callgsubr
          -625 hlineto
          -85 -44 -51 -48 callgsubr
          endchar
        </CharString>
        <CharString name="minus">
          -585 722 146 hstem
          69 722 rmoveto
          463 hlineto
          85 44 51 -52 callgsubr
          -463 hlineto
          -85 -44 -51 -48 callgsubr
          endchar
        </CharString>
        <CharString name="mu">
          72 -519 -21 520 36 callsubr
          206 803 131 60 -20 hstemhm
          45 480 -317 96 -96 317 170 501 -338 95 -95 491 -335 182 hintmask 1101110000100000
          208 -340 rmoveto
          -161 89 -39 69 83 76 67 98 56 -61 50 -29 77 vhcurveto
          -36 93 7 64 19 65 rrcurveto
          -33 22 46 -17 43 hhcurveto
          140 113 64 103 70 hvcurveto
          -108 8 57 -59 114 hhcurveto
          27 33 10 21 28 hvcurveto
          -20 33 39 -11 35 hhcurveto
          79 37 42 40 22 -6 14 -8 10 hvcurveto
          -84 callgsubr
          hintmask 1101110010000000
          -35 -31 30 45 -17 hvcurveto
          260 -47 callgsubr
          -53 -40 -31 -38 -31 vhcurveto
          7 -29 -80 callgsubr
          hintmask 1011110001010000
          49 44 -25 -89 hvcurveto
          -574 vlineto
          -70 -31 -59 -45 -72 hhcurveto
          -85 -67 52 151 hvcurveto
          2 683 rlineto
          -23 callsubr
          -53 -40 -31 -38 -31 vhcurveto
          7 -29 -80 callgsubr
          hintmask 1101100101010000
          49 44 -25 -89 hvcurveto
          -135 vlineto
          -58 -23 -36 -99 -48 57 callgsubr
          -65 -66 vvcurveto
          745 -161 rmoveto
          665 vlineto
          -32 callsubr
          -24 -52 callsubr
          -48 callsubr
          -107 -102 vvcurveto
          -186 -4 -25 -99 callsubr
          hintmask 1101101010000000
          -649 -285 27 callgsubr
          342 -13 48 vhcurveto
          -4 15 -22 21 -31 callsubr
          21 4 15 rrcurveto
          13 48 -1 20 -22 callgsubr
          -15 17 -12 callsubr
          rrcurveto
          8 -42 2 -145 -20 vvcurveto
          42 0 -522 1 callgsubr
          endchar
        </CharString>
        <CharString name="multiply">
          -286 240 734 hstem
          148 734 vstem
          248 240 rmoveto
          266 266 261 -260 101 101 -261 260 267 267 -100 100 -267 -267 -260 261 -101 -101 260 -261 -266 -266 rlineto
          endchar
        </CharString>
        <CharString name="n">
          -27 callgsubr
          211 -15 callsubr
          61 -102 callsubr
          endchar
        </CharString>
        <CharString name="nacute">
          -27 callgsubr
          208 -15 callsubr
          58 -102 callsubr
          271 1097 -97 callsubr
        </CharString>
        <CharString name="nbspace">
          -817 endchar
        </CharString>
        <CharString name="nine">
          144 -25 135 395 134 777 134 hstemhm
          214 150 -70 227 368 96 hintmask 11110100
          185 34 rmoveto
          -80 67 -30 54 19 35 6 9 16 vhcurveto
          -3 9 -4 23 12 vvcurveto
          24 7 11 21 11 23 -3 -10 33 vhcurveto
          -10 32 32 -20 135 hhcurveto
          417 202 345 314 37 hvcurveto
          11 88 31 47 60 28 -60 29 -32 52 -10 90 rrcurveto
          357 -40 -194 225 -395 hhcurveto
          -225 -247 -104 -257 -78 hvcurveto
          -19 -62 -39 -35 -42 -24 32 -18 53 -37 10 -58 rrcurveto
          -336 55 209 -114 275 hhcurveto
          74 84 23 32 57 hvcurveto
          -195 vlineto
          -159 -110 -96 -129 -175 -111 67 144 55 24 14 9 18 vhcurveto
          13 -15 -35 5 -21 hhcurveto
          -57 -55 -35 -80 -10 2 -10 4 -10 hvcurveto
          -36 -29 -17 -34 -44 vvcurveto
          -23 11 -31 24 -22 vhcurveto
          -11 -19 -6 -23 -22 vvcurveto
          507 605 rmoveto
          hintmask 11101100
          -100 -71 81 151 hvcurveto
          312 vlineto
          162 78 71 93 131 66 -107 -156 vhcurveto
          -303 vlineto
          -111 -58 -100 -139 vhcurveto
          -339 97 rmoveto
          -39 57 -43 -35 callsubr
          21 -40 callgsubr
          23 3 14 33 147 80 77 34 27 rrcurveto
          7 -5 7 -16 -11 vvcurveto
          -9 -19 -34 -15 -25 vhcurveto
          -28 -47 -38 -79 -76 vvcurveto
          -76 31 -83 19 -60 vhcurveto
          6 -19 17 -33 -30 vvcurveto
          -11 -7 -16 -7 -5 vhcurveto
          632 -471 rmoveto
          985 vlineto
          20 -9 22 -26 10 -57 rrcurveto
          10 -55 5 -60 -150 vvcurveto
          -67 35 -18 34 -10 vhcurveto
          -42 -15 -27 -21 -38 vvcurveto
          -266 -10 -71 -99 callsubr
          endchar
        </CharString>
        <CharString name="ntilde">
          -27 callgsubr
          208 -15 callsubr
          58 -102 callsubr
          177 1087 -55 callsubr
          78 -44 65 -53 -14 -11 -3 -9 -9 hvcurveto
          -63 5 -42 -38 -40 hhcurveto
          -2 callsubr
          hvcurveto
          -95 callgsubr
        </CharString>
        <CharString name="numbersign">
          75 512 146 194 146 hstem
          105 1172 vstem
          273 94 rmoveto
          28 callgsubr
          273 45 callsubr
          28 callgsubr
          137 hlineto
          85 44 51 -52 callgsubr
          -231 hlineto
          36 194 rlineto
          134 hlineto
          85 44 51 -52 callgsubr
          -228 2 callsubr
          -272 2 callsubr
          -141 hlineto
          -85 -44 -51 -48 callgsubr
          235 hlineto
          -35 -194 rlineto
          -139 hlineto
          -85 -44 -51 -48 callgsubr
          233 45 callsubr
          266 564 rmoveto
          36 194 rlineto
          272 hlineto
          -35 -194 rlineto
          endchar
        </CharString>
        <CharString name="o">
          -103 callgsubr
          endchar
        </CharString>
        <CharString name="oacute">
          -103 callgsubr
          148 1098 -97 callsubr
        </CharString>
        <CharString name="ocircumflex">
          -103 callgsubr
          38 1098 -90 callgsubr
        </CharString>
        <CharString name="odieresis">
          -103 callgsubr
          437 1188 -107 callsubr
        </CharString>
        <CharString name="oe">
          592 -25 137 -137 369 711 135 hstemhm
          311 199 340 96 61 182 54 callgsubr
          hintmask 1011111010000000
          162 17 callgsubr
          121 -205 363 hhcurveto
          147 118 41 71 84 hvcurveto
          -71 86 116 -41 149 hhcurveto
          176 227 136 164 hvcurveto
          hintmask 0111111010000000
          32 -8 37 49 callgsubr
          hintmask 1011110100000000
          -29 callsubr
          -119 -111 -45 -73 -87 vhcurveto
          73 -91 -119 45 -135 hhcurveto
          -263 -217 -23 callgsubr
          hvcurveto
          -10 -65 -23 -66 -89 -41 99 -48 15 -36 8 -58 rrcurveto
          1027 123 rmoveto
          255 vlineto
          154 49 67 94 74 53 -62 -88 vhcurveto
          -280 vlineto
          -949 -264 rmoveto
          438 vlineto
          179 66 66 104 105 65 -66 -179 vhcurveto
          -438 39 callsubr
          hintmask 1011111010000000
          1035 279 rmoveto
          291 vlineto
          -32 callsubr
          -24 -52 callsubr
          13 -75 -1 -52 -82 vvcurveto
          -661 -385 -83 callgsubr
          -599 hmoveto
          -66 callsubr
        </CharString>
        <CharString name="ograve">
          -103 callgsubr
          453 1106 -89 callsubr
        </CharString>
        <CharString name="one">
          -394 -20 58 -58 111 1333 24 hstemhm
          153 14 148 96 261 11 hintmask 10111100
          125 -88 callsubr
          hintmask 01111100
          -1 callsubr
          58 23 35 -72 callsubr
          36 66 vvcurveto
          170 vlineto
          88 7 102 6 41 vhcurveto
          5 35 1 55 25 vvcurveto
          73 -52 31 -68 -9 vhcurveto
          -51 -6 -53 -49 -40 -52 -40 7 -46 -2 -42 -16 rrcurveto
          -122 -46 -35 -101 -51 vvcurveto
          -21 6 -9 8 -7 vhcurveto
          17 20 20 11 19 7 rrcurveto
          49 19 44 -10 -89 vvcurveto
          -1 -216 rlineto
          -66 -33 -36 -79 callsubr
          -489 vlineto
          -94 callgsubr
          286 192 rmoveto
          361 1 72 -13 48 vhcurveto
          -4 15 -22 20 -42 15 34 10 25 21 9 27 rrcurveto
          9 31 3 38 36 callgsubr
          21 -24 -52 callsubr
          -48 callsubr
          -10 -282 vvcurveto
          -288 -4 -122 -99 callsubr
          endchar
        </CharString>
        <CharString name="onehalf">
          700 -14 33 callgsubr
          -278 111 57 110 411 -28 callgsubr
          686 127 250 90 61 157 hintmask 0010111100010111
          374 -46 callsubr
          -155 559 -51 callsubr
          hintmask 1001001101000111
          -33 callsubr
          hintmask 1001001110001111
          -10 callgsubr
          hintmask 1000111100101111
          -25 callsubr
          hintmask 1000111101000111
          13 callsubr
          hintmask 0011001110001111
          -42 callgsubr
          959 -800 rmoveto
          32 31 9 19 25 hvcurveto
          hintmask 1001001110001111
          -15 callgsubr
          hintmask 0101001110001111
          24 callgsubr
          hintmask 1001001110001111
          -39 callgsubr
          hintmask 0010111110001111
          -45 callgsubr
        </CharString>
        <CharString name="onequarter">
          771 -25 111 196 134 214 111 578 -28 callgsubr
          515 56 callgsubr
          hintmask 1111110001101100
          373 -46 callsubr
          685 289 rmoveto
          -44 35 -34 66 vhcurveto
          hintmask 1111110001011100
          -74 callsubr
          hintmask 1111110001101100
          52 callsubr
          hintmask 1111100010011100
          -26 callsubr
          -1344 495 -51 callsubr
          hintmask 1111101000101100
          -33 callsubr
          hintmask 1111110001101100
          -10 callgsubr
          hintmask 1111100101101100
          -25 callsubr
          hintmask 1111101000101100
          13 callsubr
          hintmask 1111110001101100
          -42 callgsubr
          endchar
        </CharString>
        <CharString name="onesuperior">
          -594 630 111 578 -28 callgsubr
          hintmask 11100010
          219 630 -51 callsubr
          hintmask 11101000
          -33 callsubr
          hintmask 11110001
          -10 callgsubr
          hintmask 11100101
          -25 callsubr
          hintmask 11101000
          13 callsubr
          hintmask 11110001
          -42 callgsubr
          endchar
        </CharString>
        <CharString name="ordfeminine">
          -318 703 119 433 295 -104 104 hstemhm
          85 89 -48 176 -73 149 161 96 54 158 hintmask 11001011
          371 703 rmoveto
          76 64 26 46 41 hvcurveto
          -46 25 50 -22 40 hhcurveto
          37 33 12 24 28 hvcurveto
          -22 28 41 -14 28 hhcurveto
          58 44 35 53 14 -5 18 -6 7 hvcurveto
          -9 -12 -23 -3 -14 hhcurveto
          -22 -19 5 13 -16 hvcurveto
          445 vlineto
          172 -142 93 -252 -195 -132 -86 -96 -75 63 -34 56 -4 vhcurveto
          48 -1 45 35 36 vvcurveto
          -20 -16 26 27 hvcurveto
          hintmask 10110111
          31 58 37 57 80 42 -46 -67 vhcurveto
          -96 vlineto
          -41 -46 -64 -14 -122 -2 rrcurveto
          -159 -4 -68 -76 -130 vvcurveto
          -165 103 -97 183 vhcurveto
          264 203 rmoveto
          -8 callgsubr
          -173 -81 rmoveto
          -60 -24 36 96 71 18 51 59 8 hvcurveto
          38 5 27 9 19 12 rrcurveto
          -177 vlineto
          -87 -40 -24 -37 vhcurveto
          -205 -27 rmoveto
          -53 17 -30 71 71 vvcurveto
          86 42 57 51 7 vhcurveto
          -19 -25 -19 -68 -57 vvcurveto
          -74 11 -41 17 -44 vhcurveto
          endchar
        </CharString>
        <CharString name="ordmasculine">
          -289 703 112 623 112 hstem
          86 90 56 196 177 111 54 172 vstem
          518 703 rmoveto
          246 182 132 303 -4 hvcurveto
          273 -4 -169 139 -254 hhcurveto
          -267 -159 -164 -248 -3 hvcurveto
          -287 -4 171 -148 265 hhcurveto
          -1 112 rmoveto
          -56 -33 33 71 hvcurveto
          408 vlineto
          67 35 44 54 54 34 -35 -76 vhcurveto
          -408 vlineto
          -72 -41 -32 -47 vhcurveto
          -269 91 rmoveto
          -46 51 -26 91 90 vvcurveto
          89 26 85 46 58 vhcurveto
          5 -4 14 -11 -8 vvcurveto
          -6 2 -8 -8 -20 vhcurveto
          -20 -51 -9 -53 -71 vvcurveto
          -47 9 -61 12 -42 vhcurveto
          9 -30 2 -8 -18 vvcurveto
          -8 -6 -13 -10 -5 vhcurveto
          468 hmoveto
          -8 callgsubr
          endchar
        </CharString>
        <CharString name="oslash">
          43 -25 141 933 141 hstem
          361 149 340 96 vstem
          279 -83 rmoveto
          -18 -40 -5 -49 -18 vvcurveto
          -58 25 -42 59 14 17 5 8 10 vhcurveto
          122 276 rlineto
          -16 52 60 -8 67 hhcurveto
          292 182 168 313 42 hvcurveto
          8 57 15 36 99 48 -89 41 -22 59 -11 73 -20 135 -79 119 -115 77 72 162 rcurveline
          18 40 5 49 18 vvcurveto
          58 -26 42 -59 -14 -17 -5 -8 -10 vhcurveto
          -127 -286 rlineto
          12 -46 -50 7 -52 hhcurveto
          -263 -217 -23 callgsubr
          hvcurveto
          -10 -65 -23 -67 -89 -41 99 -48 15 -35 8 -58 20 -158 59 -135 109 -86 rrcurveto
          160 279 rmoveto
          443 vlineto
          179 66 71 104 105 65 -71 -179 vhcurveto
          -443 vlineto
          -179 -74 -61 -97 -95 -74 61 179 vhcurveto
          436 -91 -83 callgsubr
          -599 hmoveto
          -39 57 -23 -35 callsubr
          21 -40 callgsubr
          23 3 14 38 171 23 64 39 47 rrcurveto
          7 -5 7 -16 -11 vvcurveto
          -9 -1 -10 -8 -30 vhcurveto
          -16 -61 -25 -115 -76 vvcurveto
          -76 25 -115 16 -61 vhcurveto
          8 -30 1 57 callsubr
          -7 -16 -7 -5 vhcurveto
          endchar
        </CharString>
        <CharString name="otilde">
          -103 callgsubr
          54 1088 -55 callsubr
          78 -44 65 -53 -14 -11 -3 -9 -9 hvcurveto
          -63 5 -42 -38 -40 hhcurveto
          -2 callsubr
          hvcurveto
          -95 callgsubr
        </CharString>
        <CharString name="p">
          67 -510 63 422 146 848 171 -106 146 -113 113 hstemhm
          209 94 59 184 -43 44 339 96 hintmask 1100110110000000
          70 -382 rmoveto
          -60 callgsubr
          385 vlineto
          -60 74 97 -20 81 27 callsubr
          35 99 48 -89 41 -27 67 38 callgsubr
          -97 -117 -49 -66 -67 hvcurveto
          7 vlineto
          -23 callsubr
          -49 -39 -27 -35 -30 vhcurveto
          hintmask 1110011010000000
          14 -31 -34 -47 callsubr
          -105 vlineto
          -66 -33 -66 -79 callsubr
          -788 33 callsubr
          476 699 rmoveto
          462 vlineto
          hintmask 1101011010000000
          179 97 76 94 94 55 -89 -146 vhcurveto
          -438 vlineto
          -179 -73 -61 -94 -86 -87 86 110 vhcurveto
          436 -52 -83 callgsubr
          -679 -291 27 callgsubr
          348 -13 48 vhcurveto
          -4 15 -22 20 -31 callsubr
          22 4 15 rrcurveto
          13 48 -1 73 161 vvcurveto
          22 -15 17 -12 callsubr
          rrcurveto
          9 -44 1 -186 -15 vvcurveto
          42 0 -521 -10 -49 vhcurveto
          -10 -47 -17 -33 -22 -15 rrcurveto
          endchar
        </CharString>
        <CharString name="paragraph">
          47 -20 111 1309 150 -111 111 hstemhm
          290 509 132 168 -168 358 hintmask 11011000
          441 73 rmoveto
          -51 64 -42 70 37 31 7 13 25 vhcurveto
          -12 11 16 -8 23 hhcurveto
          42 39 23 85 hvcurveto
          1233 vlineto
          54 24 25 39 50 19 -36 -46 vhcurveto
          -1230 vlineto
          -88 37 -20 43 23 16 8 13 11 vhcurveto
          -14 26 30 -7 38 hhcurveto
          hintmask 11010100
          70 64 -82 callsubr
          -13 -17 -28 -4 -19 hhcurveto
          hintmask 10111000
          -51 -44 24 50 -20 hvcurveto
          1188 vlineto
          59 26 41 27 56 -63 callsubr
          hintmask 11010100
          8 10 3 9 16 vvcurveto
          51 -64 42 -90 -41 -43 -13 -28 -42 vhcurveto
          28 -46 -57 13 -41 hhcurveto
          -43 -60 -14 -31 -48 hvcurveto
          24 -41 -77 21 -79 hhcurveto
          -173 -138 -104 -154 -44 hvcurveto
          -15 -52 -44 -51 -63 -29 99 -48 4 -39 19 -55 rrcurveto
          -166 58 131 -80 166 hhcurveto
          37 38 6 10 35 hvcurveto
          4 -624 rlineto
          -49 -21 -43 -24 -51 hhcurveto
          -19 -28 -90 callsubr
          -85 838 rmoveto
          -54 4 -34 74 19 callsubr
          71 46 8 rrcurveto
          -43 -61 -33 -90 -92 vvcurveto
          -81 21 -125 45 -62 vhcurveto
          endchar
        </CharString>
        <CharString name="parenleft">
          51 callgsubr
          419 -225 rmoveto
          14 -24 30 -10 23 1 rrcurveto
          23 24 11 16 19 hvcurveto
          -22 26 35 -13 54 hhcurveto
          14 25 10 24 33 vvcurveto
          8 -1 8 -2 6 vhcurveto
          31 10 27 29 28 vvcurveto
          23 -13 19 -17 6 vhcurveto
          -16 -17 -27 -7 -32 hhcurveto
          -14 -14 1 2 -13 hvcurveto
          -83 93 -86 258 242 vvcurveto
          47 33 65 59 29 vhcurveto
          -57 28 -35 67 46 vvcurveto
          236 89 252 83 98 vhcurveto
          2 11 12 0 11 hhcurveto
          32 27 -7 -16 17 hvcurveto
          17 6 17 18 23 vvcurveto
          27 -30 27 -33 10 vhcurveto
          5 9 3 12 13 vvcurveto
          33 -10 24 -14 25 vhcurveto
          -54 -35 -13 -22 -26 hvcurveto
          16 -19 -24 11 -23 hhcurveto
          -23 1 -30 -10 -14 -24 27 -17 38 -51 8 -47 -138 -149 -110 -192 -53 -285 -11 -62 -51 -66 -49 -23 47 -22 52 -64 12 -65 54 -293 106 -194 141 -150 -4 -48 -40 -38 -29 -18 rrcurveto
          210 1646 rmoveto
          10 7 rlineto
          -25 -1511 rmoveto
          15 -11 -5 3 -5 4 -5 4 rlinecurve
          endchar
        </CharString>
</ttFont>
